<?xml version="1.0" encoding="utf-8"?>
<svg id="master-artboard" viewBox="0 0 310.89837646484375 279.9704895019531" version="1.1" xmlns="http://www.w3.org/2000/svg" x="0px" y="0px" width="310.89837646484375px" height="279.9704895019531px" enable-background="new 0 0 1400 980"><rect id="ee-background" x="0" y="0" width="310.89837646484375" height="279.9704895019531" style="fill: white; fill-opacity: 0; pointer-events: none;"/>
<path d="M 0 0 H 1400 V 980 H 0 V 0 Z" display="none" fill="#FFFFFF" transform="matrix(1, 0, 0, 1, -316.9661560058594, -542.2975463867188)"/>
<g transform="matrix(1, 0, 0, 1, -316.9661560058594, -542.2975463867188)">
	
	<g transform="matrix(1, 0, 0, 1, -262.8866077227797, 353.0191589420185)">
		<g>
			
				<path fill="#666666" stroke="#4D4D4D" stroke-width="4.7587" stroke-linecap="round" stroke-linejoin="round" stroke-miterlimit="10" d="&#10;&#9;&#9;&#9;&#9;M659.8,458h-22.5c-8,0-14.4-6.4-14.4-14.4v-39c0-8,6.4-14.4,14.4-14.4h22.5c8,0,14.4,6.4,14.4,14.4v39&#10;&#9;&#9;&#9;&#9;C674.2,451.6,667.7,458,659.8,458z"/>
			
				<path fill="#666666" stroke="#4D4D4D" stroke-width="4.7587" stroke-linecap="round" stroke-linejoin="round" stroke-miterlimit="10" d="&#10;&#9;&#9;&#9;&#9;M831.4,458h-22.5c-8,0-14.4-6.4-14.4-14.4v-39c0-8,6.4-14.4,14.4-14.4h22.5c8,0,14.4,6.4,14.4,14.4v39&#10;&#9;&#9;&#9;&#9;C845.8,451.6,839.3,458,831.4,458z"/>
		</g>
		
			<path fill="#FFCE47" stroke="#4D4D4D" stroke-width="4.7587" stroke-linecap="round" stroke-linejoin="round" stroke-miterlimit="10" d="&#10;&#9;&#9;&#9;M847,407.9H621.7c-16.2,0-29.3-13.1-29.3-29.3v-44.1c0-16.2,13.1-29.3,29.3-29.3H847c16.2,0,29.3,13.1,29.3,29.3v44.1&#10;&#9;&#9;&#9;C876.4,394.8,863.3,407.9,847,407.9z"/>
		
			<path fill="#E6E6E6" stroke="#4D4D4D" stroke-width="4.7587" stroke-linecap="round" stroke-linejoin="round" stroke-miterlimit="10" d="&#10;&#9;&#9;&#9;M874.7,374.8h-279c-6.2,0-11.1,5-11.1,11.1v10.8c0,6.2,5,11.1,11.1,11.1h279c6.2,0,11.1-5,11.1-11.1V386&#10;&#9;&#9;&#9;C885.9,379.8,880.9,374.8,874.7,374.8z"/>
		
			<path fill="#FFF3D1" stroke="#4D4D4D" stroke-width="4.7587" stroke-linecap="round" stroke-linejoin="round" stroke-miterlimit="10" d="&#10;&#9;&#9;&#9;M847,305.2H621.7l26.8-87.9c2.1-6.9,8.4-11.6,15.6-11.6h140.7c7.2,0,13.5,4.7,15.6,11.6L847,305.2z"/>
		<g>
			
				<path fill="#FFCE47" stroke="#4D4D4D" stroke-width="4.7587" stroke-linecap="round" stroke-linejoin="round" stroke-miterlimit="10" d="&#10;&#9;&#9;&#9;&#9;M847.5,273.4h-52.6c-6.5,0-11.8,5.3-11.8,11.8v8.2c0,6.5,5.3,11.8,11.8,11.8h52.6c6.5,0,11.8-5.3,11.8-11.8v-8.2&#10;&#9;&#9;&#9;&#9;C859.2,278.7,854,273.4,847.5,273.4z"/>
			
				<path fill="#FFCE47" stroke="#4D4D4D" stroke-width="4.7587" stroke-linecap="round" stroke-linejoin="round" stroke-miterlimit="10" d="&#10;&#9;&#9;&#9;&#9;M673.8,273.4h-52.6c-6.5,0-11.8,5.3-11.8,11.8v8.2c0,6.5,5.3,11.8,11.8,11.8h52.6c6.5,0,11.8-5.3,11.8-11.8v-8.2&#10;&#9;&#9;&#9;&#9;C685.6,278.7,680.3,273.4,673.8,273.4z"/>
		</g>
		
			<path fill="#C3EDF5" stroke="#4D4D4D" stroke-width="4.7587" stroke-linecap="round" stroke-linejoin="round" stroke-miterlimit="10" d="&#10;&#9;&#9;&#9;M822.2,305.2H646.5l21.1-69.3c1.5-4.9,6-8.2,11.1-8.2H790c5.1,0,9.6,3.3,11.1,8.2L822.2,305.2z"/>
		<g>
			
				<path d="M 663.400013 354.600006 A 20.200001 20.200001 0 0 1 643.200012 374.800007 A 20.200001 20.200001 0 0 1 623.000011 354.600006 A 20.200001 20.200001 0 0 1 643.200012 334.400005 A 20.200001 20.200001 0 0 1 663.400013 354.600006 Z" fill="#FFF3D1" stroke="#4D4D4D" stroke-width="4.7587" stroke-linecap="round" stroke-linejoin="round" stroke-miterlimit="10"/>
			
				<path d="M 845.799976 354.600006 A 20.200001 20.200001 0 0 1 825.599976 374.800007 A 20.200001 20.200001 0 0 1 805.399975 354.600006 A 20.200001 20.200001 0 0 1 825.599976 334.400005 A 20.200001 20.200001 0 0 1 845.799976 354.600006 Z" fill="#FFF3D1" stroke="#4D4D4D" stroke-width="4.7587" stroke-linecap="round" stroke-linejoin="round" stroke-miterlimit="10"/>
		</g>
		
			<path fill="#666666" stroke="#4D4D4D" stroke-width="4.7587" stroke-linecap="round" stroke-linejoin="round" stroke-miterlimit="10" d="&#10;&#9;&#9;&#9;M767.8,381.4h-62.9c-3.9,0-7.1-3.2-7.1-7.1v-35.4c0-3.9,3.2-7.1,7.1-7.1h62.9c3.9,0,7.1,3.2,7.1,7.1v35.4&#10;&#9;&#9;&#9;C774.9,378.2,771.7,381.4,767.8,381.4z"/>
		
			<path d="M 697.799988 356.600006 L 774.900024 356.600006" fill="none" stroke="#4D4D4D" stroke-width="4.7587" stroke-linecap="round" stroke-linejoin="round" stroke-miterlimit="10"/>
		<g>
			
				<path d="M 697.799988 343 L 774.900024 343" fill="none" stroke="#4D4D4D" stroke-width="4.7587" stroke-linecap="round" stroke-linejoin="round" stroke-miterlimit="10"/>
			
				<path d="M 697.799988 370.100006 L 774.900024 370.100006" fill="none" stroke="#4D4D4D" stroke-width="4.7587" stroke-linecap="round" stroke-linejoin="round" stroke-miterlimit="10"/>
		</g>
	</g>
	
	
	
	
</g>
</svg>