<?xml version="1.0" encoding="utf-8"?>
<svg id="master-artboard" viewBox="0 0 1361.9088134765625 466.4730529785156" version="1.1" xmlns="http://www.w3.org/2000/svg" x="0px" y="0px" width="1361.9088134765625px" height="466.4730529785156px" enable-background="new 0 0 1400 980"><rect id="ee-background" x="0" y="0" width="1361.9088134765625" height="466.4730529785156" style="fill: white; fill-opacity: 0; pointer-events: none;"/>
<g transform="matrix(1, 0, 0, 1, 351.28635025024414, 62.0746955871582)">
		<path d="M 856.554993 172.936996 H 900.202991 V 197.985996 H 856.554993 V 172.936996 Z" style="fill: rgb(112, 110, 113);"/>
		
			<path d="M 919.935974 218.102997 H 948.369974 V 234.418997 H 919.935974 V 218.102997 Z" transform="matrix(0.7542 0.6566 -0.6566 0.7542 378.1782 -557.7848)" style="fill: rgb(112, 110, 113);"/>
		<path d="M 868.700012 178.061005 H 888.056013 V 220.379005 H 868.700012 V 178.061005 Z" style="fill: rgb(112, 110, 113);"/>
		<path d="M878.379,377.19c-45.726,0-82.927-37.2-82.927-82.925s37.201-82.927,82.927-82.927s82.926,37.202,82.926,82.927&#10;&#9;&#9;&#9;S924.104,377.19,878.379,377.19z M878.379,222.724c-39.45,0-71.542,32.093-71.542,71.541c0,39.448,32.092,71.539,71.542,71.539&#10;&#9;&#9;&#9;c39.445,0,71.539-32.091,71.539-71.539C949.918,254.816,917.824,222.724,878.379,222.724z" style="fill: rgb(112, 110, 113);"/>
		<path d="M 916.7379760742188 256.7799987792969 L 876.8400268554688 289.0350036621094 L 880.6599731445312 292.8590087890625 L 884.4849853515625 296.6839904785156 Z" style="fill: rgb(112, 110, 113);"/>
		<path d="M 887.675014 294.265015 A 9.298 9.298 0 0 1 878.377014 303.563015 A 9.298 9.298 0 0 1 869.079014 294.265015 A 9.298 9.298 0 0 1 878.377014 284.967014 A 9.298 9.298 0 0 1 887.675014 294.265015 Z" style="fill: rgb(112, 110, 113);"/>
	</g><path d="M 371.9200134277344 709.7750244140625 L 367.0329895019531 755.8800048828125 L 371.9200134277344 755.8800048828125 L 376.8080139160156 755.8800048828125 Z" transform="matrix(0.899244741177673, 0, 0, 0.899244741177673, 75.97645452097214, -278.2700100518584)" style="fill: rgb(36, 191, 117);"/><path d="M413.291,774.162h-76.751l-1.423-0.937c-19.896-13.082-31.306-35.465-31.306-61.407c0-20.426,8.667-47.949,22.619-71.826&#10;&#9;&#9;&#9;c7.26-12.424,26.517-41.322,48.487-41.322c31.382,0,71.105,70.154,71.105,113.148c0,25.942-11.411,48.325-31.307,61.407&#10;&#9;&#9;&#9;L413.291,774.162z M339.993,762.775h69.846c15.783-11.061,24.797-29.531,24.797-50.957c0-38.995-36.837-101.763-59.72-101.763&#10;&#9;&#9;&#9;c-23.441,0-59.72,61.818-59.72,101.763C315.196,733.242,324.21,751.713,339.993,762.775z" transform="matrix(0.899244741177673, 0, 0, 0.899244741177673, 75.97645452097214, -278.2700100518584)" style="fill: rgb(36, 191, 117);"/><path d="M432.139,794.7H317.692l20.946-28.631l36.267-0.073l36.289,0.073L432.139,794.7z M340.128,783.315h69.575l-4.296-5.873&#10;&#9;&#9;&#9;l-30.502-0.061l-30.48,0.061L340.128,783.315z" transform="matrix(0.899244741177673, 0, 0, 0.899244741177673, 75.97645452097214, -278.2700100518584)" style="fill: rgb(36, 191, 117);"/><path d="M 311.895996 686.054016 H 437.855995 V 697.440016 H 311.895996 V 686.054016 Z" transform="matrix(0.899244741177673, 0, 0, 0.899244741177673, 75.97645452097214, -278.2700100518584)" style="fill: rgb(36, 191, 117);"/><path d="M 326.300995 675.174011 H 330.854995 V 688.146011 H 326.300995 V 675.174011 Z" transform="matrix(0.899244741177673, 0, 0, 0.899244741177673, 75.97645452097214, -278.2700100518584)" style="fill: rgb(36, 191, 117);"/><path d="M 336.588989 675.174011 H 341.142989 V 688.146011 H 336.588989 V 675.174011 Z" transform="matrix(0.899244741177673, 0, 0, 0.899244741177673, 75.97645452097214, -278.2700100518584)" style="fill: rgb(36, 191, 117);"/><path d="M 346.877991 675.174011 H 351.432991 V 688.146011 H 346.877991 V 675.174011 Z" transform="matrix(0.899244741177673, 0, 0, 0.899244741177673, 75.97645452097214, -278.2700100518584)" style="fill: rgb(36, 191, 117);"/><path d="M 357.166992 675.174011 H 361.720992 V 688.146011 H 357.166992 V 675.174011 Z" transform="matrix(0.899244741177673, 0, 0, 0.899244741177673, 75.97645452097214, -278.2700100518584)" style="fill: rgb(36, 191, 117);"/><path d="M 367.454987 675.174011 H 372.008986 V 688.146011 H 367.454987 V 675.174011 Z" transform="matrix(0.899244741177673, 0, 0, 0.899244741177673, 75.97645452097214, -278.2700100518584)" style="fill: rgb(36, 191, 117);"/><path d="M 377.743988 675.174011 H 382.297988 V 688.146011 H 377.743988 V 675.174011 Z" transform="matrix(0.899244741177673, 0, 0, 0.899244741177673, 75.97645452097214, -278.2700100518584)" style="fill: rgb(36, 191, 117);"/><path d="M 388.032013 675.174011 H 392.587013 V 688.146011 H 388.032013 V 675.174011 Z" transform="matrix(0.899244741177673, 0, 0, 0.899244741177673, 75.97645452097214, -278.2700100518584)" style="fill: rgb(36, 191, 117);"/><path d="M 398.320007 675.174011 H 402.875007 V 688.146011 H 398.320007 V 675.174011 Z" transform="matrix(0.899244741177673, 0, 0, 0.899244741177673, 75.97645452097214, -278.2700100518584)" style="fill: rgb(36, 191, 117);"/><path d="M 408.608002 675.174011 H 413.162002 V 688.146011 H 408.608002 V 675.174011 Z" transform="matrix(0.899244741177673, 0, 0, 0.899244741177673, 75.97645452097214, -278.2700100518584)" style="fill: rgb(36, 191, 117);"/><path d="M 418.897003 675.174011 H 423.451003 V 688.146011 H 418.897003 V 675.174011 Z" transform="matrix(0.899244741177673, 0, 0, 0.899244741177673, 75.97645452097214, -278.2700100518584)" style="fill: rgb(36, 191, 117);"/><g transform="matrix(1, 0, 0, 1, -347.0539207458496, 111.45228576660156)">
			<path d="M601.385,307.327l-190.406,1.814c-13.811,0.131-25.154-10.999-25.286-24.811l-0.747-78.377&#10;&#9;&#9;&#9;&#9;c-0.131-13.812,10.998-25.155,24.809-25.287l190.407-1.813c13.811-0.131,25.154,10.997,25.286,24.809l0.747,78.377&#10;&#9;&#9;&#9;&#9;C626.326,295.853,615.197,307.196,601.385,307.327z M412.996,281.796l185.852-1.772l-0.703-73.823l-185.853,1.77L412.996,281.796&#10;&#9;&#9;&#9;&#9;z" style="fill: rgb(230, 78, 78);"/>
		</g><path d="M 411.039001 309.036011 H 433.241001 V 321.739011 H 411.039001 V 309.036011 Z" transform="matrix(1, -0.00950000248849392, 0.00950000248849392, 1, -350.031307220459, 115.47718811035156)" style="fill: rgb(230, 78, 78);"/><path d="M 580.109985 307.423004 H 602.311985 V 320.128004 H 580.109985 V 307.423004 Z" transform="matrix(1, -0.00950000248849392, 0.00950000248849392, 1, -350.0151023864746, 117.09648132324219)" style="fill: rgb(230, 78, 78);"/><path d="M467.155,235.968l0.098,10.365c0.023,2.355-0.089,4.072-0.335,5.148c-0.246,1.076-0.768,2.088-1.564,3.028&#10;&#9;&#9;&#9;&#9;c-0.797,0.941-1.763,1.624-2.899,2.042c-1.134,0.42-2.405,0.64-3.813,0.653c-1.856,0.018-3.4-0.185-4.632-0.6&#10;&#9;&#9;&#9;&#9;c-1.232-0.416-2.217-1.077-2.956-1.979c-0.739-0.901-1.265-1.851-1.582-2.853c-0.316-1.003-0.485-2.595-0.506-4.784&#10;&#9;&#9;&#9;&#9;l-0.102-10.846c-0.028-2.853,0.198-4.992,0.678-6.416c0.478-1.425,1.447-2.575,2.902-3.445c1.457-0.872,3.229-1.319,5.314-1.338&#10;&#9;&#9;&#9;&#9;c1.701-0.016,3.228,0.267,4.578,0.852c1.349,0.581,2.359,1.299,3.034,2.148c0.673,0.852,1.133,1.812,1.38,2.884&#10;&#9;&#9;&#9;&#9;C466.998,231.901,467.132,233.613,467.155,235.968z M459.375,233.433c-0.016-1.65-0.106-2.685-0.269-3.096&#10;&#9;&#9;&#9;&#9;c-0.165-0.416-0.541-0.618-1.13-0.611c-0.575,0.004-0.954,0.229-1.135,0.669c-0.181,0.443-0.265,1.466-0.25,3.065l0.145,15.164&#10;&#9;&#9;&#9;&#9;c0.019,1.804,0.115,2.889,0.291,3.26c0.176,0.369,0.553,0.549,1.129,0.545c0.576-0.007,0.951-0.225,1.125-0.663&#10;&#9;&#9;&#9;&#9;c0.176-0.438,0.255-1.417,0.241-2.939L459.375,233.433z" transform="matrix(1, 0, 0, 1, -347.0539207458496, 111.45228576660156)" style="fill: rgb(230, 78, 78);"/><path d="M488.229,235.768l0.098,10.365c0.023,2.355-0.088,4.071-0.334,5.148c-0.246,1.076-0.768,2.086-1.564,3.029&#10;&#9;&#9;&#9;&#9;c-0.798,0.94-1.764,1.621-2.899,2.041c-1.134,0.421-2.405,0.641-3.813,0.654c-1.856,0.018-3.399-0.184-4.631-0.603&#10;&#9;&#9;&#9;&#9;c-1.231-0.414-2.218-1.074-2.956-1.977c-0.739-0.9-1.266-1.852-1.583-2.853c-0.315-1.003-0.485-2.595-0.506-4.783l-0.102-10.846&#10;&#9;&#9;&#9;&#9;c-0.028-2.853,0.198-4.992,0.678-6.418c0.477-1.425,1.446-2.573,2.903-3.442c1.457-0.872,3.227-1.319,5.313-1.339&#10;&#9;&#9;&#9;&#9;c1.701-0.016,3.228,0.267,4.578,0.849c1.349,0.583,2.359,1.299,3.034,2.151c0.673,0.852,1.133,1.813,1.381,2.884&#10;&#9;&#9;&#9;&#9;C488.072,231.701,488.206,233.413,488.229,235.768z M480.449,233.23c-0.015-1.65-0.105-2.682-0.269-3.095&#10;&#9;&#9;&#9;&#9;s-0.541-0.616-1.129-0.612c-0.575,0.007-0.954,0.229-1.136,0.672c-0.181,0.442-0.263,1.463-0.249,3.062l0.145,15.164&#10;&#9;&#9;&#9;&#9;c0.018,1.804,0.114,2.892,0.29,3.26c0.176,0.372,0.553,0.552,1.129,0.545c0.576-0.004,0.95-0.225,1.125-0.661&#10;&#9;&#9;&#9;&#9;c0.175-0.438,0.256-1.418,0.242-2.942L480.449,233.23z" transform="matrix(1, 0, 0, 1, -347.0539207458496, 111.45228576660156)" style="fill: rgb(230, 78, 78);"/><path d="M503.796,235.948l0.06,6.313l-5.853,0.056l-0.06-6.313L503.796,235.948z M503.929,249.845l0.061,6.333l-5.853,0.056&#10;&#9;&#9;&#9;&#9;l-0.062-6.333L503.929,249.845z" transform="matrix(1, 0, 0, 1, -347.0539207458496, 111.45228576660156)" style="fill: rgb(230, 78, 78);"/><path d="M531.107,235.361l0.098,10.365c0.023,2.355-0.089,4.069-0.334,5.146c-0.246,1.077-0.768,2.089-1.564,3.029&#10;&#9;&#9;&#9;&#9;c-0.797,0.94-1.764,1.623-2.899,2.044c-1.133,0.417-2.404,0.638-3.812,0.651c-1.856,0.018-3.4-0.185-4.632-0.6&#10;&#9;&#9;&#9;&#9;c-1.232-0.416-2.218-1.077-2.957-1.979c-0.738-0.9-1.265-1.85-1.582-2.853c-0.316-1.002-0.485-2.595-0.506-4.783l-0.102-10.845&#10;&#9;&#9;&#9;&#9;c-0.028-2.853,0.198-4.993,0.678-6.416c0.477-1.426,1.446-2.575,2.903-3.445c1.457-0.872,3.228-1.319,5.314-1.338&#10;&#9;&#9;&#9;&#9;c1.702-0.016,3.228,0.269,4.576,0.852c1.349,0.58,2.36,1.298,3.035,2.148c0.673,0.852,1.133,1.812,1.379,2.884&#10;&#9;&#9;&#9;&#9;C530.95,231.292,531.083,233.006,531.107,235.361z M523.328,232.823c-0.015-1.65-0.105-2.684-0.269-3.095&#10;&#9;&#9;&#9;&#9;c-0.164-0.416-0.54-0.618-1.129-0.611c-0.575,0.004-0.954,0.229-1.135,0.671c-0.182,0.44-0.264,1.463-0.25,3.063l0.145,15.164&#10;&#9;&#9;&#9;&#9;c0.018,1.803,0.114,2.889,0.291,3.259c0.175,0.37,0.552,0.55,1.128,0.545c0.576-0.006,0.95-0.224,1.125-0.662&#10;&#9;&#9;&#9;&#9;c0.174-0.438,0.255-1.417,0.241-2.94L523.328,232.823z" transform="matrix(1, 0, 0, 1, -347.0539207458496, 111.45228576660156)" style="fill: rgb(230, 78, 78);"/><path d="M552.485,232.891l-7.754,0.073c-0.013-1.445-0.038-2.357-0.074-2.735c-0.037-0.374-0.192-0.689-0.469-0.943&#10;&#9;&#9;&#9;&#9;c-0.279-0.253-0.654-0.375-1.127-0.372c-0.397,0.004-0.721,0.127-0.975,0.374c-0.254,0.244-0.398,0.56-0.432,0.943&#10;&#9;&#9;&#9;&#9;c-0.036,0.382-0.047,1.156-0.037,2.321l0.048,4.952c0.389-0.834,0.964-1.465,1.729-1.887c0.763-0.423,1.708-0.639,2.834-0.65&#10;&#9;&#9;&#9;&#9;c1.42-0.013,2.678,0.355,3.773,1.116c1.094,0.756,1.794,1.67,2.099,2.742c0.304,1.074,0.466,2.524,0.483,4.354l0.023,2.475&#10;&#9;&#9;&#9;&#9;c0.021,2.177-0.047,3.794-0.203,4.859c-0.158,1.065-0.592,2.05-1.307,2.959c-0.713,0.908-1.698,1.619-2.954,2.128&#10;&#9;&#9;&#9;&#9;c-1.255,0.512-2.722,0.776-4.397,0.792c-2.086,0.021-3.797-0.25-5.134-0.816c-1.336-0.563-2.372-1.381-3.104-2.457&#10;&#9;&#9;&#9;&#9;c-0.732-1.072-1.167-2.204-1.298-3.394c-0.134-1.189-0.216-3.496-0.248-6.927l-0.041-4.299c-0.036-3.698-0.005-6.173,0.092-7.42&#10;&#9;&#9;&#9;&#9;c0.096-1.248,0.529-2.431,1.299-3.552c0.77-1.121,1.827-1.966,3.173-2.535c1.345-0.569,2.899-0.863,4.666-0.878&#10;&#9;&#9;&#9;&#9;c2.175-0.022,3.964,0.313,5.365,1.005c1.401,0.689,2.409,1.67,3.022,2.945C552.15,229.339,552.466,230.947,552.485,232.891z&#10;&#9;&#9;&#9;&#9; M544.823,242.657c-0.009-1.101-0.139-1.853-0.384-2.259c-0.248-0.407-0.646-0.609-1.197-0.603&#10;&#9;&#9;&#9;&#9;c-0.537,0.004-0.929,0.203-1.173,0.596c-0.248,0.392-0.365,1.156-0.354,2.295l0.054,5.624c0.014,1.37,0.14,2.266,0.38,2.687&#10;&#9;&#9;&#9;&#9;c0.241,0.418,0.637,0.625,1.188,0.621c0.332-0.005,0.676-0.169,1.032-0.5c0.354-0.327,0.525-1.21,0.511-2.644L544.823,242.657z" transform="matrix(1, 0, 0, 1, -347.0539207458496, 111.45228576660156)" style="fill: rgb(230, 78, 78);"/><path d="M 551.487976 173.197006 H 561.354976 V 182.306006 H 551.487976 V 173.197006 Z" transform="matrix(1, -0.00950000248849392, 0.00950000248849392, 1, -348.70910263061523, 116.71940612792969)" style="fill: rgb(230, 78, 78);"/><path d="M 573.879028 172.983994 H 583.747028 V 182.092994 H 573.879028 V 172.983994 Z" transform="matrix(1, -0.00950000248849392, 0.00950000248849392, 1, -348.7058982849121, 116.93049621582031)" style="fill: rgb(230, 78, 78);"/><path d="M 685.349985 473.972992 A 7.24 7.24 0 0 1 678.109985 481.212992 A 7.24 7.24 0 0 1 670.869986 473.972992 A 7.24 7.24 0 0 1 678.109985 466.732992 A 7.24 7.24 0 0 1 685.349985 473.972992 Z" transform="matrix(1, 0, 0, 1, 31.03738021850586, -358.3402404785156)" style="fill: rgb(112, 110, 113);"/><path d="M 699.2520141601562 494.09698486328125 L 674.6959838867188 474.01300048828125 L 674.6959838867188 434 L 681.5269775390625 434 L 681.5269775390625 470.7749938964844 L 703.5780029296875 488.8080139160156 Z" transform="matrix(1, 0, 0, 1, 31.03738021850586, -358.3402404785156)" style="fill: rgb(112, 110, 113);"/><path d="M678.11,376.681c-46.951,0-85.009,38.06-85.009,85.01v71.834v116.691v71.836c0,46.95,38.059,85.01,85.009,85.01&#10;&#9;&#9;c46.952,0,85.01-38.06,85.01-85.01v-71.836V533.525v-71.834C763.12,414.74,725.062,376.681,678.11,376.681z M729.061,719.962&#10;&#9;&#9;c0,28.14-22.812,50.951-50.951,50.951s-50.951-22.812-50.951-50.951v-144.6h101.901V719.962z M678.11,534.103&#10;&#9;&#9;c-33.208,0-60.127-26.922-60.127-60.129c0-33.21,26.92-60.129,60.127-60.129c33.209,0,60.13,26.919,60.13,60.129&#10;&#9;&#9;C738.24,507.181,711.319,534.103,678.11,534.103z" transform="matrix(1, 0, 0, 1, 31.03738021850586, -358.3402404785156)" style="fill: rgb(112, 110, 113);"/><path d="M700.61,685.675l-15.105-107.464h-9.199l15.283,108.736c-4.496,2.226-7.722,6.703-8.078,12.066&#10;&#9;&#9;c-0.531,8.012,5.533,14.939,13.545,15.469c8.013,0.534,14.937-5.53,15.471-13.543C713.022,693.479,707.799,686.967,700.61,685.675z&#10;&#9;&#9;" transform="matrix(1, 0, 0, 1, 31.03738021850586, -358.3402404785156)" style="fill: rgb(112, 110, 113);"/><path d="M1124.236,380.752c-50.469,0-91.383,40.913-91.383,91.382s40.914,91.382,91.383,91.382&#10;&#9;&#9;&#9;c50.468,0,91.382-40.913,91.382-91.382S1174.704,380.752,1124.236,380.752z M1124.236,540.578&#10;&#9;&#9;&#9;c-37.8,0-68.444-30.642-68.444-68.444c0-37.802,30.645-68.443,68.444-68.443s68.443,30.641,68.443,68.443&#10;&#9;&#9;&#9;C1192.68,509.937,1162.036,540.578,1124.236,540.578z" transform="matrix(0.86105477809906, 0, 0, 0.86105477809906, 153.38556725621595, -244.7726474940839)" style="fill: rgb(36, 191, 116);"/><path d="M 1128.664962 472.134003 A 4.429 4.429 0 0 1 1124.235962 476.563003 A 4.429 4.429 0 0 1 1119.806962 472.134003 A 4.429 4.429 0 0 1 1124.235962 467.705003 A 4.429 4.429 0 0 1 1128.664962 472.134003 Z" transform="matrix(0.86105477809906, 0, 0, 0.86105477809906, 153.38556725621595, -244.7726474940839)" style="fill: rgb(36, 191, 116);"/><path d="M1127.536,411.634c0,1.821-1.479,3.3-3.3,3.3c-1.819,0-3.301-1.479-3.301-3.3c0-1.819,1.481-3.298,3.301-3.298&#10;&#9;&#9;&#9;C1126.058,408.336,1127.536,409.814,1127.536,411.634z" transform="matrix(0.86105477809906, 0, 0, 0.86105477809906, 153.38556725621595, -244.7726474940839)" style="fill: rgb(36, 191, 116);"/><path d="M1127.536,530.068c0,1.821-1.479,3.3-3.3,3.3c-1.819,0-3.301-1.479-3.301-3.3s1.481-3.298,3.301-3.298&#10;&#9;&#9;&#9;C1126.058,526.771,1127.536,528.247,1127.536,530.068z" transform="matrix(0.86105477809906, 0, 0, 0.86105477809906, 153.38556725621595, -244.7726474940839)" style="fill: rgb(36, 191, 116);"/><path d="M1183.455,474.149c-1.823,0-3.3-1.477-3.3-3.3c0-1.819,1.477-3.296,3.3-3.296c1.819,0,3.296,1.477,3.296,3.296&#10;&#9;&#9;&#9;C1186.751,472.672,1185.274,474.149,1183.455,474.149z" transform="matrix(0.86105477809906, 0, 0, 0.86105477809906, 153.38556725621595, -244.7726474940839)" style="fill: rgb(36, 191, 116);"/><path d="M1065.021,474.149c-1.824,0-3.301-1.477-3.301-3.3c0-1.819,1.477-3.296,3.301-3.296c1.818,0,3.295,1.477,3.295,3.296&#10;&#9;&#9;&#9;C1068.316,472.672,1066.84,474.149,1065.021,474.149z" transform="matrix(0.86105477809906, 0, 0, 0.86105477809906, 153.38556725621595, -244.7726474940839)" style="fill: rgb(36, 191, 116);"/><path d="M 1124.2359619140625 430.67401123046875 L 1122.1729736328125 438.9949951171875 L 1122.1729736328125 470.85101318359375 L 1124.2359619140625 470.85101318359375 L 1126.300048828125 470.85101318359375 L 1126.300048828125 438.9949951171875 Z" transform="matrix(0.86105477809906, 0, 0, 0.86105477809906, 153.38556725621595, -244.7726474940839)" style="fill: rgb(36, 191, 116);"/><path d="M 1143.77001953125 491.5989990234375 L 1140.218994140625 483.3819885253906 L 1126.8360595703125 469.9989929199219 L 1124.5030517578125 472.3299865722656 L 1122.1729736328125 474.6650085449219 L 1135.5550537109375 488.0450134277344 Z" transform="matrix(0.86105477809906, 0, 0, 0.86105477809906, 153.38556725621595, -244.7726474940839)" style="fill: rgb(36, 191, 116);"/><path d="M262.333,387.728c-43.05,0-77.951,34.9-77.951,77.951c0,43.05,34.9,77.95,77.951,77.95c43.05,0,77.951-34.9,77.951-77.95&#10;&#9;&#9;&#9;C340.283,422.628,305.382,387.728,262.333,387.728z M262.333,527.771c-34.292,0-62.091-27.8-62.091-62.093&#10;&#9;&#9;&#9;s27.799-62.093,62.091-62.093c34.292,0,62.091,27.8,62.091,62.093S296.625,527.771,262.333,527.771z" transform="matrix(1, 0, 0, 1, -16.929424285888672, -310.3734436035156)" style="fill: rgb(140, 138, 142);"/><path d="M 266.111008 465.678009 A 3.778 3.778 0 0 1 262.333008 469.456009 A 3.778 3.778 0 0 1 258.555008 465.678009 A 3.778 3.778 0 0 1 262.333008 461.900009 A 3.778 3.778 0 0 1 266.111008 465.678009 Z" transform="matrix(1, 0, 0, 1, -16.929424285888672, -310.3734436035156)" style="fill: rgb(140, 138, 142);"/><path d="M 265.146001 414.071014 A 2.814 2.814 0 0 1 262.332001 416.885014 A 2.814 2.814 0 0 1 259.518001 414.071014 A 2.814 2.814 0 0 1 262.332001 411.257015 A 2.814 2.814 0 0 1 265.146001 414.071014 Z" transform="matrix(1, 0, 0, 1, -16.929424285888672, -310.3734436035156)" style="fill: rgb(140, 138, 142);"/><path d="M 265.146001 515.098022 A 2.814 2.814 0 0 1 262.332001 517.912022 A 2.814 2.814 0 0 1 259.518001 515.098022 A 2.814 2.814 0 0 1 262.332001 512.284023 A 2.814 2.814 0 0 1 265.146001 515.098022 Z" transform="matrix(1, 0, 0, 1, -16.929424285888672, -310.3734436035156)" style="fill: rgb(140, 138, 142);"/><path d="M312.846,467.397c-1.554,0-2.814-1.258-2.814-2.815c0-1.552,1.26-2.811,2.814-2.811s2.813,1.258,2.813,2.811&#10;&#9;&#9;&#9;C315.659,466.139,314.399,467.397,312.846,467.397z" transform="matrix(1, 0, 0, 1, -16.929424285888672, -310.3734436035156)" style="fill: rgb(140, 138, 142);"/><path d="M211.82,467.397c-1.554,0-2.814-1.258-2.814-2.815c0-1.552,1.26-2.811,2.814-2.811c1.552,0,2.813,1.258,2.813,2.811&#10;&#9;&#9;&#9;C214.633,466.139,213.372,467.397,211.82,467.397z" transform="matrix(1, 0, 0, 1, -16.929424285888672, -310.3734436035156)" style="fill: rgb(140, 138, 142);"/><path d="M 262.3330078125 430.31298828125 L 260.5710144042969 437.4100036621094 L 260.5710144042969 464.5840148925781 L 262.3330078125 464.5840148925781 L 264.0950012207031 464.5840148925781 L 264.0950012207031 437.4100036621094 Z" transform="matrix(1, 0, 0, 1, -16.929424285888672, -310.3734436035156)" style="fill: rgb(140, 138, 142);"/><path d="M 278.9939880371094 482.281005859375 L 275.9649963378906 475.27398681640625 L 264.54998779296875 463.85699462890625 L 262.55999755859375 465.84600830078125 L 260.5710144042969 467.8380126953125 L 271.98699951171875 479.25 Z" transform="matrix(1, 0, 0, 1, -16.929424285888672, -310.3734436035156)" style="fill: rgb(140, 138, 142);"/><path d="M212.239,374.752c-12.398,4.546-20.244,14.248-15.702,26.646l44.901-16.451&#10;&#9;&#9;&#9;&#9;C236.896,372.549,224.638,370.209,212.239,374.752z" transform="matrix(1, 0, 0, 1, -16.929424285888672, -310.3734436035156)" style="fill: rgb(140, 138, 142);"/><path d="M312.823,374.752c12.398,4.546,20.244,14.248,15.701,26.646l-44.902-16.451&#10;&#9;&#9;&#9;&#9;C288.165,372.549,300.423,370.209,312.823,374.752z" transform="matrix(1, 0, 0, 1, -16.929424285888672, -310.3734436035156)" style="fill: rgb(140, 138, 142);"/><path d="M 308.70001220703125 547.208984375 L 300.77099609375 547.208984375 L 292.84100341796875 527.6309814453125 L 300.77099609375 527.6309814453125 Z" transform="matrix(1, 0, 0, 1, -16.929424285888672, -310.3734436035156)" style="fill: rgb(140, 138, 142);"/><path d="M 215.96499633789062 547.208984375 L 223.89599609375 547.208984375 L 231.822998046875 527.6309814453125 L 223.89599609375 527.6309814453125 Z" transform="matrix(1, 0, 0, 1, -16.929424285888672, -310.3734436035156)" style="fill: rgb(140, 138, 142);"/><path d="M 255.475998 371.712006 H 265.666998 V 374.396006 H 255.475998 V 371.712006 Z" transform="matrix(1, 0, 0, 1, -16.929424285888672, -310.3734436035156)" style="fill: rgb(140, 138, 142);"/><path d="M 259.22699 373.056 H 261.91299 V 389.59 H 259.22699 V 373.056 Z" transform="matrix(1, 0, 0, 1, -16.929424285888672, -310.3734436035156)" style="fill: rgb(140, 138, 142);"/><path d="M950.233,768.078c-19.68,0-35.693-16.012-35.693-35.694s16.014-35.694,35.693-35.694&#10;&#9;&#9;&#9;c19.683,0,35.697,16.012,35.697,35.694S969.916,768.078,950.233,768.078z M950.233,703.521c-15.913,0-28.862,12.947-28.862,28.862&#10;&#9;&#9;&#9;c0,15.916,12.949,28.862,28.862,28.862c15.916,0,28.865-12.946,28.865-28.862C979.099,716.469,966.149,703.521,950.233,703.521z" transform="matrix(1, 0, 0, 1, 31.03738021850586, -358.3402404785156)" style="fill: rgb(4, 80, 130);"/><path d="M 909.512004 732.580017 A 2.52 2.52 0 0 1 906.992004 735.100017 A 2.52 2.52 0 0 1 904.472004 732.580017 A 2.52 2.52 0 0 1 906.992004 730.060017 A 2.52 2.52 0 0 1 909.512004 732.580017 Z" transform="matrix(1, 0, 0, 1, 31.03738021850586, -358.3402404785156)" style="fill: rgb(4, 80, 130);"/><path d="M 950.2329711914062 708.9990234375 L 949.0599975585938 713.72998046875 L 949.0599975585938 731.8489990234375 L 950.2329711914062 731.8489990234375 L 951.4080200195312 731.8489990234375 L 951.4080200195312 713.72998046875 Z" transform="matrix(1, 0, 0, 1, 31.03738021850586, -358.3402404785156)" style="fill: rgb(4, 80, 130);"/><path d="M 918.10400390625 743.6510009765625 L 916.0830078125 738.9769897460938 L 908.4719848632812 731.364990234375 L 907.1439819335938 732.6900024414062 L 905.8200073242188 734.0189819335938 L 913.4299926757812 741.6279907226562 Z" transform="matrix(1, 0, 0, 1, 31.03738021850586, -358.3402404785156)" style="fill: rgb(4, 80, 130);"/><path d="M 950.2329711914062 618.0390014648438 L 1032.300048828125 700.10498046875 L 1043.5789794921875 688.8259887695312 L 950.2329711914062 595.4819946289062 L 856.8900146484375 688.8259887695312 L 868.1669921875 700.10498046875 Z" transform="matrix(1, 0, 0, 1, 31.03738021850586, -358.3402404785156)" style="fill: rgb(4, 80, 130);"/><path d="M950.233,635.949c-9.869,0-17.867,8.001-17.867,17.868v33.021h35.738v-33.021&#10;&#9;&#9;&#9;C968.104,643.95,960.103,635.949,950.233,635.949z" transform="matrix(1, 0, 0, 1, 31.03738021850586, -358.3402404785156)" style="fill: rgb(4, 80, 130);"/><path d="M 1018.4810180664062 782.5490112304688 L 881.9879760742188 782.5490112304688 L 881.9879760742188 669.5369873046875 L 893.3729858398438 669.5369873046875 L 893.3729858398438 771.1619873046875 L 1007.0960083007812 771.1619873046875 L 1007.0960083007812 673.5469970703125 L 1018.4810180664062 673.5469970703125 Z" transform="matrix(1, 0, 0, 1, 31.03738021850586, -358.3402404785156)" style="fill: rgb(4, 80, 130);"/><path d="M1036.578,802.453H861.54v-31.291h175.038V802.453z M872.926,791.067h152.268v-8.519H872.926V791.067z" transform="matrix(1, 0, 0, 1, 31.03738021850586, -358.3402404785156)" style="fill: rgb(4, 80, 130);"/><g transform="matrix(1, 0, 0, 1, 31.03738021850586, -358.3402404785156)">
			<path d="M460.921,493.681c-1.507,0-2.729,1.219-2.729,2.726c0,1.51,1.222,2.729,2.729,2.729s2.728-1.22,2.728-2.729&#10;&#9;&#9;&#9;&#9;C463.648,494.899,462.428,493.681,460.921,493.681z" style="fill: rgb(4, 80, 130);"/>
			<path d="M462.952,459.143c0,1.124-0.91,2.035-2.033,2.035c-1.121,0-2.031-0.912-2.031-2.035c0-1.121,0.911-2.03,2.031-2.03&#10;&#9;&#9;&#9;&#9;C462.042,457.113,462.952,458.022,462.952,459.143z" style="fill: rgb(4, 80, 130);"/>
			<path d="M 462.952013 532.09198 A 2.032 2.032 0 0 1 460.920013 534.12398 A 2.032 2.032 0 0 1 458.888013 532.09198 A 2.032 2.032 0 0 1 460.920013 530.05998 A 2.032 2.032 0 0 1 462.952013 532.09198 Z" style="fill: rgb(4, 80, 130);"/>
			<path d="M497.395,497.649c-1.122,0-2.032-0.909-2.032-2.034c0-1.121,0.911-2.028,2.032-2.028c1.121,0,2.031,0.907,2.031,2.028&#10;&#9;&#9;&#9;&#9;C499.426,496.74,498.516,497.649,497.395,497.649z" style="fill: rgb(4, 80, 130);"/>
			<path d="M424.446,497.649c-1.122,0-2.031-0.909-2.031-2.034c0-1.121,0.91-2.028,2.031-2.028c1.121,0,2.032,0.907,2.032,2.028&#10;&#9;&#9;&#9;&#9;C426.478,496.74,425.567,497.649,424.446,497.649z" style="fill: rgb(4, 80, 130);"/>
			<path d="M 460.9209899902344 470.8710021972656 L 459.64801025390625 475.99700927734375 L 459.64801025390625 495.6180114746094 L 460.9209899902344 495.6180114746094 L 462.1929931640625 495.6180114746094 L 462.1929931640625 475.99700927734375 Z" style="fill: rgb(4, 80, 130);"/>
			<path d="M 472.95098876953125 508.39599609375 L 470.7650146484375 503.33599853515625 L 462.52099609375 495.0929870605469 L 461.0840148925781 496.52899169921875 L 459.64801025390625 497.9679870605469 L 467.8909912109375 506.2090148925781 Z" style="fill: rgb(4, 80, 130);"/>
		</g><path d="M506.392,559.185h-90.943c-9.978,0-18.095-8.12-18.095-18.098v-90.939c0-9.978,8.117-18.097,18.095-18.097h90.943&#10;&#9;&#9;&#9;c9.979,0,18.095,8.119,18.095,18.097v90.939C524.487,551.064,516.37,559.185,506.392,559.185z M415.449,445.713&#10;&#9;&#9;&#9;c-2.444,0-4.432,1.99-4.432,4.434v90.939c0,2.444,1.988,4.435,4.432,4.435h90.943c2.444,0,4.432-1.99,4.432-4.435v-90.939&#10;&#9;&#9;&#9;c0-2.444-1.988-4.434-4.432-4.434H415.449z" transform="matrix(1, 0, 0, 1, 31.03738021850586, -358.3402404785156)" style="fill: rgb(4, 80, 130);"/><path d="M 499.95001220703125 404.1260070800781 L 494.3330078125 382.614013671875 L 460.9209899902344 382.614013671875 L 427.5069885253906 382.614013671875 L 421.8890075683594 404.1260070800781 Z" transform="matrix(1, 0, 0, 1, 31.03738021850586, -358.3402404785156)" style="fill: rgb(4, 80, 130);"/><path d="M 420.135986328125 410.8399963378906 L 416.27099609375 425.6390075683594 L 460.9209899902344 425.6390075683594 L 505.57000732421875 425.6390075683594 L 501.7049865722656 410.8399963378906 Z" transform="matrix(1, 0, 0, 1, 31.03738021850586, -358.3402404785156)" style="fill: rgb(4, 80, 130);"/><path d="M 528.862976 483.243988 H 534.343976 V 497.648988 H 528.862976 V 483.243988 Z" transform="matrix(1, 0, 0, 1, 31.03738021850586, -358.3402404785156)" style="fill: rgb(4, 80, 130);"/><path d="M 421.8890075683594 587.4810180664062 L 427.5069885253906 608.9940185546875 L 460.9209899902344 608.9940185546875 L 494.3330078125 608.9940185546875 L 499.95001220703125 587.4810180664062 Z" transform="matrix(1, 0, 0, 1, 31.03738021850586, -358.3402404785156)" style="fill: rgb(4, 80, 130);"/><path d="M 501.7049865722656 580.7689819335938 L 505.57000732421875 565.969970703125 L 460.9209899902344 565.969970703125 L 416.27099609375 565.969970703125 L 420.135986328125 580.7689819335938 Z" transform="matrix(1, 0, 0, 1, 31.03738021850586, -358.3402404785156)" style="fill: rgb(4, 80, 130);"/><path d="M932.287,563.711h-96.829c-9.352,0-16.961-7.606-16.961-16.955V446.689c0-9.351,7.609-16.958,16.961-16.958h96.829&#10;&#9;&#9;c9.352,0,16.959,7.607,16.959,16.958v100.066C949.246,556.104,941.639,563.711,932.287,563.711z M835.458,438.839&#10;&#9;&#9;c-4.331,0-7.853,3.522-7.853,7.85v100.066c0,4.327,3.521,7.848,7.853,7.848h96.829c4.328,0,7.851-3.521,7.851-7.848V446.689&#10;&#9;&#9;c0-4.328-3.522-7.85-7.851-7.85H835.458z" transform="matrix(1, 0, 0, 1, 31.03738021850586, -358.3402404785156)" style="fill: rgb(230, 78, 78);"/><path d="M949.246,481.45H818.497v-34.76c0-9.351,7.609-16.958,16.961-16.958h96.829c9.352,0,16.959,7.607,16.959,16.958V481.45z&#10;&#9;&#9; M827.605,472.341h112.532v-25.651c0-4.328-3.522-7.85-7.851-7.85h-96.829c-4.331,0-7.853,3.522-7.853,7.85V472.341z" transform="matrix(1, 0, 0, 1, 31.03738021850586, -358.3402404785156)" style="fill: rgb(230, 78, 78);"/><path d="M 820.473999 424.037994 H 829.582999 V 444.532995 H 820.473999 V 424.037994 Z" transform="matrix(1, 0, 0, 1, 47.96683883666992, -358.3402404785156)" style="fill: rgb(230, 78, 78);"/><path d="M 856.270996 424.037994 H 865.377996 V 444.532995 H 856.270996 V 424.037994 Z" transform="matrix(1, 0, 0, 1, 46.55605697631836, -358.3402404785156)" style="fill: rgb(230, 78, 78);"/><path d="M 915.116028 424.037994 H 924.224028 V 444.532995 H 915.116028 V 424.037994 Z" transform="matrix(1, 0, 0, 1, 31.03738021850586, -358.3402404785156)" style="fill: rgb(230, 78, 78);"/><path d="M865.534,531.764v-29.688h-6.359l1.178-6.609h13.241v36.298H865.534z" transform="matrix(1, 0, 0, 1, 31.03738021850586, -358.3402404785156)" style="fill: rgb(230, 78, 78);"/><path d="M884.559,531.764v-2.93l13.118-15.72l0.099-0.124c2.437-2.887,3.654-5.125,3.654-6.71c0-1.285-0.431-2.339-1.289-3.166&#10;&#9;&#9;&#9;c-0.858-0.828-1.973-1.238-3.341-1.238c-1.235,0-2.303,0.403-3.206,1.214c-0.898,0.809-1.498,1.905-1.801,3.29l-6.935-3.429&#10;&#9;&#9;&#9;c1.053-2.756,2.658-4.886,4.819-6.396c2.161-1.512,4.694-2.266,7.599-2.266c3.487,0,6.416,1.101,8.786,3.304&#10;&#9;&#9;&#9;c2.368,2.204,3.554,4.948,3.554,8.234c0,2.022-0.533,4.112-1.601,6.271c-1.07,2.162-2.72,4.479-4.958,6.947l-4.757,5.281h13.019&#10;&#9;&#9;&#9;l-1.228,7.436H884.559z" transform="matrix(1, 0, 0, 1, 31.03738021850586, -358.3402404785156)" style="fill: rgb(230, 78, 78);"/>
</svg>