<?xml version="1.0" encoding="utf-8"?>
<svg id="master-artboard" viewBox="0 0 1400 980" version="1.1" xmlns="http://www.w3.org/2000/svg" x="0px" y="0px" style="enable-background:new 0 0 1400 980;" width="1400px" height="980px" xmlns:xlink="http://www.w3.org/1999/xlink">

<defs>
		<path d="M 1 1 H 1401 V 981 H 1 V 1 Z" id="SVGID_1_"/>
	</defs><clipPath id="SVGID_2_">
		<use style="overflow:visible;" xlink:href="#SVGID_1_"/>
	</clipPath><g transform="matrix(1, 0, 0, 1, 2.842170943040401e-14, 0)" style="clip-path: url('#SVGID_2_');">
			<path d="M 1 1 H 1401 V 981 H 1 V 1 Z" class="st1" style="fill: rgb(255, 255, 255);"/>
		</g><g transform="matrix(1, 0, 0, 1, 2.842170943040401e-14, 0)" style="clip-path: url('#SVGID_2_');">
				<g>
					<g class="st2" style="opacity: 0.07;">
						<path d="M86.4,201.9c6.5,5.5,15,4.1,19.8-2.8l35.5,31.1l2.5-4.4l-35.8-31.4c2.6-7.8,0.3-17.3-5.8-22.5&#10;&#9;&#9;&#9;&#9;&#9;&#9;&#9;c-7-5.9-16.2-3.9-20.7,4.3C77.4,184.6,79.4,196,86.4,201.9z"/>
					</g>
					<g>
						<path class="st3" d="M130.3,235.7c-4.3-7-2-16.1,5-20.4c7-4.3,16.1-2,20.4,5c4.3,7,2,16.2-5,20.4&#10;&#9;&#9;&#9;&#9;&#9;&#9;&#9;C143.7,244.9,134.6,242.7,130.3,235.7z" style="fill: rgb(73, 193, 73);"/>
					</g>
				</g>
				<g>
					<g class="st2" style="opacity: 0.07;">
						<path d="M160.9,272.6c6.5,5.5,15,4.1,19.8-2.8l35.5,31.1l2.5-4.4l-35.8-31.4c2.6-7.8,0.3-17.3-5.8-22.5&#10;&#9;&#9;&#9;&#9;&#9;&#9;&#9;c-7-5.9-16.2-3.9-20.7,4.3C151.9,255.3,153.9,266.7,160.9,272.6z"/>
					</g>
					<g>
						<path class="st3" d="M204.9,306.4c-4.3-7-2-16.1,5-20.4c7-4.3,16.2-2,20.4,5c4.3,7,2,16.1-5,20.4&#10;&#9;&#9;&#9;&#9;&#9;&#9;&#9;C218.3,315.6,209.1,313.4,204.9,306.4z" style="fill: rgb(73, 193, 73);"/>
					</g>
				</g>
				<g>
					<g class="st2" style="opacity: 0.07;">
						<path d="M3.3,136.6c6.5,5.5,15,4.1,19.8-2.8L58.6,165l2.5-4.4l-35.8-31.4c2.6-7.8,0.3-17.3-5.8-22.5c-7-5.9-16.2-3.9-20.7,4.3&#10;&#9;&#9;&#9;&#9;&#9;&#9;&#9;C-5.7,119.3-3.7,130.8,3.3,136.6z"/>
					</g>
					<g>
						<path class="st3" d="M47.3,170.4c-4.3-7-2-16.1,5-20.4c7-4.3,16.2-2,20.4,5c4.3,7,2,16.2-5,20.4&#10;&#9;&#9;&#9;&#9;&#9;&#9;&#9;C60.7,179.6,51.5,177.4,47.3,170.4z" style="fill: rgb(73, 193, 73);"/>
					</g>
				</g>
			</g><g class="st2" transform="matrix(1, 0, 0, 1, 2.842170943040401e-14, 0)" style="opacity: 0.07; clip-path: url('#SVGID_2_');">
					<path d="M669.5,308.2c6.7,5.3,15.2,3.6,19.7-3.5l36.6,29.9l2.4-4.4L691.2,300c2.3-7.9-0.3-17.3-6.6-22.3&#10;&#9;&#9;&#9;&#9;&#9;&#9;c-7.2-5.6-16.4-3.3-20.5,5.1C659.9,291.2,662.3,302.6,669.5,308.2z"/>
				</g><path class="st3" d="M714.6,340.4c-4.5-6.9-2.6-16.1,4.3-20.6c6.9-4.5,16.1-2.6,20.6,4.3c4.5,6.9,2.6,16.1-4.3,20.6&#10;&#9;&#9;&#9;&#9;&#9;&#9;C728.3,349.2,719.1,347.3,714.6,340.4z" style="fill: rgb(73, 193, 73); clip-path: url('#SVGID_2_');" transform="matrix(1, 0, 0, 1, 2.842170943040401e-14, 0)"/><path d="M 1352 1016.9000244140625 L 1050 1045 L -133 6.5 L 59.400001525878906 -118 Z" class="st5" style="fill: rgb(89, 112, 95); opacity: 0.2; clip-path: url('#SVGID_2_');" transform="matrix(1, 0, 0, 1, 2.842170943040401e-14, 0)"/><path d="M 1445 1016.9000244140625 L 1143 1045 L -40 6.5 L 152.39999389648438 -118 Z" class="st6" style="fill: rgb(127, 131, 147); clip-path: url('#SVGID_2_');" transform="matrix(1, 0, 0, 1, 2.842170943040401e-14, 0)"/><g transform="matrix(1, 0, 0, 1, 2.842170943040401e-14, 0)" style="clip-path: url('#SVGID_2_');">
					<g>
						<path d="M 775.5999755859375 570.5 L 756.7999877929688 555.9000244140625 L 760.7999877929688 551.4000244140625 L 783.7999877929688 569.2999877929688 Z" class="st7" style="fill: rgb(232, 232, 232);"/>
					</g>
				</g><g transform="matrix(1, 0, 0, 1, 2.842170943040401e-14, 0)" style="clip-path: url('#SVGID_2_');">
						
							<path d="M 1205 953 H 1242 V 959 H 1205 V 953 Z" transform="matrix(0.7523 0.6588 -0.6588 0.7523 932.9152 -569.2873)" class="st7" style="fill: rgb(232, 232, 232);"/>
					</g><g transform="matrix(1, 0, 0, 1, 2.842170943040401e-14, 0)" style="clip-path: url('#SVGID_2_');">
						
							<path d="M 1153.800049 908.099976 H 1190.800049 V 914.099976 H 1153.800049 V 908.099976 Z" transform="matrix(0.7523 0.6589 -0.6589 0.7523 890.7476 -546.6877)" class="st7" style="fill: rgb(232, 232, 232);"/>
					</g><g transform="matrix(1, 0, 0, 1, 2.842170943040401e-14, 0)" style="clip-path: url('#SVGID_2_');">
						
							<path d="M 1102.699951 863.299988 H 1139.699951 V 869.299988 H 1102.699951 V 863.299988 Z" transform="matrix(0.7523 0.6588 -0.6588 0.7523 848.5312 -524.0782)" class="st7" style="fill: rgb(232, 232, 232);"/>
					</g><g transform="matrix(1, 0, 0, 1, 2.842170943040401e-14, 0)" style="clip-path: url('#SVGID_2_');">
						
							<path d="M 1051.5 818.5 H 1088.5 V 824.5 H 1051.5 V 818.5 Z" transform="matrix(0.7522 0.6589 -0.6589 0.7522 806.4155 -501.4891)" class="st7" style="fill: rgb(232, 232, 232);"/>
					</g><g transform="matrix(1, 0, 0, 1, 2.842170943040401e-14, 0)" style="clip-path: url('#SVGID_2_');">
						
							<path d="M 704.900024 518.799988 H 741.900024 V 524.799988 H 704.900024 V 518.799988 Z" transform="matrix(0.7523 0.6589 -0.6589 0.7523 523.0036 -347.3153)" class="st7" style="fill: rgb(232, 232, 232);"/>
					</g><g transform="matrix(1, 0, 0, 1, 2.842170943040401e-14, 0)" style="clip-path: url('#SVGID_2_');">
						
							<path d="M 653.700012 474 H 690.700012 V 480 H 653.700012 V 474 Z" transform="matrix(0.7523 0.6589 -0.6589 0.7523 480.8067 -324.7093)" class="st7" style="fill: rgb(232, 232, 232);"/>
					</g><g transform="matrix(1, 0, 0, 1, 2.842170943040401e-14, 0)" style="clip-path: url('#SVGID_2_');">
						
							<path d="M 602.5 429.200012 H 639.5 V 435.200012 H 602.5 V 429.200012 Z" transform="matrix(0.7523 0.6589 -0.6589 0.7523 438.6164 -302.105)" class="st7" style="fill: rgb(232, 232, 232);"/>
					</g><g transform="matrix(1, 0, 0, 1, 2.842170943040401e-14, 0)" style="clip-path: url('#SVGID_2_');">
						
							<path d="M 551.400024 384.399994 H 588.400024 V 390.399994 H 551.400024 V 384.399994 Z" transform="matrix(0.7522 0.6589 -0.6589 0.7522 396.4501 -279.5078)" class="st7" style="fill: rgb(232, 232, 232);"/>
					</g><g transform="matrix(1, 0, 0, 1, 2.842170943040401e-14, 0)" style="clip-path: url('#SVGID_2_');">
						
							<path d="M 500.200012 339.600006 H 537.200012 V 345.600006 H 500.200012 V 339.600006 Z" transform="matrix(0.7523 0.6589 -0.6589 0.7523 354.2411 -256.8992)" class="st7" style="fill: rgb(232, 232, 232);"/>
					</g><g transform="matrix(1, 0, 0, 1, 2.842170943040401e-14, 0)" style="clip-path: url('#SVGID_2_');">
						
							<path d="M 449.100006 294.799988 H 486.100006 V 300.799988 H 449.100006 V 294.799988 Z" transform="matrix(0.7523 0.6589 -0.6589 0.7523 312.0537 -234.2959)" class="st7" style="fill: rgb(232, 232, 232);"/>
					</g><g transform="matrix(1, 0, 0, 1, 2.842170943040401e-14, 0)" style="clip-path: url('#SVGID_2_');">
						
							<path d="M 397.899994 250 H 434.899994 V 256 H 397.899994 V 250 Z" transform="matrix(0.7523 0.6588 -0.6588 0.7523 269.8441 -211.6863)" class="st7" style="fill: rgb(232, 232, 232);"/>
					</g><g transform="matrix(1, 0, 0, 1, 2.842170943040401e-14, 0)" style="clip-path: url('#SVGID_2_');">
						
							<path d="M 346.799988 205.199997 H 383.799988 V 211.199997 H 346.799988 V 205.199997 Z" transform="matrix(0.7523 0.6589 -0.6589 0.7523 227.6674 -189.0862)" class="st7" style="fill: rgb(232, 232, 232);"/>
					</g><g transform="matrix(1, 0, 0, 1, 2.842170943040401e-14, 0)" style="clip-path: url('#SVGID_2_');">
						
							<path d="M 295.600006 160.399994 H 332.600006 V 166.399994 H 295.600006 V 160.399994 Z" transform="matrix(0.7523 0.6588 -0.6588 0.7523 185.466 -166.4789)" class="st7" style="fill: rgb(232, 232, 232);"/>
					</g><g transform="matrix(1, 0, 0, 1, 2.842170943040401e-14, 0)" style="clip-path: url('#SVGID_2_');">
						
							<path d="M 244.5 115.599998 H 281.5 V 121.599998 H 244.5 V 115.599998 Z" transform="matrix(0.7522 0.6589 -0.6589 0.7522 143.2903 -143.8807)" class="st7" style="fill: rgb(232, 232, 232);"/>
					</g><g transform="matrix(1, 0, 0, 1, 2.842170943040401e-14, 0)" style="clip-path: url('#SVGID_2_');">
						
							<path d="M 193.300003 70.800003 H 230.300003 V 76.800003 H 193.300003 V 70.800003 Z" transform="matrix(0.7523 0.6589 -0.6589 0.7523 101.0946 -121.2754)" class="st7" style="fill: rgb(232, 232, 232);"/>
					</g><g transform="matrix(1, 0, 0, 1, 2.842170943040401e-14, 0)" style="clip-path: url('#SVGID_2_');">
						
							<path d="M 142.199997 26 H 179.199997 V 32 H 142.199997 V 26 Z" transform="matrix(0.7523 0.6589 -0.6589 0.7523 58.9013 -98.6694)" class="st7" style="fill: rgb(232, 232, 232);"/>
					</g><path d="M 53.5 466.299988 H 1595.800049 V 478.299988 H 53.5 V 466.299988 Z" transform="matrix(0.7515000104904175, 0.6598000526428223, -0.6598000526428223, 0.7515000104904175, 516.5302734375, -426.71701049804693)" class="st8" style="fill: rgb(193, 193, 193); clip-path: url('#SVGID_2_');"/><path d="M -206.5 539.299988 H 1335.800049 V 551.299988 H -206.5 V 539.299988 Z" transform="matrix(0.7515000104904175, 0.6598000526428223, -0.6598000526428223, 0.7515000104904175, 500.0755920410156, -237.03500366210938)" class="st8" style="fill: rgb(193, 193, 193); clip-path: url('#SVGID_2_');"/><g class="st4" transform="matrix(1, 0, 0, 1, 2.842170943040401e-14, 0)" style="opacity: 0.2; clip-path: url('#SVGID_2_');">
					<path class="st5" d="M520.9,322.1c88-75.4,158-163.6,208-267.9C747.1,16.3,776.6-39,789.7-80H544.1&#10;&#9;&#9;&#9;&#9;&#9;&#9;C507.2,4,437.4,90.9,369,149.8C242.7,258.4,77,307-57,331.4v233.2c93-14.3,182.7-36.1,262.9-65.1&#10;&#9;&#9;&#9;&#9;&#9;&#9;C326.2,456.2,434.1,396.4,520.9,322.1z" style="fill: rgb(89, 112, 95);"/>
				</g><g transform="matrix(1, 0, 0, 1, 2.842170943040401e-14, 0)" style="opacity: 0.2; clip-path: url('#SVGID_2_');">
						<path d="M 912.7999877929688 412.29998779296875 L 1 727.5999755859375 L 1 920 L 136.39999389648438 920 L 781 696.9000244140625 Z" class="st5" style="fill: rgb(89, 112, 95);"/>
					</g><path d="M 1056.4000244140625 602.5999755859375 L 1401 483.70001220703125 L 1401 244.60000610351562 L 1188.199951171875 318 Z" class="st5" style="fill: rgb(89, 112, 95); opacity: 0.2; clip-path: url('#SVGID_2_');" transform="matrix(1, 0, 0, 1, 2.842170943040401e-14, 0)"/><path d="M 891.7999877929688 481.29998779296875 L 1 788.5999755859375 L 1 981 L 136.39999389648438 981 L 760 765.9000244140625 Z" class="st6" style="fill: rgb(127, 131, 147); clip-path: url('#SVGID_2_');" transform="matrix(1, 0, 0, 1, 2.842170943040401e-14, 0)"/><path d="M 1056.4000244140625 663.5999755859375 L 1401 544.7000122070312 L 1401 305.6000061035156 L 1188.199951171875 379 Z" class="st6" style="fill: rgb(127, 131, 147); clip-path: url('#SVGID_2_');" transform="matrix(1, 0, 0, 1, 2.842170943040401e-14, 0)"/><path d="M 1188.199951171875 379 L 1363.4000244140625 1 L 1114.300048828125 1 L 891.7999877929688 481.29998779296875 L 760 765.9000244140625 L 660.2999877929688 981 L 909.4000244140625 981 L 1056.4000244140625 663.5999755859375 Z" class="st6" style="fill: rgb(127, 131, 147); clip-path: url('#SVGID_2_');" transform="matrix(1, 0, 0, 1, 2.842170943040401e-14, 0)"/><path class="st6" d="M572.9,391.1c88-75.4,158-163.6,208-267.9C799.1,85.3,828.6,30,841.7-11H596.1&#10;&#9;&#9;&#9;&#9;&#9;&#9;C559.2,73,489.4,159.9,421,218.8C294.7,327.4,129,376-5,400.4v233.2c93-14.3,182.7-36.1,262.9-65.1&#10;&#9;&#9;&#9;&#9;&#9;&#9;C378.2,525.2,486.1,465.4,572.9,391.1z" style="fill: rgb(127, 131, 147); clip-path: url('#SVGID_2_');" transform="matrix(1, 0, 0, 1, 2.842170943040401e-14, 0)"/><path class="st8" d="M-11,640.7V395.4l4.9-0.9c179.8-32.8,322.1-93.4,423.1-180.3c72.9-62.7,139.4-149.9,173.6-227.7l1.6-3.6&#10;&#9;&#9;&#9;&#9;&#9;&#9;h257.6l-2.5,7.8C837.2,23,817.4,62.8,800,97.9c-4.9,10-9.6,19.4-13.7,27.9c-24.8,51.7-55.2,100.8-90.5,145.9&#10;&#9;&#9;&#9;&#9;&#9;&#9;c-34.3,44-74.4,85.7-119.1,124C490.9,469.2,384.4,529.3,260,574.2c-79.4,28.7-168.2,50.7-264.1,65.4L-11,640.7z M1,405.4v221.2&#10;&#9;&#9;&#9;&#9;&#9;&#9;c92.5-14.6,178.2-36,254.9-63.7c123-44.4,228.3-103.8,313.1-176.4c90.2-77.4,157.8-164.4,206.5-266c4.1-8.6,8.8-18,13.8-28&#10;&#9;&#9;&#9;&#9;&#9;&#9;c15.8-31.9,33.6-67.7,44.1-97.5H600c-35.3,78.3-102.1,165.5-175.2,228.3c-57.8,49.7-129,91.2-211.8,123.4&#10;&#9;&#9;&#9;&#9;&#9;&#9;C149.3,371.6,79.9,390.8,1,405.4z" style="fill: rgb(193, 193, 193); clip-path: url('#SVGID_2_');" transform="matrix(1, 0, 0, 1, 2.842170943040401e-14, 0)"/><path d="M -43 633 L 12 623 L 12 405 L -43 414 Z" class="st6" style="fill: rgb(127, 131, 147); clip-path: url('#SVGID_2_');" transform="matrix(1, 0, 0, 1, 2.842170943040401e-14, 0)"/><path d="M 877.299988 -49 H 889.299988 V 1031 H 877.299988 V -49 Z" transform="matrix(0.9073000550270082, 0.42040002346038824, -0.42040002346038824, 0.9073000550270082, 288.2598876953125, -325.8456115722657)" class="st8" style="fill: rgb(193, 193, 193); clip-path: url('#SVGID_2_');"/><path d="M 1137.300049 -50 H 1149.300049 V 1030 H 1137.300049 V -50 Z" transform="matrix(0.9073000550270082, 0.42040002346038824, -0.42040002346038824, 0.9073000550270082, 311.93060302734375, -435.24060058593756)" class="st8" style="fill: rgb(193, 193, 193); clip-path: url('#SVGID_2_');"/><path d="M 439.399994 163.800003 H 451.399994 V 1106.099991 H 439.399994 V 163.800003 Z" transform="matrix(0.32620003819465637, 0.945300042629242, -0.945300042629242, 0.32620003819465637, 900.3795166015626, 6.827199935913086)" class="st8" style="fill: rgb(193, 193, 193); clip-path: url('#SVGID_2_');"/><path d="M 1301.400024 222.699997 H 1313.400024 V 449.599991 H 1301.400024 V 222.699997 Z" transform="matrix(0.3221000134944916, 0.9467000365257264, -0.9467000365257264, 0.3221000134944916, 1204.4824218750002, -1009.8712768554688)" class="st8" style="fill: rgb(193, 193, 193); clip-path: url('#SVGID_2_');"/><path d="M 1233.400024 422.700012 H 1245.400024 V 793.200012 H 1233.400024 V 422.700012 Z" transform="matrix(0.3221000134944916, 0.9467000365257264, -0.9467000365257264, 0.3221000134944916, 1415.8017578125002, -761.19189453125)" class="st8" style="fill: rgb(193, 193, 193); clip-path: url('#SVGID_2_');"/><g transform="matrix(1, 0, 0, 1, 2.842170943040401e-14, 0)" style="clip-path: url('#SVGID_2_');">
					
						<path d="M 438.600006 555.599976 H 450.600006 V 1207.599976 H 438.600006 V 555.599976 Z" transform="matrix(0.3262 0.9453 -0.9453 0.3262 1133.0201 173.7797)" class="st8" style="fill: rgb(193, 193, 193);"/>
				</g><g transform="matrix(1, 0, 0, 1, 2.842170943040401e-14, 0)" style="clip-path: url('#SVGID_2_');">
						<path class="st7" d="M544.4,254.8l3.8,3.8c7-6.7,13.7-13.6,20.4-20.5l-4.2-3.5C557.9,241.5,551.2,248.2,544.4,254.8z" style="fill: rgb(232, 232, 232);"/>
					</g><path class="st7" d="M497.4,296.8l3,4.5c9.9-8.1,19.5-16.4,28.8-24.9l-3.8-3.8C516.2,280.9,506.9,289,497.4,296.8z" style="fill: rgb(232, 232, 232); clip-path: url('#SVGID_2_');" transform="matrix(1, 0, 0, 1, 2.842170943040401e-14, 0)"/><path class="st7" d="M452.3,331.5l3.8,3.8c8.1-5.8,16.1-11.8,24-17.8l-3-4.4C468.8,319.4,460.6,325.6,452.3,331.5z" style="fill: rgb(232, 232, 232); clip-path: url('#SVGID_2_');" transform="matrix(1, 0, 0, 1, 2.842170943040401e-14, 0)"/><path class="st7" d="M654.8,117.3l4.5,2.5c5.4-8.9,10.6-18,15.5-27.1l-4-3.3C665.7,98.9,660.3,108.2,654.8,117.3z" style="fill: rgb(232, 232, 232); clip-path: url('#SVGID_2_');" transform="matrix(1, 0, 0, 1, 2.842170943040401e-14, 0)"/><path class="st7" d="M697.4,34.3c-4.6,10.7-9.4,21.2-14.4,31.4l4,3.3c5.2-10.6,10.2-21.4,14.8-32.3L697.4,34.3z" style="fill: rgb(232, 232, 232); clip-path: url('#SVGID_2_');" transform="matrix(1, 0, 0, 1, 2.842170943040401e-14, 0)"/><path class="st7" d="M717.4-3.2l-4.7-1.7c-1.8,5-3.6,10-5.5,14.9l4.4,2.4C713.6,7.2,715.5,2,717.4-3.2z" style="fill: rgb(232, 232, 232); clip-path: url('#SVGID_2_');" transform="matrix(1, 0, 0, 1, 2.842170943040401e-14, 0)"/><path class="st7" d="M582.1,215.4l4.1,3.4c7.9-8.9,15.5-17.9,22.9-27.1l-4.1-3.4C597.5,197.6,589.9,206.7,582.1,215.4z" style="fill: rgb(232, 232, 232); clip-path: url('#SVGID_2_');" transform="matrix(1, 0, 0, 1, 2.842170943040401e-14, 0)"/><path class="st7" d="M620.9,167.7l4,3.4c7.1-9.6,13.9-19.3,20.4-29.2l-4.6-2.5C634.3,149,627.7,158.5,620.9,167.7z" style="fill: rgb(232, 232, 232); clip-path: url('#SVGID_2_');" transform="matrix(1, 0, 0, 1, 2.842170943040401e-14, 0)"/><path class="st7" d="M128.6,484l1.3,4.8c10.8-3.1,22.1-6.5,33.8-10.2l-2.3-4.5C150.1,477.6,139.1,480.9,128.6,484z" style="fill: rgb(232, 232, 232); clip-path: url('#SVGID_2_');" transform="matrix(1, 0, 0, 1, 2.842170943040401e-14, 0)"/><path class="st7" d="M0.7,512.6l0.6,5c0.5-0.1,16.6-2.2,43.6-7.8l-1.3-4.8C17,510.4,1.1,512.6,0.7,512.6z" style="fill: rgb(232, 232, 232); clip-path: url('#SVGID_2_');" transform="matrix(1, 0, 0, 1, 2.842170943040401e-14, 0)"/><path class="st7" d="M298.1,421c-0.1,0.1-0.3,0.1-0.4,0.2l2.3,4.5c0,0,0.1,0,0.1-0.1c9.2-4.3,18.3-8.7,27.3-13.2l-2.8-4.2&#10;&#9;&#9;&#9;&#9;&#9;&#9;&#9;C315.6,412.7,306.7,417,298.1,421z" style="fill: rgb(232, 232, 232); clip-path: url('#SVGID_2_');" transform="matrix(1, 0, 0, 1, 2.842170943040401e-14, 0)"/><path class="st7" d="M347.8,396.2l2.8,4.2c10.6-5.6,20.9-11.4,31.1-17.3l-2.9-4.2C368.4,385,358.1,390.7,347.8,396.2z" style="fill: rgb(232, 232, 232); clip-path: url('#SVGID_2_');" transform="matrix(1, 0, 0, 1, 2.842170943040401e-14, 0)"/><path class="st7" d="M240.6,445.8l1.4,4.8c11.2-4.5,22.7-9.2,34.2-14.3l-2.3-4.5C262.7,436.8,251.5,441.4,240.6,445.8z" style="fill: rgb(232, 232, 232); clip-path: url('#SVGID_2_');" transform="matrix(1, 0, 0, 1, 2.842170943040401e-14, 0)"/><path class="st7" d="M186.4,465.8l2.3,4.5c9.4-3.2,19.1-6.7,28.9-10.3l-1.4-4.8C206.1,458.9,196.1,462.5,186.4,465.8z" style="fill: rgb(232, 232, 232); clip-path: url('#SVGID_2_');" transform="matrix(1, 0, 0, 1, 2.842170943040401e-14, 0)"/><path class="st7" d="M69.1,499.4l1.3,4.8c10.5-2.4,22.1-5.3,34.5-8.5l-1.3-4.8C91.1,494.1,79.6,497,69.1,499.4z" style="fill: rgb(232, 232, 232); clip-path: url('#SVGID_2_');" transform="matrix(1, 0, 0, 1, 2.842170943040401e-14, 0)"/><path class="st7" d="M401.2,365.5l2.9,4.3c10.3-6.3,20.3-12.8,30.2-19.4l-3.8-3.8C420.8,353.2,411,359.5,401.2,365.5z" style="fill: rgb(232, 232, 232); clip-path: url('#SVGID_2_');" transform="matrix(1, 0, 0, 1, 2.842170943040401e-14, 0)"/><path d="M 63.70000076293945 480.20001220703125 L 38.599998474121094 487.20001220703125 L 43.599998474121094 505 L 45 509.79998779296875 L 48.29999923706055 521.7999877929688 L 73.4000015258789 514.7999877929688 L 70.4000015258789 504.20001220703125 L 69.0999984741211 499.3999938964844 Z" class="st6" style="fill: rgb(127, 131, 147); clip-path: url('#SVGID_2_');" transform="matrix(1, 0, 0, 1, 2.842170943040401e-14, 0)"/><path d="M 126.69999694824219 477.20001220703125 L 101.5999984741211 484.20001220703125 L 103.5 490.8999938964844 L 104.9000015258789 495.70001220703125 L 111.30000305175781 518.7999877929688 L 136.39999389648438 511.79998779296875 L 129.89999389648438 488.79998779296875 L 128.60000610351562 484 Z" class="st6" style="fill: rgb(127, 131, 147); clip-path: url('#SVGID_2_');" transform="matrix(1, 0, 0, 1, 2.842170943040401e-14, 0)"/><path d="M 179.39999389648438 452.1000061035156 L 156.3000030517578 463.79998779296875 L 161.39999389648438 474 L 163.6999969482422 478.5 L 172.60000610351562 495.8999938964844 L 195.6999969482422 484.20001220703125 L 188.6999969482422 470.29998779296875 L 186.39999389648438 465.79998779296875 Z" class="st6" style="fill: rgb(127, 131, 147); clip-path: url('#SVGID_2_');" transform="matrix(1, 0, 0, 1, 2.842170943040401e-14, 0)"/><path d="M 235.6999969482422 428.20001220703125 L 210.60000610351562 435.20001220703125 L 216.1999969482422 455.1000061035156 L 217.60000610351562 460 L 220.3000030517578 469.79998779296875 L 245.39999389648438 462.79998779296875 L 241.89999389648438 450.6000061035156 L 240.60000610351562 445.79998779296875 Z" class="st6" style="fill: rgb(127, 131, 147); clip-path: url('#SVGID_2_');" transform="matrix(1, 0, 0, 1, 2.842170943040401e-14, 0)"/><path d="M 288.3999938964844 403.1000061035156 L 265.29998779296875 414.79998779296875 L 273.8999938964844 431.8999938964844 L 276.20001220703125 436.29998779296875 L 281.6000061035156 446.8999938964844 L 304.70001220703125 435.20001220703125 L 299.8999938964844 425.6000061035156 L 297.6000061035156 421.20001220703125 Z" class="st6" style="fill: rgb(127, 131, 147); clip-path: url('#SVGID_2_');" transform="matrix(1, 0, 0, 1, 2.842170943040401e-14, 0)"/><path d="M 337.70001220703125 381.29998779296875 L 316.20001220703125 395.79998779296875 L 324.5 408.20001220703125 L 327.3999938964844 412.3999938964844 L 336.29998779296875 425.6000061035156 L 357.8999938964844 411.1000061035156 L 350.6000061035156 400.3999938964844 L 347.79998779296875 396.20001220703125 Z" class="st6" style="fill: rgb(127, 131, 147); clip-path: url('#SVGID_2_');" transform="matrix(1, 0, 0, 1, 2.842170943040401e-14, 0)"/><path d="M 396.6000061035156 358.6000061035156 L 375 373.1000061035156 L 378.8999938964844 378.8999938964844 L 381.79998779296875 383.1000061035156 L 395.1000061035156 403 L 416.70001220703125 388.3999938964844 L 404.1000061035156 369.79998779296875 L 401.20001220703125 365.5 Z" class="st6" style="fill: rgb(127, 131, 147); clip-path: url('#SVGID_2_');" transform="matrix(1, 0, 0, 1, 2.842170943040401e-14, 0)"/><path d="M 438.79998779296875 318.20001220703125 L 420.5 336.6000061035156 L 430.5 346.6000061035156 L 434.29998779296875 350.29998779296875 L 446.1000061035156 362 L 464.3999938964844 343.5 L 456.1000061035156 335.29998779296875 L 452.29998779296875 331.5 Z" class="st6" style="fill: rgb(127, 131, 147); clip-path: url('#SVGID_2_');" transform="matrix(1, 0, 0, 1, 2.842170943040401e-14, 0)"/><path d="M 526.7999877929688 237.3000030517578 L 508.5 255.8000030517578 L 525.4000244140625 272.6000061035156 L 529.2999877929688 276.3999938964844 L 534.0999755859375 281.1000061035156 L 552.4000244140625 262.70001220703125 L 548.2999877929688 258.6000061035156 L 544.4000244140625 254.8000030517578 Z" class="st6" style="fill: rgb(127, 131, 147); clip-path: url('#SVGID_2_');" transform="matrix(1, 0, 0, 1, 2.842170943040401e-14, 0)"/><path d="M 562.7999877929688 199.3000030517578 L 546.0999755859375 219.3000030517578 L 564.5 234.60000610351562 L 568.5999755859375 238 L 573.7999877929688 242.3000030517578 L 590.4000244140625 222.39999389648438 L 586.2000122070312 218.89999389648438 L 582.0999755859375 215.39999389648438 Z" class="st6" style="fill: rgb(127, 131, 147); clip-path: url('#SVGID_2_');" transform="matrix(1, 0, 0, 1, 2.842170943040401e-14, 0)"/><path d="M 613 161.10000610351562 L 596.2999877929688 181.10000610351562 L 605 188.3000030517578 L 609.0999755859375 191.6999969482422 L 624 204.10000610351562 L 640.5999755859375 184.1999969482422 L 624.9000244140625 171.10000610351562 L 620.9000244140625 167.6999969482422 Z" class="st6" style="fill: rgb(127, 131, 147); clip-path: url('#SVGID_2_');" transform="matrix(1, 0, 0, 1, 2.842170943040401e-14, 0)"/><path d="M 642.2000122070312 110.5 L 629.7999877929688 133.39999389648438 L 640.7999877929688 139.3000030517578 L 645.4000244140625 141.8000030517578 L 661.4000244140625 150.5 L 673.7999877929688 127.69999694824219 L 659.2999877929688 119.80000305175781 L 654.7999877929688 117.30000305175781 Z" class="st6" style="fill: rgb(127, 131, 147); clip-path: url('#SVGID_2_');" transform="matrix(1, 0, 0, 1, 2.842170943040401e-14, 0)"/><path d="M 674.9000244140625 58.900001525878906 L 658.2999877929688 78.9000015258789 L 670.7999877929688 89.4000015258789 L 674.7999877929688 92.69999694824219 L 685.9000244140625 101.9000015258789 L 702.5999755859375 82 L 687 69 L 683.0999755859375 65.69999694824219 Z" class="st6" style="fill: rgb(127, 131, 147); clip-path: url('#SVGID_2_');" transform="matrix(1, 0, 0, 1, 2.842170943040401e-14, 0)"/><path d="M 723.4000244140625 48.29999923706055 L 735.7999877929688 25.5 L 711.5999755859375 12.399999618530273 L 707.2000122070312 10 L 704.0999755859375 8.300000190734863 L 691.7000122070312 31.200000762939453 L 697.4000244140625 34.29999923706055 L 701.9000244140625 36.70000076293945 Z" class="st6" style="fill: rgb(127, 131, 147); clip-path: url('#SVGID_2_');" transform="matrix(1, 0, 0, 1, 2.842170943040401e-14, 0)"/><g transform="matrix(1, 0, 0, 1, 2.842170943040401e-14, 0)" style="clip-path: url('#SVGID_2_');">
					<g>
						
							<path d="M 1008.400024 -41.5 H 1013.400024 V 1026.5 H 1008.400024 V -41.5 Z" transform="matrix(0.913 0.4079 -0.4079 0.913 288.7664 -369.4756)" class="st7" style="fill: rgb(232, 232, 232);"/>
					</g>
				</g><g transform="matrix(1, 0, 0, 1, 2.842170943040401e-14, 0)" style="clip-path: url('#SVGID_2_');">
						
							<path d="M 771 930 H 839 V 954 H 771 V 930 Z" transform="matrix(0.9168 0.3993 -0.3993 0.9168 443.0596 -243.0688)" class="st6" style="fill: rgb(127, 131, 147);"/>
					</g><path d="M 807 881 H 875 V 905 H 807 V 881 Z" transform="matrix(0.9168000221252443, 0.3993000090122223, -0.3993000090122223, 0.9168000221252443, 426.4894104003906, -261.5176086425781)" class="st6" style="fill: rgb(127, 131, 147); clip-path: url('#SVGID_2_');"/><path d="M 822 821 H 890 V 845 H 822 V 821 Z" transform="matrix(0.9168000221252443, 0.3993000090122223, -0.3993000090122223, 0.9168000221252443, 403.7807922363281, -272.4966125488281)" class="st6" style="fill: rgb(127, 131, 147); clip-path: url('#SVGID_2_');"/><path d="M 858 772 H 926 V 796 H 858 V 772 Z" transform="matrix(0.9168000221252443, 0.3993000090122223, -0.3993000090122223, 0.9168000221252443, 387.2106018066406, -290.9454040527344)" class="st6" style="fill: rgb(127, 131, 147); clip-path: url('#SVGID_2_');"/><path d="M 874 716 H 942 V 740 H 874 V 716 Z" transform="matrix(0.9168000221252443, 0.3993000090122223, -0.3993000090122223, 0.9168000221252443, 366.18218994140625, -301.9909973144531)" class="st6" style="fill: rgb(127, 131, 147); clip-path: url('#SVGID_2_');"/><path d="M 910 667 H 978 V 691 H 910 V 667 Z" transform="matrix(0.9168000221252443, 0.3993000090122223, -0.3993000090122223, 0.9168000221252443, 349.6120910644531, -320.43978881835943)" class="st6" style="fill: rgb(127, 131, 147); clip-path: url('#SVGID_2_');"/><path d="M 925 607 H 993 V 631 H 925 V 607 Z" transform="matrix(0.9168000221252443, 0.3993000090122223, -0.3993000090122223, 0.9168000221252443, 326.9034118652344, -331.41879272460943)" class="st6" style="fill: rgb(127, 131, 147); clip-path: url('#SVGID_2_');"/><path d="M 961 558 H 1029 V 582 H 961 V 558 Z" transform="matrix(0.9168000221252443, 0.3993000090122223, -0.3993000090122223, 0.9168000221252443, 310.3330993652344, -349.8674926757813)" class="st6" style="fill: rgb(127, 131, 147); clip-path: url('#SVGID_2_');"/><path d="M 972 501 H 1040 V 525 H 972 V 501 Z" transform="matrix(0.9168000221252443, 0.3993000090122223, -0.3993000090122223, 0.9168000221252443, 288.4895935058594, -358.9999084472657)" class="st6" style="fill: rgb(127, 131, 147); clip-path: url('#SVGID_2_');"/><path d="M 1008 452 H 1076 V 476 H 1008 V 452 Z" transform="matrix(0.9168000221252443, 0.3993000090122223, -0.3993000090122223, 0.9168000221252443, 271.9195861816406, -377.4487915039063)" class="st6" style="fill: rgb(127, 131, 147); clip-path: url('#SVGID_2_');"/><path d="M 1023 392 H 1091 V 416 H 1023 V 392 Z" transform="matrix(0.9168000221252443, 0.3993000090122223, -0.3993000090122223, 0.9168000221252443, 249.2109069824219, -388.4277954101563)" class="st6" style="fill: rgb(127, 131, 147); clip-path: url('#SVGID_2_');"/><path d="M 1059 343 H 1127 V 367 H 1059 V 343 Z" transform="matrix(0.9168000221252443, 0.3993000090122223, -0.3993000090122223, 0.9168000221252443, 232.64079284667977, -406.87658691406256)" class="st6" style="fill: rgb(127, 131, 147); clip-path: url('#SVGID_2_');"/><path d="M 1061 277 H 1129 V 301 H 1061 V 277 Z" transform="matrix(0.9168000221252443, 0.3993000090122223, -0.3993000090122223, 0.9168000221252443, 206.4553985595704, -413.1640930175782)" class="st6" style="fill: rgb(127, 131, 147); clip-path: url('#SVGID_2_');"/><path d="M 1097 228 H 1165 V 252 H 1097 V 228 Z" transform="matrix(0.9168000221252443, 0.3993000090122223, -0.3993000090122223, 0.9168000221252443, 189.88519287109378, -431.61291503906256)" class="st6" style="fill: rgb(127, 131, 147); clip-path: url('#SVGID_2_');"/><path d="M 1112 168 H 1180 V 192 H 1112 V 168 Z" transform="matrix(0.9168000221252443, 0.3993000090122223, -0.3993000090122223, 0.9168000221252443, 167.1766052246094, -442.59188842773443)" class="st6" style="fill: rgb(127, 131, 147); clip-path: url('#SVGID_2_');"/><path d="M 1148 119 H 1216 V 143 H 1148 V 119 Z" transform="matrix(0.9168000221252443, 0.3993000090122223, -0.3993000090122223, 0.9168000221252443, 150.60639953613284, -461.0407104492188)" class="st6" style="fill: rgb(127, 131, 147); clip-path: url('#SVGID_2_');"/><path d="M 1151 61 H 1219 V 85 H 1151 V 61 Z" transform="matrix(0.9168000221252443, 0.3993000090122223, -0.3993000090122223, 0.9168000221252443, 127.69830322265628, -467.06210327148443)" class="st6" style="fill: rgb(127, 131, 147); clip-path: url('#SVGID_2_');"/><path d="M 1187 12 H 1255 V 36 H 1187 V 12 Z" transform="matrix(0.9168000221252443, 0.3993000090122223, -0.3993000090122223, 0.9168000221252443, 111.12809753417972, -485.5108947753907)" class="st6" style="fill: rgb(127, 131, 147); clip-path: url('#SVGID_2_');"/><g transform="matrix(1, 0, 0, 1, 2.842170943040401e-14, 0)" style="clip-path: url('#SVGID_2_');">
					<g>
						<path d="M 807 641.5999755859375 L 785 650.7000122070312 L 783 645 L 810 634 Z" class="st7" style="fill: rgb(232, 232, 232);"/>
					</g>
				</g><g transform="matrix(1, 0, 0, 1, 2.842170943040401e-14, 0)" style="clip-path: url('#SVGID_2_');">
						
							<path d="M 1345.400024 441.200012 H 1382.400024 V 447.200012 H 1345.400024 V 441.200012 Z" transform="matrix(0.9454 -0.326 0.326 0.9454 -70.289 468.8778)" class="st7" style="fill: rgb(232, 232, 232);"/>
					</g><g transform="matrix(1, 0, 0, 1, 2.842170943040401e-14, 0)" style="clip-path: url('#SVGID_2_');">
						
							<path d="M 1281.099976 463.299988 H 1318.099976 V 469.299988 H 1281.099976 V 463.299988 Z" transform="matrix(0.9454 -0.326 0.326 0.9454 -81.0257 449.1006)" class="st7" style="fill: rgb(232, 232, 232);"/>
					</g><g transform="matrix(1, 0, 0, 1, 2.842170943040401e-14, 0)" style="clip-path: url('#SVGID_2_');">
						
							<path d="M 1216.900024 485.5 H 1253.900024 V 491.5 H 1216.900024 V 485.5 Z" transform="matrix(0.9454 -0.326 0.326 0.9454 -91.7622 429.365)" class="st7" style="fill: rgb(232, 232, 232);"/>
					</g><g transform="matrix(1, 0, 0, 1, 2.842170943040401e-14, 0)" style="clip-path: url('#SVGID_2_');">
						
							<path d="M 1152.599976 507.700012 H 1189.599976 V 513.700012 H 1152.599976 V 507.700012 Z" transform="matrix(0.9454 -0.3259 0.3259 0.9454 -102.4954 409.58)" class="st7" style="fill: rgb(232, 232, 232);"/>
					</g><g transform="matrix(1, 0, 0, 1, 2.842170943040401e-14, 0)" style="clip-path: url('#SVGID_2_');">
						
							<path d="M 720.299988 659.799988 H 757.299988 V 665.799988 H 720.299988 V 659.799988 Z" transform="matrix(0.9454 -0.326 0.326 0.9454 -175.7205 277.0471)" class="st7" style="fill: rgb(232, 232, 232);"/>
					</g><g transform="matrix(1, 0, 0, 1, 2.842170943040401e-14, 0)" style="clip-path: url('#SVGID_2_');">
						
							<path d="M 656 682 H 693 V 688 H 656 V 682 Z" transform="matrix(0.9454 -0.326 0.326 0.9454 -186.4534 257.2915)" class="st7" style="fill: rgb(232, 232, 232);"/>
					</g><g transform="matrix(1, 0, 0, 1, 2.842170943040401e-14, 0)" style="clip-path: url('#SVGID_2_');">
						
							<path d="M 591.700012 704.200012 H 628.700012 V 710.200012 H 591.700012 V 704.200012 Z" transform="matrix(0.9454 -0.326 0.326 0.9454 -197.1803 237.5285)" class="st7" style="fill: rgb(232, 232, 232);"/>
					</g><g transform="matrix(1, 0, 0, 1, 2.842170943040401e-14, 0)" style="clip-path: url('#SVGID_2_');">
						
							<path d="M 527.400024 726.299988 H 564.400024 V 732.299988 H 527.400024 V 726.299988 Z" transform="matrix(0.9454 -0.3259 0.3259 0.9454 -207.9026 217.7644)" class="st7" style="fill: rgb(232, 232, 232);"/>
					</g><g transform="matrix(1, 0, 0, 1, 2.842170943040401e-14, 0)" style="clip-path: url('#SVGID_2_');">
						
							<path d="M 463.100006 748.5 H 500.100006 V 754.5 H 463.100006 V 748.5 Z" transform="matrix(0.9454 -0.326 0.326 0.9454 -218.6503 198.0378)" class="st7" style="fill: rgb(232, 232, 232);"/>
					</g><g transform="matrix(1, 0, 0, 1, 2.842170943040401e-14, 0)" style="clip-path: url('#SVGID_2_');">
						
							<path d="M 398.899994 770.700012 H 435.899994 V 776.700012 H 398.899994 V 770.700012 Z" transform="matrix(0.9454 -0.326 0.326 0.9454 -229.389 178.2968)" class="st7" style="fill: rgb(232, 232, 232);"/>
					</g><g transform="matrix(1, 0, 0, 1, 2.842170943040401e-14, 0)" style="clip-path: url('#SVGID_2_');">
						
							<path d="M 334.600006 792.799988 H 371.600006 V 798.799988 H 334.600006 V 792.799988 Z" transform="matrix(0.9454 -0.326 0.326 0.9454 -240.1414 158.5678)" class="st7" style="fill: rgb(232, 232, 232);"/>
					</g><g transform="matrix(1, 0, 0, 1, 2.842170943040401e-14, 0)" style="clip-path: url('#SVGID_2_');">
						
							<path d="M 270.299988 815 H 307.299988 V 821 H 270.299988 V 815 Z" transform="matrix(0.9454 -0.326 0.326 0.9454 -250.8632 138.8099)" class="st7" style="fill: rgb(232, 232, 232);"/>
					</g><g transform="matrix(1, 0, 0, 1, 2.842170943040401e-14, 0)" style="clip-path: url('#SVGID_2_');">
						
							<path d="M 206 837.200012 H 243 V 843.200012 H 206 V 837.200012 Z" transform="matrix(0.9454 -0.326 0.326 0.9454 -261.6158 119.0767)" class="st7" style="fill: rgb(232, 232, 232);"/>
					</g><g transform="matrix(1, 0, 0, 1, 2.842170943040401e-14, 0)" style="clip-path: url('#SVGID_2_');">
						
							<path d="M 141.699997 859.299988 H 178.699997 V 865.299988 H 141.699997 V 859.299988 Z" transform="matrix(0.9454 -0.326 0.326 0.9454 -272.3304 99.3183)" class="st7" style="fill: rgb(232, 232, 232);"/>
					</g><g transform="matrix(1, 0, 0, 1, 2.842170943040401e-14, 0)" style="clip-path: url('#SVGID_2_');">
						
							<path d="M 77.400002 881.5 H 114.400002 V 887.5 H 77.400002 V 881.5 Z" transform="matrix(0.9454 -0.326 0.326 0.9454 -283.0683 79.5754)" class="st7" style="fill: rgb(232, 232, 232);"/>
					</g><g transform="matrix(1, 0, 0, 1, 2.842170943040401e-14, 0)" style="clip-path: url('#SVGID_2_');">
						
							<path d="M 13.1 903.700012 H 50.1 V 909.700012 H 13.1 V 903.700012 Z" transform="matrix(0.9454 -0.326 0.326 0.9454 -293.8046 59.8314)" class="st7" style="fill: rgb(232, 232, 232);"/>
					</g><path d="M 649 980 L 560 980 L 1016 -1 L 1105 -1 Z" class="st5" style="fill: rgb(89, 112, 95); opacity: 0.2; clip-path: url('#SVGID_2_');" transform="matrix(1, 0, 0, 1, 2.842170943040401e-14, 0)"/><g class="st2" transform="matrix(1, 0, 0, 1, 2.842170943040401e-14, 0)" style="opacity: 0.07; clip-path: url('#SVGID_2_');">
					<path d="M746.5,376.2c6.7,5.3,15.2,3.6,19.7-3.5l36.6,29.9l2.4-4.4L768.2,368c2.3-7.9-0.3-17.3-6.6-22.3&#10;&#9;&#9;&#9;&#9;&#9;&#9;c-7.2-5.6-16.4-3.3-20.5,5.1C736.9,359.2,739.3,370.6,746.5,376.2z"/>
				</g><path class="st3" d="M791.6,408.4c-4.5-6.9-2.6-16.1,4.3-20.6c6.9-4.5,16.1-2.6,20.6,4.3c4.5,6.9,2.6,16.1-4.3,20.6&#10;&#9;&#9;&#9;&#9;&#9;&#9;C805.3,417.2,796.1,415.3,791.6,408.4z" style="fill: rgb(73, 193, 73); clip-path: url('#SVGID_2_');" transform="matrix(1, 0, 0, 1, 2.842170943040401e-14, 0)"/><g class="st2" transform="matrix(1, 0, 0, 1, 2.842170943040401e-14, 0)" style="opacity: 0.07; clip-path: url('#SVGID_2_');">
					<path d="M1216.4,781.9c6.5,5.5,15,4.1,19.8-2.8l35.5,31.1l2.5-4.4l-35.8-31.4c2.6-7.8,0.3-17.3-5.8-22.5&#10;&#9;&#9;&#9;&#9;&#9;&#9;c-7-5.9-16.2-3.9-20.7,4.3C1207.4,764.6,1209.4,776,1216.4,781.9z"/>
				</g><path class="st3" d="M1260.3,815.7c-4.3-7-2-16.1,5-20.4c7-4.3,16.1-2,20.4,5c4.3,7,2,16.2-5,20.4&#10;&#9;&#9;&#9;&#9;&#9;&#9;C1273.7,824.9,1264.6,822.7,1260.3,815.7z" style="fill: rgb(73, 193, 73); clip-path: url('#SVGID_2_');" transform="matrix(1, 0, 0, 1, 2.842170943040401e-14, 0)"/><g class="st2" transform="matrix(1, 0, 0, 1, 2.842170943040401e-14, 0)" style="opacity: 0.07; clip-path: url('#SVGID_2_');">
					<path d="M1290.9,852.6c6.5,5.5,15,4.1,19.8-2.8l35.5,31.1l2.5-4.4l-35.8-31.4c2.6-7.8,0.3-17.3-5.8-22.5&#10;&#9;&#9;&#9;&#9;&#9;&#9;c-7-5.9-16.2-3.9-20.7,4.3C1281.9,835.3,1283.9,846.7,1290.9,852.6z"/>
				</g><path class="st3" d="M1334.9,886.4c-4.3-7-2-16.1,5-20.4c7-4.3,16.2-2,20.4,5c4.3,7,2,16.1-5,20.4&#10;&#9;&#9;&#9;&#9;&#9;&#9;C1348.3,895.6,1339.1,893.4,1334.9,886.4z" style="fill: rgb(73, 193, 73); clip-path: url('#SVGID_2_');" transform="matrix(1, 0, 0, 1, 2.842170943040401e-14, 0)"/><g class="st2" transform="matrix(1, 0, 0, 1, 2.842170943040401e-14, 0)" style="opacity: 0.07; clip-path: url('#SVGID_2_');">
					<path d="M1133.3,716.6c6.5,5.5,15,4.1,19.8-2.8l35.5,31.1l2.5-4.4l-35.8-31.4c2.6-7.8,0.3-17.3-5.8-22.5&#10;&#9;&#9;&#9;&#9;&#9;&#9;c-7-5.9-16.2-3.9-20.7,4.3C1124.3,699.3,1126.3,710.8,1133.3,716.6z"/>
				</g><path class="st3" d="M1177.3,750.4c-4.3-7-2-16.1,5-20.4c7-4.3,16.2-2,20.4,5c4.3,7,2,16.2-5,20.4&#10;&#9;&#9;&#9;&#9;&#9;&#9;C1190.7,759.6,1181.5,757.4,1177.3,750.4z" style="fill: rgb(73, 193, 73); clip-path: url('#SVGID_2_');" transform="matrix(1, 0, 0, 1, 2.842170943040401e-14, 0)"/><g class="st2" transform="matrix(1, 0, 0, 1, 2.842170943040401e-14, 0)" style="opacity: 0.07; clip-path: url('#SVGID_2_');">
				<path d="M1120,928.5l-49.9-40.3c-1.4-1.2-3.3-0.4-4.5,1l-14.8,18.3c-1.2,1.5-1.7,3.6-0.2,4.8l4,3.3l-0.1,0.2&#10;&#9;&#9;&#9;&#9;&#9;c-1.2,1.5-1.8,4.7,0,6.1l35.8,28.9c1.8,1.4,4.2-0.3,5.4-1.8l0.1-0.2l4.6,3.7c1.4,1.2,2.9-0.2,4-1.7l14.8-18.3&#10;&#9;&#9;&#9;&#9;&#9;C1120.5,931.2,1121.4,929.7,1120,928.5z"/>
			</g><g transform="matrix(1, 0, 0, 1, 2.842170943040401e-14, 0)" style="clip-path: url('#SVGID_2_');">
					<g>
						<path class="st9" d="M1080.4,887.9c-4.2-3.4-9.5-2.2-12.1-1.1c-0.9,0.4-3,0.8-7.2,6.1c-4.4,5.4-4.3,7.1-4.8,8.8&#10;&#9;&#9;&#9;&#9;&#9;&#9;&#9;c-1.1,3.6-0.6,8.2,3.6,11.6l38.9,31.4c4.2,3.4,9.6,4,12,1.1l12.1-14.9c2.3-2.9,0.7-8.1-3.5-11.5L1080.4,887.9z" style="fill: rgb(237, 222, 138);"/>
					</g>
				</g><g transform="matrix(1, 0, 0, 1, 2.842170943040401e-14, 0)" style="clip-path: url('#SVGID_2_');">
						<path class="st10" d="M1119.8,924.8c-0.3,1.6-0.9,4.8-5.7,10.8c-0.1,0.1-0.2,0.2-0.3,0.3c-0.1,0.1-0.2,0.2-0.3,0.4&#10;&#9;&#9;&#9;&#9;&#9;&#9;&#9;c-4.8,6-7.9,7.2-9.4,7.9c-1.1,0.6-2.4,1.1-3.5,0.2l-1.4-1.1l-25-20.2l-1.4-1.1c-1.1-0.9-0.9-2.2-0.5-3.4&#10;&#9;&#9;&#9;&#9;&#9;&#9;&#9;c0.3-1.6,0.9-4.8,5.7-10.8c0.1-0.1,0.2-0.2,0.3-0.4c0.1-0.1,0.2-0.2,0.3-0.4c4.8-6,7.9-7.2,9.3-7.8c1.1-0.6,2.3-1,3.4-0.1&#10;&#9;&#9;&#9;&#9;&#9;&#9;&#9;l1.4,1.1l25,20.2l1.4,1.1C1120.3,922.3,1120.1,923.6,1119.8,924.8z" style="fill: rgb(84, 84, 84);"/>
					</g><g transform="matrix(1, 0, 0, 1, 2.842170943040401e-14, 0)" style="clip-path: url('#SVGID_2_');">
						<path class="st9" d="M1110.7,921.7c-0.4,1-1.2,3.1-4.8,7.6c-0.1,0.1-0.1,0.2-0.2,0.3c-0.1,0.1-0.1,0.2-0.2,0.3&#10;&#9;&#9;&#9;&#9;&#9;&#9;&#9;c-3.6,4.4-5.5,5.6-6.4,6.3c-0.7,0.5-1.5,1-2,0.6l-0.6-0.5l-11.5-9.3l-0.6-0.5c-0.5-0.4-0.2-1.2,0.1-2.1c0.4-1,1.2-3.2,4.8-7.6&#10;&#9;&#9;&#9;&#9;&#9;&#9;&#9;c0.1-0.1,0.1-0.2,0.2-0.3c0.1-0.1,0.1-0.2,0.2-0.3c3.6-4.4,5.5-5.6,6.4-6.2c0.7-0.5,1.4-0.9,1.9-0.5l0.6,0.5l11.5,9.3l0.6,0.5&#10;&#9;&#9;&#9;&#9;&#9;&#9;&#9;C1111.3,920,1111,920.8,1110.7,921.7z" style="fill: rgb(237, 222, 138);"/>
					</g><g transform="matrix(1, 0, 0, 1, 2.842170943040401e-14, 0)" style="clip-path: url('#SVGID_2_');">
						<g>
							<path class="st9" d="M1096.9,936c3.6,4.9,4.7,9.5,4.7,9.6l1.4-0.2c0-0.2-1.2-4.9-5-10.1L1096.9,936z" style="fill: rgb(237, 222, 138);"/>
						</g>
					</g><g transform="matrix(1, 0, 0, 1, 2.842170943040401e-14, 0)" style="clip-path: url('#SVGID_2_');">
							<path class="st9" d="M1110.3,919.5l-0.4,1.2c5.9,2.6,10.7,2.7,10.9,2.8l-0.1-1.4l0,0l0,0&#10;&#9;&#9;&#9;&#9;&#9;&#9;&#9;&#9;C1120.6,922.1,1115.8,922,1110.3,919.5z" style="fill: rgb(237, 222, 138);"/>
						</g><g transform="matrix(1, 0, 0, 1, 2.842170943040401e-14, 0)" style="clip-path: url('#SVGID_2_');">
							<path class="st9" d="M1071.1,919.6l-0.1,1.3c0.1,0,6,1.1,13.3,5l0.5-1.2C1077.3,920.7,1071.3,919.6,1071.1,919.6z" style="fill: rgb(237, 222, 138);"/>
						</g><g transform="matrix(1, 0, 0, 1, 2.842170943040401e-14, 0)" style="clip-path: url('#SVGID_2_');">
							<path class="st9" d="M1088.8,897.7c0.1,0.2,2.4,5.8,7.9,12.4l1-0.8c-5.4-6.4-7.6-11.9-7.7-12L1088.8,897.7z" style="fill: rgb(237, 222, 138);"/>
						</g><g transform="matrix(1, 0, 0, 1, 2.842170943040401e-14, 0)" style="clip-path: url('#SVGID_2_');">
						<g>
							<path class="st11" d="M1068.6,886.7c0,0,5.2,4.6,9.3-0.3C1077.8,886.4,1074.4,884,1068.6,886.7z" style="fill: rgb(255, 191, 151);"/>
						</g>
					</g><g transform="matrix(1, 0, 0, 1, 2.842170943040401e-14, 0)" style="clip-path: url('#SVGID_2_');">
							<path class="st11" d="M1056.1,902.2c0,0,5.7,4.1,1.7,9.1C1057.8,911.3,1054.7,908.5,1056.1,902.2z" style="fill: rgb(255, 191, 151);"/>
						</g><g transform="matrix(1, 0, 0, 1, 2.842170943040401e-14, 0)" style="opacity: 0.1; clip-path: url('#SVGID_2_');">
						<g>
							<path class="st10" d="M1063.7,904.4c-0.3-0.2-0.7-0.2-0.9,0l0,0c-0.2,0.3-0.1,0.7,0.2,0.9l7.6,6.2c0.3,0.2,0.7,0.2,0.9,0l0,0&#10;&#9;&#9;&#9;&#9;&#9;&#9;&#9;&#9;c0.2-0.3,0.1-0.7-0.2-0.9L1063.7,904.4z" style="fill: rgb(84, 84, 84);"/>
						</g>
					</g><g transform="matrix(1, 0, 0, 1, 2.842170943040401e-14, 0)" style="opacity: 0.1; clip-path: url('#SVGID_2_');">
							<path class="st10" d="M1073.1,892.7c-0.3-0.2-0.7-0.2-0.9,0l0,0c-0.2,0.3-0.1,0.7,0.2,0.9l7.6,6.2c0.3,0.2,0.7,0.2,0.9,0l0,0&#10;&#9;&#9;&#9;&#9;&#9;&#9;&#9;&#9;c0.2-0.3,0.1-0.7-0.2-0.9L1073.1,892.7z" style="fill: rgb(84, 84, 84);"/>
						</g><g class="st2" transform="matrix(1, 0, 0, 1, 2.842170943040401e-14, 0)" style="opacity: 0.07; clip-path: url('#SVGID_2_');">
				<path d="M164,522.2l-61.4,18.5c-1.8,0.5-2.5,2.4-2,4.2l6.8,22.5c0.5,1.8,1.8,1.6,3.6,1.1l4.7-1.4l0.6,1.9&#10;&#9;&#9;&#9;&#9;&#9;c0.5,1.8,2.6,2.3,4.8,1.7l44.1-13.3c2.2-0.7,4.3-2.5,3.8-4.3l-0.6-1.9l4-1.2c1.8-0.5,2.6-1,2.1-2.8l-6.8-22.5&#10;&#9;&#9;&#9;&#9;&#9;C167.2,522.9,165.8,521.7,164,522.2z"/>
			</g><g transform="matrix(1, 0, 0, 1, 2.842170943040401e-14, 0)" style="clip-path: url('#SVGID_2_');">
					<g>
						<path class="st13" d="M153.9,517.1c5.2-1.6,9.7,1.5,11.6,3.6c0.7,0.7,2.5,1.9,4.4,8.3c2,6.7,1.3,8.2,1.1,10&#10;&#9;&#9;&#9;&#9;&#9;&#9;&#9;c-0.4,3.8-2.5,7.8-7.7,9.4l-47.9,14.4c-5.2,1.6-10.4,0-11.5-3.5l-5.5-18.4c-1.1-3.6,2.4-7.8,7.6-9.4L153.9,517.1z" style="fill: rgb(237, 105, 105);"/>
					</g>
				</g><g transform="matrix(1, 0, 0, 1, 2.842170943040401e-14, 0)" style="clip-path: url('#SVGID_2_');">
						<path class="st10" d="M103.5,536.4c-0.3,1.6-1,4.8,1.2,12.1c0,0.1,0.1,0.3,0.1,0.4c0,0.1,0.1,0.3,0.1,0.4&#10;&#9;&#9;&#9;&#9;&#9;&#9;&#9;c2.2,7.3,4.6,9.7,5.7,10.8c0.8,1,1.8,1.9,3.1,1.5l1.7-0.5l30.8-9.3l1.7-0.5c1.4-0.4,1.6-1.7,1.8-3c0.3-1.6,1-4.8-1.2-12.2&#10;&#9;&#9;&#9;&#9;&#9;&#9;&#9;c0-0.1-0.1-0.3-0.1-0.4c0-0.1-0.1-0.3-0.1-0.4c-2.2-7.3-4.6-9.6-5.7-10.8c-0.8-1-1.8-1.8-3.1-1.4l-1.7,0.5l-30.8,9.3l-1.7,0.5&#10;&#9;&#9;&#9;&#9;&#9;&#9;&#9;C104,534,103.7,535.2,103.5,536.4z" style="fill: rgb(84, 84, 84);"/>
					</g><g transform="matrix(1, 0, 0, 1, 2.842170943040401e-14, 0)" style="clip-path: url('#SVGID_2_');">
						<path class="st13" d="M113.1,536.9c0,1.1-0.1,3.3,1.6,8.8c0,0.1,0.1,0.2,0.1,0.3c0,0.1,0.1,0.2,0.1,0.3c1.7,5.5,3,7.3,3.6,8.2&#10;&#9;&#9;&#9;&#9;&#9;&#9;&#9;c0.5,0.8,1,1.5,1.6,1.3l0.8-0.2l14.1-4.3l0.8-0.2c0.6-0.2,0.7-1.1,0.6-2c0-1.1,0.1-3.4-1.6-8.8c0-0.1-0.1-0.2-0.1-0.3&#10;&#9;&#9;&#9;&#9;&#9;&#9;&#9;c0-0.1-0.1-0.2-0.1-0.3c-1.7-5.5-3-7.3-3.6-8.2c-0.5-0.8-1-1.4-1.6-1.2l-0.8,0.2l-14.1,4.3l-0.8,0.2&#10;&#9;&#9;&#9;&#9;&#9;&#9;&#9;C113.2,535.2,113.1,536,113.1,536.9z" style="fill: rgb(237, 105, 105);"/>
					</g><g transform="matrix(1, 0, 0, 1, 2.842170943040401e-14, 0)" style="clip-path: url('#SVGID_2_');">
						<g>
							<path class="st13" d="M120.4,555.4c-5.2,3.2-8,7-8,7.1l-1.2-0.7c0.1-0.2,3-4.1,8.4-7.5L120.4,555.4z" style="fill: rgb(237, 105, 105);"/>
						</g>
					</g><g transform="matrix(1, 0, 0, 1, 2.842170943040401e-14, 0)" style="clip-path: url('#SVGID_2_');">
							<path class="st13" d="M114.3,535.1l-0.1,1.3c-6.4,0.2-11-1.5-11.1-1.6l0.6-1.2l0,0l0,0C103.8,533.7,108.2,535.3,114.3,535.1z&#10;&#9;&#9;&#9;&#9;&#9;&#9;&#9;&#9;" style="fill: rgb(237, 105, 105);"/>
						</g><g transform="matrix(1, 0, 0, 1, 2.842170943040401e-14, 0)" style="clip-path: url('#SVGID_2_');">
							<path class="st13" d="M150.6,549.9l-0.4,1.3c-0.1,0-5.9-1.2-14.2-0.4l-0.1-1.3C144.4,548.6,150.3,549.9,150.6,549.9z" style="fill: rgb(237, 105, 105);"/>
						</g><g transform="matrix(1, 0, 0, 1, 2.842170943040401e-14, 0)" style="clip-path: url('#SVGID_2_');">
							<path class="st13" d="M142.5,523c-0.2,0.2-4.4,4.5-12,8.5l-0.7-1.1c7.4-3.9,11.6-8.2,11.6-8.2L142.5,523z" style="fill: rgb(237, 105, 105);"/>
						</g><g transform="matrix(1, 0, 0, 1, 2.842170943040401e-14, 0)" style="clip-path: url('#SVGID_2_');">
						<g>
							<path class="st14" d="M165.3,520.5c0,0-6.5,2.3-8.5-3.8C156.8,516.6,160.9,515.8,165.3,520.5z" style="fill: rgb(255, 230, 151);"/>
						</g>
					</g><g transform="matrix(1, 0, 0, 1, 2.842170943040401e-14, 0)" style="clip-path: url('#SVGID_2_');">
							<path class="st14" d="M171,539.5c0,0-6.8,1.6-5,7.8C166,547.3,170,545.9,171,539.5z" style="fill: rgb(255, 230, 151);"/>
						</g><g transform="matrix(1, 0, 0, 1, 2.842170943040401e-14, 0)" style="clip-path: url('#SVGID_2_');">
						<g>
							<path class="st15" d="M163.1,538.6c0.4-0.1,0.8,0.1,0.9,0.4l0,0c0.1,0.3-0.1,0.7-0.5,0.8l-9.4,2.8c-0.4,0.1-0.8-0.1-0.9-0.4&#10;&#9;&#9;&#9;&#9;&#9;&#9;&#9;&#9;l0,0c-0.1-0.3,0.1-0.7,0.5-0.8L163.1,538.6z" style="fill: rgb(219, 93, 93);"/>
						</g>
					</g><g transform="matrix(1, 0, 0, 1, 2.842170943040401e-14, 0)" style="clip-path: url('#SVGID_2_');">
							<path class="st15" d="M158.8,524.3c0.4-0.1,0.8,0.1,0.9,0.4l0,0c0.1,0.3-0.1,0.7-0.5,0.8l-9.4,2.8c-0.4,0.1-0.8-0.1-0.9-0.4&#10;&#9;&#9;&#9;&#9;&#9;&#9;&#9;&#9;l0,0c-0.1-0.3,0.1-0.7,0.5-0.8L158.8,524.3z" style="fill: rgb(219, 93, 93);"/>
						</g><g class="st2" transform="matrix(1, 0, 0, 1, 2.842170943040401e-14, 0)" style="opacity: 0.07; clip-path: url('#SVGID_2_');">
				<path d="M304.9,379.1l64.8-40.1c1.9-1.2,3.4-4,2.4-5.6l-12.4-20c-1-1.6-4-1.1-5.8,0l-6,3.7l-0.6-0.9c-1-1.6-2.9-2.8-5.2-1.4&#10;&#9;&#9;&#9;&#9;&#9;l-46.6,28.8c-2.3,1.4-3.6,4.7-2.6,6.3l0.6,0.9l-4.4,2.7c-1.9,1.2-2.6,3-1.7,4.6l12.4,20C300.8,379.8,303.1,380.3,304.9,379.1z"/>
			</g><g transform="matrix(1, 0, 0, 1, 2.842170943040401e-14, 0)" style="clip-path: url('#SVGID_2_');">
					<g>
						<path class="st16" d="M366.6,349.4c4.8-3,5.5-8.7,5.2-11.6c-0.1-1.1,0.2-3.2-3.5-9.3c-3.9-6.3-5.5-6.8-7.1-7.9&#10;&#9;&#9;&#9;&#9;&#9;&#9;&#9;c-3.2-2.3-7.8-3.5-12.7-0.5l-51.2,31.6c-4.8,3-7.2,8.1-5.2,11.5l10.6,17.2c2.1,3.3,7.8,3.6,12.6,0.6L366.6,349.4z" style="fill: rgb(87, 100, 147);"/>
					</g>
				</g><g transform="matrix(1, 0, 0, 1, 2.842170943040401e-14, 0)" style="clip-path: url('#SVGID_2_');">
						<path class="st10" d="M316.5,375.4c-1.4-0.9-4.4-2.6-8.7-9.4c-0.1-0.1-0.2-0.3-0.2-0.4c-0.1-0.1-0.2-0.3-0.3-0.4&#10;&#9;&#9;&#9;&#9;&#9;&#9;&#9;c-4.2-6.9-4.4-10.4-4.6-12c-0.2-1.3-0.3-2.7,1-3.5l1.6-1L334,331l1.6-1c1.3-0.8,2.5-0.1,3.6,0.7c1.4,0.9,4.5,2.6,8.7,9.5&#10;&#9;&#9;&#9;&#9;&#9;&#9;&#9;c0.1,0.1,0.2,0.3,0.3,0.4c0.1,0.1,0.2,0.3,0.3,0.4c4.2,6.9,4.4,10.3,4.6,12c0.2,1.3,0.2,2.7-1,3.4l-1.6,1L321.7,375l-1.6,1&#10;&#9;&#9;&#9;&#9;&#9;&#9;&#9;C318.8,376.8,317.6,376.2,316.5,375.4z" style="fill: rgb(84, 84, 84);"/>
					</g><g transform="matrix(1, 0, 0, 1, 2.842170943040401e-14, 0)" style="clip-path: url('#SVGID_2_');">
						<path class="st16" d="M322.8,367.6c-0.9-0.8-2.7-2.3-5.9-7.4c-0.1-0.1-0.1-0.2-0.2-0.3c-0.1-0.1-0.1-0.2-0.2-0.3&#10;&#9;&#9;&#9;&#9;&#9;&#9;&#9;c-3.2-5.1-3.7-7.4-4-8.6c-0.3-0.9-0.5-1.8,0.1-2.2l0.7-0.5l13.1-8.1l0.7-0.5c0.6-0.4,1.3,0.2,2,0.9c0.9,0.8,2.7,2.3,5.9,7.4&#10;&#9;&#9;&#9;&#9;&#9;&#9;&#9;c0.1,0.1,0.1,0.2,0.2,0.3c0.1,0.1,0.1,0.2,0.2,0.3c3.2,5.1,3.7,7.4,4,8.5c0.3,0.9,0.4,1.8-0.1,2.1l-0.7,0.5l-13.1,8.1&#10;&#9;&#9;&#9;&#9;&#9;&#9;&#9;l-0.7,0.5C324.2,368.7,323.5,368.2,322.8,367.6z" style="fill: rgb(87, 100, 147);"/>
					</g><g transform="matrix(1, 0, 0, 1, 2.842170943040401e-14, 0)" style="clip-path: url('#SVGID_2_');">
						<path class="st17" d="M305.9,382.4c1.3-0.8,1.7-2.3,1-3.4l-11.4-18.5c-0.7-1.1-2.3-1.4-3.5-0.6l-0.2,0.1&#10;&#9;&#9;&#9;&#9;&#9;&#9;&#9;c-1.3,0.8-1.7,2.3-1,3.4l11.4,18.5c0.7,1.1,2.3,1.4,3.5,0.6L305.9,382.4z" style="fill: rgb(75, 89, 127);"/>
					</g><g transform="matrix(1, 0, 0, 1, 2.842170943040401e-14, 0)" style="clip-path: url('#SVGID_2_');">
						<g>
							<path class="st16" d="M313.3,348.9c-6.1,1.8-11,1.3-11.1,1.3l-0.3,1.4c0.2,0,5.3,0.5,11.7-1.4L313.3,348.9z" style="fill: rgb(87, 100, 147);"/>
						</g>
					</g><g transform="matrix(1, 0, 0, 1, 2.842170943040401e-14, 0)" style="clip-path: url('#SVGID_2_');">
							<path class="st16" d="M325,367.9l-1.1-0.9c-4.6,4.9-6.4,9.6-6.5,9.8l1.4,0.3l0,0l0,0C318.9,377.2,320.7,372.6,325,367.9z" style="fill: rgb(87, 100, 147);"/>
						</g><g transform="matrix(1, 0, 0, 1, 2.842170943040401e-14, 0)" style="clip-path: url('#SVGID_2_');">
							<path class="st16" d="M338.5,329.1l-1.3-0.5c0,0.1-3.1,5.5-9.5,11.5l1,0.9C335.2,334.8,338.4,329.3,338.5,329.1z" style="fill: rgb(87, 100, 147);"/>
						</g><g transform="matrix(1, 0, 0, 1, 2.842170943040401e-14, 0)" style="clip-path: url('#SVGID_2_');">
							<path class="st16" d="M354,354.3c-0.3,0-6.6,0.3-15,3.5l0.4,1.3c8.2-3.1,14.4-3.4,14.5-3.4L354,354.3z" style="fill: rgb(87, 100, 147);"/>
						</g><g transform="matrix(1, 0, 0, 1, 2.842170943040401e-14, 0)" style="clip-path: url('#SVGID_2_');">
						<g>
							<path class="st14" d="M371.8,338.1c0,0-6.3,3.5-2.8,9.3C369,347.4,372.5,344.9,371.8,338.1z" style="fill: rgb(255, 230, 151);"/>
						</g>
					</g><g transform="matrix(1, 0, 0, 1, 2.842170943040401e-14, 0)" style="clip-path: url('#SVGID_2_');">
							<path class="st14" d="M360.8,320.3c0,0-6,4.2-9.6-1.5C351.2,318.9,355.1,316.7,360.8,320.3z" style="fill: rgb(255, 230, 151);"/>
						</g><g transform="matrix(1, 0, 0, 1, 2.842170943040401e-14, 0)" style="clip-path: url('#SVGID_2_');">
						<g>
							<path class="st17" d="M356.1,327.1c0.3-0.2,0.5-0.6,0.3-0.9l0,0c-0.2-0.3-0.6-0.4-1-0.2l-8.7,5.4c-0.3,0.2-0.5,0.6-0.3,0.9&#10;&#9;&#9;&#9;&#9;&#9;&#9;&#9;&#9;l0,0c0.2,0.3,0.6,0.4,1,0.2L356.1,327.1z" style="fill: rgb(75, 89, 127);"/>
						</g>
					</g><g transform="matrix(1, 0, 0, 1, 2.842170943040401e-14, 0)" style="clip-path: url('#SVGID_2_');">
							<path class="st17" d="M364.3,340.5c0.3-0.2,0.5-0.6,0.3-0.9l0,0c-0.2-0.3-0.6-0.4-1-0.2l-8.7,5.4c-0.3,0.2-0.5,0.6-0.3,0.9&#10;&#9;&#9;&#9;&#9;&#9;&#9;&#9;&#9;l0,0c0.2,0.3,0.6,0.4,1,0.2L364.3,340.5z" style="fill: rgb(75, 89, 127);"/>
						</g><g class="st2" transform="matrix(1, 0, 0, 1, 2.842170943040401e-14, 0)" style="opacity: 0.07; clip-path: url('#SVGID_2_');">
				<path d="M663.6,418.5l46.5,44.1c1.3,1.3,4,0.4,5.3-1l16.2-17.1c1.3-1.4,1.2-3.2-0.1-4.5l-3.5-3.3l0.6-0.7&#10;&#9;&#9;&#9;&#9;&#9;c1.3-1.4,1.4-4.3-0.3-5.8l-33.4-31.7c-1.6-1.6-4.9-1.7-6.2-0.3L688,399l-3.1-2.9c-1.3-1.3-2.8-1-4.1,0.4l-16.2,17.1&#10;&#9;&#9;&#9;&#9;&#9;C663.3,414.9,662.2,417.3,663.6,418.5z"/>
			</g><g transform="matrix(1, 0, 0, 1, 2.842170943040401e-14, 0)" style="clip-path: url('#SVGID_2_');">
					<g>
						<path class="st18" d="M665.2,428.3c-4-3.7-3.5-9.2-2.7-11.9c0.3-1,0.4-3.1,5.1-8c4.8-5.1,6.5-5.2,8.1-5.9&#10;&#9;&#9;&#9;&#9;&#9;&#9;&#9;c3.5-1.5,8-1.7,11.9,2l36.3,34.4c4,3.8,5.2,9,2.6,11.7l-13.2,13.9c-2.6,2.7-7.9,1.8-11.9-2L665.2,428.3z" style="fill: rgb(233, 233, 244);"/>
					</g>
				</g><g transform="matrix(1, 0, 0, 1, 2.842170943040401e-14, 0)" style="clip-path: url('#SVGID_2_');">
						<path class="st10" d="M706.9,462.4c1.5-0.5,4.6-1.5,9.9-7.1c0.1-0.1,0.2-0.2,0.3-0.3c0.1-0.1,0.2-0.2,0.3-0.3&#10;&#9;&#9;&#9;&#9;&#9;&#9;&#9;c5.3-5.6,6.1-8.8,6.6-10.3c0.4-1.2,0.8-2.5-0.3-3.5l-1.3-1.2l-23.4-22.2l-1.3-1.2c-1-1-2.3-0.6-3.5-0.1&#10;&#9;&#9;&#9;&#9;&#9;&#9;&#9;c-1.5,0.6-4.7,1.5-9.9,7.1c-0.1,0.1-0.2,0.2-0.3,0.3c-0.1,0.1-0.2,0.2-0.3,0.3c-5.3,5.6-6.1,8.8-6.6,10.3&#10;&#9;&#9;&#9;&#9;&#9;&#9;&#9;c-0.4,1.2-0.7,2.4,0.3,3.4l1.3,1.2l23.4,22.2l1.3,1.2C704.5,463.3,705.8,462.9,706.9,462.4z" style="fill: rgb(84, 84, 84);"/>
					</g><g transform="matrix(1, 0, 0, 1, 2.842170943040401e-14, 0)" style="clip-path: url('#SVGID_2_');">
						<path class="st18" d="M702.6,453.9c1-0.5,3-1.6,6.9-5.7c0.1-0.1,0.1-0.2,0.2-0.2c0.1-0.1,0.2-0.2,0.2-0.2&#10;&#9;&#9;&#9;&#9;&#9;&#9;&#9;c3.9-4.1,4.9-6.2,5.4-7.2c0.4-0.8,0.8-1.6,0.3-2l-0.6-0.6l-10.7-10.1l-0.6-0.6c-0.5-0.4-1.3,0-2,0.4c-1,0.5-3,1.6-6.9,5.7&#10;&#9;&#9;&#9;&#9;&#9;&#9;&#9;c-0.1,0.1-0.2,0.2-0.2,0.2c-0.1,0.1-0.2,0.2-0.2,0.2c-3.9,4.1-4.8,6.2-5.3,7.2c-0.4,0.8-0.7,1.6-0.3,2l0.6,0.6l10.7,10.1&#10;&#9;&#9;&#9;&#9;&#9;&#9;&#9;l0.6,0.6C701.1,454.7,701.8,454.3,702.6,453.9z" style="fill: rgb(233, 233, 244);"/>
					</g><g transform="matrix(1, 0, 0, 1, 2.842170943040401e-14, 0)" style="clip-path: url('#SVGID_2_');">
						<g>
							<path class="st18" d="M715,438.3c5.3,2.9,10.1,3.4,10.1,3.4l0,1.4c-0.2,0-5-0.6-10.7-3.6L715,438.3z" style="fill: rgb(233, 233, 244);"/>
						</g>
					</g><g transform="matrix(1, 0, 0, 1, 2.842170943040401e-14, 0)" style="clip-path: url('#SVGID_2_');">
							<path class="st18" d="M700.4,453.8l1.2-0.6c3.3,5.5,4.1,10.3,4.2,10.5l-1.4,0v0l0,0C704.4,463.6,703.6,458.9,700.4,453.8z" style="fill: rgb(233, 233, 244);"/>
						</g><g transform="matrix(1, 0, 0, 1, 2.842170943040401e-14, 0)" style="clip-path: url('#SVGID_2_');">
							<path class="st18" d="M695.3,414.9l1.3-0.3c0,0.1,1.9,5.8,6.7,12.6l-1.1,0.7C697.2,420.9,695.4,415.1,695.3,414.9z" style="fill: rgb(233, 233, 244);"/>
						</g><g transform="matrix(1, 0, 0, 1, 2.842170943040401e-14, 0)" style="clip-path: url('#SVGID_2_');">
							<path class="st18" d="M676,435.3c0.2,0.1,6.1,1.6,13.3,6.2l-0.6,1.1c-7.1-4.5-12.8-6-12.9-6L676,435.3z" style="fill: rgb(233, 233, 244);"/>
						</g><g transform="matrix(1, 0, 0, 1, 2.842170943040401e-14, 0)" style="clip-path: url('#SVGID_2_');">
						<g>
							<path class="st19" d="M662.4,416.7c0,0,5.2,4.5,0.9,9.2C663.3,426,660.5,422.9,662.4,416.7z" style="fill: rgb(255, 230, 120);"/>
						</g>
					</g><g transform="matrix(1, 0, 0, 1, 2.842170943040401e-14, 0)" style="clip-path: url('#SVGID_2_');">
							<path class="st19" d="M676.1,402.3c0,0,4.8,5.1,9.3,0.5C685.4,402.8,682.2,400.1,676.1,402.3z" style="fill: rgb(255, 230, 120);"/>
						</g><g transform="matrix(1, 0, 0, 1, 2.842170943040401e-14, 0)" style="opacity: 0.1; clip-path: url('#SVGID_2_');">
						<g>
							<path class="st10" d="M679.3,409.6c-0.3-0.3-0.3-0.7-0.1-0.9l0,0c0.2-0.2,0.7-0.2,0.9,0l7.1,6.7c0.3,0.3,0.3,0.7,0.1,0.9l0,0&#10;&#9;&#9;&#9;&#9;&#9;&#9;&#9;&#9;c-0.2,0.2-0.7,0.2-0.9,0L679.3,409.6z" style="fill: rgb(84, 84, 84);"/>
						</g>
					</g><g transform="matrix(1, 0, 0, 1, 2.842170943040401e-14, 0)" style="opacity: 0.1; clip-path: url('#SVGID_2_');">
							<path class="st10" d="M669,420.4c-0.3-0.3-0.3-0.7-0.1-0.9l0,0c0.2-0.2,0.7-0.2,0.9,0l7.1,6.7c0.3,0.3,0.3,0.7,0.1,0.9l0,0&#10;&#9;&#9;&#9;&#9;&#9;&#9;&#9;&#9;c-0.2,0.2-0.7,0.2-0.9,0L669,420.4z" style="fill: rgb(84, 84, 84);"/>
						</g><g class="st2" transform="matrix(1, 0, 0, 1, 2.842170943040401e-14, 0)" style="opacity: 0.07; clip-path: url('#SVGID_2_');">
				<path d="M318,78.5l-49.9-40.3c-1.4-1.2-3.3-0.4-4.5,1l-14.8,18.3c-1.2,1.5-1.7,3.6-0.2,4.8l4,3.3l-0.1,0.2&#10;&#9;&#9;&#9;&#9;&#9;c-1.2,1.5-1.8,4.7,0,6.1l35.8,28.9c1.8,1.4,4.2-0.3,5.4-1.8l0.1-0.2l4.6,3.7c1.4,1.2,2.9-0.2,4-1.7l14.8-18.3&#10;&#9;&#9;&#9;&#9;&#9;C318.5,81.2,319.4,79.7,318,78.5z"/>
			</g><g transform="matrix(1, 0, 0, 1, 2.842170943040401e-14, 0)" style="clip-path: url('#SVGID_2_');">
					<g>
						<path class="st9" d="M278.4,37.9c-4.2-3.4-9.5-2.2-12.1-1.1c-0.9,0.4-3,0.8-7.2,6.1c-4.4,5.4-4.3,7.1-4.8,8.8&#10;&#9;&#9;&#9;&#9;&#9;&#9;&#9;c-1.1,3.6-0.6,8.2,3.6,11.6l38.9,31.4c4.2,3.4,9.6,4,12,1.1l12.1-14.9c2.3-2.9,0.7-8.1-3.5-11.5L278.4,37.9z" style="fill: rgb(237, 222, 138);"/>
					</g>
				</g><g transform="matrix(1, 0, 0, 1, 2.842170943040401e-14, 0)" style="clip-path: url('#SVGID_2_');">
						<path class="st10" d="M317.8,74.8c-0.3,1.6-0.9,4.8-5.7,10.8c-0.1,0.1-0.2,0.2-0.3,0.3c-0.1,0.1-0.2,0.2-0.3,0.4&#10;&#9;&#9;&#9;&#9;&#9;&#9;&#9;c-4.8,6-7.9,7.2-9.4,7.9c-1.1,0.6-2.4,1.1-3.5,0.2l-1.4-1.1l-25-20.2l-1.4-1.1c-1.1-0.9-0.9-2.2-0.5-3.4&#10;&#9;&#9;&#9;&#9;&#9;&#9;&#9;c0.3-1.6,0.9-4.8,5.7-10.8c0.1-0.1,0.2-0.2,0.3-0.4c0.1-0.1,0.2-0.2,0.3-0.4c4.8-6,7.9-7.2,9.3-7.8c1.1-0.6,2.3-1,3.4-0.1&#10;&#9;&#9;&#9;&#9;&#9;&#9;&#9;l1.4,1.1l25,20.2l1.4,1.1C318.3,72.3,318.1,73.6,317.8,74.8z" style="fill: rgb(84, 84, 84);"/>
					</g><g transform="matrix(1, 0, 0, 1, 2.842170943040401e-14, 0)" style="clip-path: url('#SVGID_2_');">
						<path class="st9" d="M308.7,71.7c-0.4,1-1.2,3.1-4.8,7.6c-0.1,0.1-0.1,0.2-0.2,0.3c-0.1,0.1-0.1,0.2-0.2,0.3&#10;&#9;&#9;&#9;&#9;&#9;&#9;&#9;c-3.6,4.4-5.5,5.6-6.4,6.3c-0.7,0.5-1.5,1-2,0.6l-0.6-0.5L283,76.8l-0.6-0.5c-0.5-0.4-0.2-1.2,0.1-2.1c0.4-1,1.2-3.2,4.8-7.6&#10;&#9;&#9;&#9;&#9;&#9;&#9;&#9;c0.1-0.1,0.1-0.2,0.2-0.3c0.1-0.1,0.1-0.2,0.2-0.3c3.6-4.4,5.5-5.6,6.4-6.2c0.7-0.5,1.4-0.9,1.9-0.5l0.6,0.5l11.5,9.3l0.6,0.5&#10;&#9;&#9;&#9;&#9;&#9;&#9;&#9;C309.3,70,309,70.8,308.7,71.7z" style="fill: rgb(237, 222, 138);"/>
					</g><g transform="matrix(1, 0, 0, 1, 2.842170943040401e-14, 0)" style="clip-path: url('#SVGID_2_');">
						<g>
							<path class="st9" d="M294.9,86c3.6,4.9,4.7,9.5,4.7,9.6l1.4-0.2c0-0.2-1.2-4.9-5-10.1L294.9,86z" style="fill: rgb(237, 222, 138);"/>
						</g>
					</g><g transform="matrix(1, 0, 0, 1, 2.842170943040401e-14, 0)" style="clip-path: url('#SVGID_2_');">
							<path class="st9" d="M308.3,69.5l-0.4,1.2c5.9,2.6,10.7,2.7,10.9,2.8l-0.1-1.4l0,0l0,0C318.6,72.1,313.8,72,308.3,69.5z" style="fill: rgb(237, 222, 138);"/>
						</g><g transform="matrix(1, 0, 0, 1, 2.842170943040401e-14, 0)" style="clip-path: url('#SVGID_2_');">
							<path class="st9" d="M269.1,69.6l-0.1,1.3c0.1,0,6,1.1,13.3,5l0.5-1.2C275.3,70.7,269.3,69.6,269.1,69.6z" style="fill: rgb(237, 222, 138);"/>
						</g><g transform="matrix(1, 0, 0, 1, 2.842170943040401e-14, 0)" style="clip-path: url('#SVGID_2_');">
							<path class="st9" d="M286.8,47.7c0.1,0.2,2.4,5.8,7.9,12.4l1-0.8c-5.4-6.4-7.6-11.9-7.7-12L286.8,47.7z" style="fill: rgb(237, 222, 138);"/>
						</g><g transform="matrix(1, 0, 0, 1, 2.842170943040401e-14, 0)" style="clip-path: url('#SVGID_2_');">
						<g>
							<path class="st11" d="M266.6,36.7c0,0,5.2,4.6,9.3-0.3C275.8,36.4,272.4,34,266.6,36.7z" style="fill: rgb(255, 191, 151);"/>
						</g>
					</g><g transform="matrix(1, 0, 0, 1, 2.842170943040401e-14, 0)" style="clip-path: url('#SVGID_2_');">
							<path class="st11" d="M254.1,52.2c0,0,5.7,4.1,1.7,9.1C255.8,61.3,252.7,58.5,254.1,52.2z" style="fill: rgb(255, 191, 151);"/>
						</g><g transform="matrix(1, 0, 0, 1, 2.842170943040401e-14, 0)" style="opacity: 0.1; clip-path: url('#SVGID_2_');">
						<g>
							<path class="st10" d="M261.7,54.4c-0.3-0.2-0.7-0.2-0.9,0l0,0c-0.2,0.3-0.1,0.7,0.2,0.9l7.6,6.2c0.3,0.2,0.7,0.2,0.9,0l0,0&#10;&#9;&#9;&#9;&#9;&#9;&#9;&#9;&#9;c0.2-0.3,0.1-0.7-0.2-0.9L261.7,54.4z" style="fill: rgb(84, 84, 84);"/>
						</g>
					</g><g transform="matrix(1, 0, 0, 1, 2.842170943040401e-14, 0)" style="opacity: 0.1; clip-path: url('#SVGID_2_');">
							<path class="st10" d="M271.1,42.7c-0.3-0.2-0.7-0.2-0.9,0l0,0c-0.2,0.3-0.1,0.7,0.2,0.9l7.6,6.2c0.3,0.2,0.7,0.2,0.9,0l0,0&#10;&#9;&#9;&#9;&#9;&#9;&#9;&#9;&#9;c0.2-0.3,0.1-0.7-0.2-0.9L271.1,42.7z" style="fill: rgb(84, 84, 84);"/>
						</g><g class="st2" transform="matrix(1, 0, 0, 1, 2.842170943040401e-14, 0)" style="opacity: 0.07; clip-path: url('#SVGID_2_');">
				<path d="M1056.1,282.2l37.5-66.3c1.1-1.9,1.1-5.1-0.6-6l-20.5-11.6c-1.6-0.9-4,0.9-5.1,2.8l-3.5,6.1l-0.9-0.5&#10;&#9;&#9;&#9;&#9;&#9;c-1.6-0.9-3.9-1.1-5.3,1.3l-27,47.6c-1.3,2.3-0.9,5.8,0.7,6.8l0.9,0.5l-2.6,4.5c-1.1,1.9-0.9,3.9,0.8,4.8l20.5,11.6&#10;&#9;&#9;&#9;&#9;&#9;C1052.8,284.8,1055,284.1,1056.1,282.2z"/>
			</g><g transform="matrix(1, 0, 0, 1, 2.842170943040401e-14, 0)" style="clip-path: url('#SVGID_2_');">
					<g>
						<path class="st16" d="M1095.8,226.5c2.8-5,0.7-10.2-1-12.7c-0.6-0.9-1.4-2.9-7.5-6.4c-6.4-3.6-8.1-3.3-10-3.5&#10;&#9;&#9;&#9;&#9;&#9;&#9;&#9;c-4-0.5-8.6,0.7-11.4,5.7l-29.6,52.3c-2.8,5-2.4,10.6,1,12.6l17.6,9.9c3.4,1.9,8.5-0.6,11.3-5.6L1095.8,226.5z" style="fill: rgb(87, 100, 147);"/>
					</g>
				</g><g transform="matrix(1, 0, 0, 1, 2.842170943040401e-14, 0)" style="clip-path: url('#SVGID_2_');">
						<path class="st10" d="M1064.5,273.4c-1.7-0.1-5.1-0.1-12.1-4.1c-0.1-0.1-0.3-0.2-0.4-0.2c-0.1-0.1-0.3-0.2-0.4-0.2&#10;&#9;&#9;&#9;&#9;&#9;&#9;&#9;c-7-4-8.9-7-9.8-8.3c-0.8-1.1-1.5-2.3-0.8-3.5l0.9-1.6l16.6-29.3l0.9-1.6c0.7-1.3,2.1-1.3,3.5-1.1c1.7,0.1,5.2,0.1,12.2,4.1&#10;&#9;&#9;&#9;&#9;&#9;&#9;&#9;c0.1,0.1,0.3,0.2,0.4,0.2c0.1,0.1,0.3,0.2,0.4,0.2c7,4,8.8,6.9,9.8,8.3c0.8,1.1,1.5,2.2,0.7,3.5l-0.9,1.6l-16.6,29.3l-0.9,1.6&#10;&#9;&#9;&#9;&#9;&#9;&#9;&#9;C1067.1,273.5,1065.8,273.5,1064.5,273.4z" style="fill: rgb(84, 84, 84);"/>
					</g><g transform="matrix(1, 0, 0, 1, 2.842170943040401e-14, 0)" style="clip-path: url('#SVGID_2_');">
						<path class="st16" d="M1066.2,263.5c-1.1-0.3-3.5-0.7-8.7-3.6c-0.1-0.1-0.2-0.1-0.3-0.2c-0.1-0.1-0.2-0.1-0.3-0.2&#10;&#9;&#9;&#9;&#9;&#9;&#9;&#9;c-5.2-3-6.8-4.7-7.6-5.6c-0.7-0.7-1.3-1.4-0.9-1.9l0.4-0.8l7.6-13.4l0.4-0.8c0.3-0.6,1.2-0.4,2.2-0.2c1.1,0.3,3.5,0.7,8.7,3.7&#10;&#9;&#9;&#9;&#9;&#9;&#9;&#9;c0.1,0.1,0.2,0.1,0.3,0.2c0.1,0.1,0.2,0.1,0.3,0.2c5.2,3,6.8,4.7,7.6,5.6c0.7,0.7,1.2,1.3,0.9,1.9l-0.4,0.8l-7.6,13.4&#10;&#9;&#9;&#9;&#9;&#9;&#9;&#9;l-0.4,0.8C1067.9,263.8,1067.1,263.7,1066.2,263.5z" style="fill: rgb(87, 100, 147);"/>
					</g><g transform="matrix(1, 0, 0, 1, 2.842170943040401e-14, 0)" style="clip-path: url('#SVGID_2_');">
						<path class="st17" d="M1058.5,284.6c0.7-1.3,0.4-2.9-0.7-3.5l-18.9-10.7c-1.1-0.6-2.7-0.1-3.4,1.2l-0.1,0.2&#10;&#9;&#9;&#9;&#9;&#9;&#9;&#9;c-0.7,1.3-0.4,2.9,0.7,3.5L1055,286c1.1,0.6,2.7,0.1,3.4-1.2L1058.5,284.6z" style="fill: rgb(75, 89, 127);"/>
					</g><g transform="matrix(1, 0, 0, 1, 2.842170943040401e-14, 0)" style="clip-path: url('#SVGID_2_');">
						<g>
							<path class="st16" d="M1048.9,251.7c-4.5,4.5-9,6.5-9.1,6.5l0.4,1.4c0.2-0.1,4.9-2.1,9.6-6.9L1048.9,251.7z" style="fill: rgb(87, 100, 147);"/>
						</g>
					</g><g transform="matrix(1, 0, 0, 1, 2.842170943040401e-14, 0)" style="clip-path: url('#SVGID_2_');">
							<path class="st16" d="M1068.3,262.7l-1.3-0.2c-1.6,6.5-1,11.5-0.9,11.7l1.4-0.4l0,0l0,0&#10;&#9;&#9;&#9;&#9;&#9;&#9;&#9;&#9;C1067.4,273.8,1066.8,268.9,1068.3,262.7z" style="fill: rgb(87, 100, 147);"/>
						</g><g transform="matrix(1, 0, 0, 1, 2.842170943040401e-14, 0)" style="clip-path: url('#SVGID_2_');">
							<path class="st16" d="M1061.4,222.2l-1.4,0.1c0,0.1-0.1,6.4-2.8,14.6l1.3,0.4C1061.3,228.8,1061.4,222.5,1061.4,222.2z" style="fill: rgb(87, 100, 147);"/>
						</g><g transform="matrix(1, 0, 0, 1, 2.842170943040401e-14, 0)" style="clip-path: url('#SVGID_2_');">
							<path class="st16" d="M1087.2,236.8c-0.2,0.1-5.6,3.5-11.5,10.3l1,0.9c5.7-6.6,11-9.9,11.1-9.9L1087.2,236.8z" style="fill: rgb(87, 100, 147);"/>
						</g><g transform="matrix(1, 0, 0, 1, 2.842170943040401e-14, 0)" style="clip-path: url('#SVGID_2_');">
						<g>
							<path class="st14" d="M1095,214.1c0,0-3.8,6.1,2,9.5C1096.9,223.6,1098.8,219.7,1095,214.1z" style="fill: rgb(255, 230, 151);"/>
						</g>
					</g><g transform="matrix(1, 0, 0, 1, 2.842170943040401e-14, 0)" style="clip-path: url('#SVGID_2_');">
							<path class="st14" d="M1076.8,203.8c0,0-3.2,6.6-9.1,3.3C1067.6,207.1,1070,203.4,1076.8,203.8z" style="fill: rgb(255, 230, 151);"/>
						</g><g transform="matrix(1, 0, 0, 1, 2.842170943040401e-14, 0)" style="clip-path: url('#SVGID_2_');">
						<g>
							<path class="st17" d="M1075.9,212c0.2-0.4,0.1-0.8-0.2-1l0,0c-0.3-0.2-0.7,0-0.9,0.3l-5,8.9c-0.2,0.4-0.1,0.8,0.2,1l0,0&#10;&#9;&#9;&#9;&#9;&#9;&#9;&#9;&#9;c0.3,0.2,0.7,0,0.9-0.3L1075.9,212z" style="fill: rgb(75, 89, 127);"/>
						</g>
					</g><g transform="matrix(1, 0, 0, 1, 2.842170943040401e-14, 0)" style="clip-path: url('#SVGID_2_');">
							<path class="st17" d="M1089.5,219.8c0.2-0.4,0.1-0.8-0.2-1l0,0c-0.3-0.2-0.7,0-0.9,0.3l-5,8.9c-0.2,0.4-0.1,0.8,0.2,1l0,0&#10;&#9;&#9;&#9;&#9;&#9;&#9;&#9;&#9;c0.3,0.2,0.7,0,0.9-0.3L1089.5,219.8z" style="fill: rgb(75, 89, 127);"/>
						</g><g class="st2" transform="matrix(1, 0, 0, 1, 2.842170943040401e-14, 0)" style="opacity: 0.07; clip-path: url('#SVGID_2_');">
				<path d="M1036.3,551.1l-31.2,56c-0.9,1.6-0.2,3.4,1.5,4.4l20.5,11.4c1.6,0.9,2.4-0.1,3.3-1.7l2.4-4.3l1.8,1&#10;&#9;&#9;&#9;&#9;&#9;c1.6,0.9,3.5-0.2,4.6-2.1l22.4-40.2c1.1-2,1.4-4.8-0.3-5.7l-1.8-1l2-3.7c0.9-1.6,1.2-2.6-0.5-3.5l-20.5-11.4&#10;&#9;&#9;&#9;&#9;&#9;C1039,549.4,1037.2,549.5,1036.3,551.1z"/>
			</g><g transform="matrix(1, 0, 0, 1, 2.842170943040401e-14, 0)" style="clip-path: url('#SVGID_2_');">
					<g>
						<path class="st13" d="M1025.4,554.5c2.7-4.8,8-5.6,10.8-5.5c1,0,3.1-0.3,9,2.9c6.1,3.4,6.6,5,7.8,6.4c2.3,3,3.6,7.3,1,12.1&#10;&#9;&#9;&#9;&#9;&#9;&#9;&#9;l-24.3,43.7c-2.7,4.8-7.5,7.3-10.7,5.5l-16.8-9.3c-3.3-1.8-3.7-7.3-1.1-12L1025.4,554.5z" style="fill: rgb(237, 105, 105);"/>
					</g>
				</g><g transform="matrix(1, 0, 0, 1, 2.842170943040401e-14, 0)" style="clip-path: url('#SVGID_2_');">
						<path class="st10" d="M1002.7,603.4c0.9,1.3,2.6,4.1,9.3,7.8c0.1,0.1,0.3,0.1,0.4,0.2c0.1,0.1,0.3,0.1,0.4,0.2&#10;&#9;&#9;&#9;&#9;&#9;&#9;&#9;c6.7,3.7,10,3.8,11.6,3.8c1.3,0.1,2.6,0.1,3.3-1.1l0.9-1.6l15.7-28.1l0.9-1.6c0.7-1.2,0-2.4-0.8-3.4c-0.9-1.3-2.6-4.1-9.4-7.9&#10;&#9;&#9;&#9;&#9;&#9;&#9;&#9;c-0.1-0.1-0.3-0.2-0.4-0.2c-0.1-0.1-0.3-0.2-0.4-0.2c-6.7-3.7-10-3.7-11.6-3.8c-1.3-0.1-2.5-0.1-3.2,1.2l-0.9,1.6l-15.7,28.1&#10;&#9;&#9;&#9;&#9;&#9;&#9;&#9;l-0.9,1.6C1001.3,601.3,1001.9,602.4,1002.7,603.4z" style="fill: rgb(84, 84, 84);"/>
					</g><g transform="matrix(1, 0, 0, 1, 2.842170943040401e-14, 0)" style="clip-path: url('#SVGID_2_');">
						<path class="st13" d="M1009.9,597.1c0.8,0.8,2.3,2.5,7.2,5.2c0.1,0.1,0.2,0.1,0.3,0.2c0.1,0.1,0.2,0.1,0.3,0.2&#10;&#9;&#9;&#9;&#9;&#9;&#9;&#9;c5,2.8,7.2,3.2,8.3,3.4c0.9,0.2,1.7,0.4,2-0.2l0.4-0.7l7.2-12.9l0.4-0.7c0.3-0.6-0.3-1.2-0.9-1.9c-0.8-0.8-2.3-2.5-7.3-5.3&#10;&#9;&#9;&#9;&#9;&#9;&#9;&#9;c-0.1-0.1-0.2-0.1-0.3-0.2c-0.1-0.1-0.2-0.1-0.3-0.2c-5-2.8-7.2-3.2-8.3-3.4c-0.9-0.2-1.7-0.3-2,0.2l-0.4,0.7l-7.2,12.9&#10;&#9;&#9;&#9;&#9;&#9;&#9;&#9;l-0.4,0.7C1008.8,595.8,1009.3,596.5,1009.9,597.1z" style="fill: rgb(237, 105, 105);"/>
					</g><g transform="matrix(1, 0, 0, 1, 2.842170943040401e-14, 0)" style="clip-path: url('#SVGID_2_');">
						<g>
							<path class="st13" d="M1028.1,605.3c-1.5,5.9-0.8,10.6-0.8,10.6l-1.3,0.4c0-0.2-0.7-5,0.9-11.2L1028.1,605.3z" style="fill: rgb(237, 105, 105);"/>
						</g>
					</g><g transform="matrix(1, 0, 0, 1, 2.842170943040401e-14, 0)" style="clip-path: url('#SVGID_2_');">
							<path class="st13" d="M1009.5,595l0.9,1c-4.5,4.6-8.9,6.5-9.1,6.6l-0.4-1.3l0,0l0,0C1000.9,601.2,1005.3,599.3,1009.5,595z" style="fill: rgb(237, 105, 105);"/>
						</g><g transform="matrix(1, 0, 0, 1, 2.842170943040401e-14, 0)" style="clip-path: url('#SVGID_2_');">
							<path class="st13" d="M1045.9,580.3l0.6,1.2c-0.1,0-5.1,3.2-10.5,9.6l-0.9-0.9C1040.6,583.7,1045.7,580.5,1045.9,580.3z" style="fill: rgb(237, 105, 105);"/>
						</g><g transform="matrix(1, 0, 0, 1, 2.842170943040401e-14, 0)" style="clip-path: url('#SVGID_2_');">
							<path class="st13" d="M1021.3,566.7c0,0.3-0.1,6.3-2.7,14.5l-1.2-0.3c2.6-7.9,2.6-13.9,2.6-14L1021.3,566.7z" style="fill: rgb(237, 105, 105);"/>
						</g><g transform="matrix(1, 0, 0, 1, 2.842170943040401e-14, 0)" style="clip-path: url('#SVGID_2_');">
						<g>
							<path class="st14" d="M1036,549c0,0-3.1,6.2-8.7,3.1C1027.2,552.1,1029.5,548.7,1036,549z" style="fill: rgb(255, 230, 151);"/>
						</g>
					</g><g transform="matrix(1, 0, 0, 1, 2.842170943040401e-14, 0)" style="clip-path: url('#SVGID_2_');">
							<path class="st14" d="M1053.3,558.6c0,0-3.8,5.9,1.8,9.1C1055.1,567.7,1057,564,1053.3,558.6z" style="fill: rgb(255, 230, 151);"/>
						</g><g transform="matrix(1, 0, 0, 1, 2.842170943040401e-14, 0)" style="clip-path: url('#SVGID_2_');">
						<g>
							<path class="st15" d="M1047,563.5c0.2-0.3,0.6-0.5,0.9-0.3l0,0c0.3,0.2,0.4,0.6,0.2,0.9l-4.8,8.5c-0.2,0.3-0.6,0.5-0.9,0.3&#10;&#9;&#9;&#9;&#9;&#9;&#9;&#9;&#9;l0,0c-0.3-0.2-0.4-0.6-0.2-0.9L1047,563.5z" style="fill: rgb(219, 93, 93);"/>
						</g>
					</g><g transform="matrix(1, 0, 0, 1, 2.842170943040401e-14, 0)" style="clip-path: url('#SVGID_2_');">
							<path class="st15" d="M1034,556.2c0.2-0.3,0.6-0.5,0.9-0.3l0,0c0.3,0.2,0.4,0.6,0.2,0.9l-4.8,8.5c-0.2,0.3-0.6,0.5-0.9,0.3&#10;&#9;&#9;&#9;&#9;&#9;&#9;&#9;&#9;l0,0c-0.3-0.2-0.4-0.6-0.2-0.9L1034,556.2z" style="fill: rgb(219, 93, 93);"/>
						</g><g class="st2" transform="matrix(1, 0, 0, 1, 2.842170943040401e-14, 0)" style="opacity: 0.07; clip-path: url('#SVGID_2_');">
				<path d="M832.3,707l-25.9,58.6c-0.7,1.7,1,3.9,2.7,4.7l21.5,9.5c1.7,0.8,3.4,0.1,4.2-1.6l2-4.4l0.9,0.4c1.7,0.8,4.5-0.1,5.4-2.2&#10;&#9;&#9;&#9;&#9;&#9;l18.6-42.1c0.9-2.1-0.1-5.2-1.8-6l-0.9-0.4l1.7-3.9c0.7-1.7,0-3-1.8-3.8l-21.5-9.5C835.7,705.5,833.1,705.3,832.3,707z"/>
			</g><g transform="matrix(1, 0, 0, 1, 2.842170943040401e-14, 0)" style="clip-path: url('#SVGID_2_');">
					<g>
						<path class="st18" d="M823.7,711.8c2.2-5,7.5-6.4,10.3-6.5c1,0,3-0.6,9.2,2.1c6.4,2.8,7.1,4.3,8.3,5.7c2.6,2.8,4.3,7,2.1,11.9&#10;&#9;&#9;&#9;&#9;&#9;&#9;&#9;l-20.2,45.7c-2.2,5-6.8,7.9-10.2,6.4l-17.6-7.8c-3.4-1.5-4.4-6.9-2.2-11.9L823.7,711.8z" style="fill: rgb(233, 233, 244);"/>
					</g>
				</g><g transform="matrix(1, 0, 0, 1, 2.842170943040401e-14, 0)" style="clip-path: url('#SVGID_2_');">
						<path class="st10" d="M805.5,762.6c1,1.2,3,3.9,10,7c0.1,0.1,0.3,0.1,0.4,0.2c0.1,0.1,0.3,0.1,0.4,0.2&#10;&#9;&#9;&#9;&#9;&#9;&#9;&#9;c7,3.1,10.3,2.8,11.9,2.7c1.3,0,2.6-0.1,3.2-1.4l0.7-1.6l13-29.4l0.7-1.6c0.6-1.3-0.2-2.3-1.1-3.3c-1-1.2-3-3.9-10-7&#10;&#9;&#9;&#9;&#9;&#9;&#9;&#9;c-0.1-0.1-0.3-0.1-0.4-0.2c-0.1-0.1-0.3-0.1-0.4-0.2c-7-3.1-10.3-2.8-11.9-2.7c-1.3,0-2.5,0.2-3.1,1.4l-0.7,1.6l-13,29.4&#10;&#9;&#9;&#9;&#9;&#9;&#9;&#9;l-0.7,1.6C804,760.6,804.7,761.7,805.5,762.6z" style="fill: rgb(84, 84, 84);"/>
					</g><g transform="matrix(1, 0, 0, 1, 2.842170943040401e-14, 0)" style="clip-path: url('#SVGID_2_');">
						<path class="st18" d="M812.2,755.6c0.8,0.7,2.5,2.3,7.7,4.6c0.1,0,0.2,0.1,0.3,0.1c0.1,0,0.2,0.1,0.3,0.1&#10;&#9;&#9;&#9;&#9;&#9;&#9;&#9;c5.2,2.3,7.5,2.5,8.6,2.6c0.9,0.1,1.8,0.2,2-0.4l0.3-0.8l6-13.5l0.3-0.8c0.3-0.6-0.4-1.2-1.1-1.8c-0.8-0.7-2.5-2.3-7.7-4.6&#10;&#9;&#9;&#9;&#9;&#9;&#9;&#9;c-0.1,0-0.2-0.1-0.3-0.1c-0.1,0-0.2-0.1-0.3-0.1c-5.2-2.3-7.4-2.5-8.5-2.6c-0.9-0.1-1.7-0.2-2,0.4l-0.3,0.8l-6,13.5l-0.3,0.8&#10;&#9;&#9;&#9;&#9;&#9;&#9;&#9;C810.9,754.5,811.5,755.1,812.2,755.6z" style="fill: rgb(233, 233, 244);"/>
					</g><g transform="matrix(1, 0, 0, 1, 2.842170943040401e-14, 0)" style="clip-path: url('#SVGID_2_');">
						<g>
							<path class="st18" d="M831,762.2c-0.9,6,0.2,10.6,0.2,10.7l-1.3,0.5c0-0.2-1.1-4.9-0.2-11.3L831,762.2z" style="fill: rgb(233, 233, 244);"/>
						</g>
					</g><g transform="matrix(1, 0, 0, 1, 2.842170943040401e-14, 0)" style="clip-path: url('#SVGID_2_');">
							<path class="st18" d="M811.5,753.6l0.9,0.9c-4,5-8.3,7.3-8.4,7.4l-0.5-1.3l0,0l0,0C803.6,760.6,807.7,758.3,811.5,753.6z" style="fill: rgb(233, 233, 244);"/>
						</g><g transform="matrix(1, 0, 0, 1, 2.842170943040401e-14, 0)" style="clip-path: url('#SVGID_2_');">
							<path class="st18" d="M846.4,735.7l0.7,1.2c0,0-4.8,3.7-9.6,10.5l-1-0.8C841.4,739.5,846.2,735.8,846.4,735.7z" style="fill: rgb(233, 233, 244);"/>
						</g><g transform="matrix(1, 0, 0, 1, 2.842170943040401e-14, 0)" style="clip-path: url('#SVGID_2_');">
							<path class="st18" d="M820.7,724.3c0,0.3,0.5,6.3-1.4,14.7l-1.3-0.2c1.8-8.1,1.3-14.1,1.3-14.2L820.7,724.3z" style="fill: rgb(233, 233, 244);"/>
						</g><g transform="matrix(1, 0, 0, 1, 2.842170943040401e-14, 0)" style="clip-path: url('#SVGID_2_');">
						<g>
							<path class="st19" d="M833.7,705.3c0,0-2.5,6.4-8.4,3.9C825.2,709.3,827.2,705.6,833.7,705.3z" style="fill: rgb(255, 230, 120);"/>
						</g>
					</g><g transform="matrix(1, 0, 0, 1, 2.842170943040401e-14, 0)" style="clip-path: url('#SVGID_2_');">
							<path class="st19" d="M851.8,713.4c0,0-3.2,6.2,2.6,8.9C854.4,722.3,856,718.3,851.8,713.4z" style="fill: rgb(255, 230, 120);"/>
						</g><g transform="matrix(1, 0, 0, 1, 2.842170943040401e-14, 0)" style="opacity: 0.1; clip-path: url('#SVGID_2_');">
						<g>
							<path class="st10" d="M846,718.8c0.2-0.4,0.5-0.5,0.9-0.4l0,0c0.3,0.1,0.4,0.5,0.3,0.9l-4,8.9c-0.2,0.4-0.5,0.5-0.9,0.4l0,0&#10;&#9;&#9;&#9;&#9;&#9;&#9;&#9;&#9;c-0.3-0.1-0.4-0.5-0.3-0.9L846,718.8z" style="fill: rgb(84, 84, 84);"/>
						</g>
					</g><g transform="matrix(1, 0, 0, 1, 2.842170943040401e-14, 0)" style="opacity: 0.1; clip-path: url('#SVGID_2_');">
							<path class="st10" d="M832.4,712.8c0.2-0.4,0.5-0.5,0.9-0.4l0,0c0.3,0.1,0.4,0.5,0.3,0.9l-4,8.9c-0.2,0.4-0.5,0.5-0.9,0.4&#10;&#9;&#9;&#9;&#9;&#9;&#9;&#9;&#9;l0,0c-0.3-0.1-0.4-0.5-0.3-0.9L832.4,712.8z" style="fill: rgb(84, 84, 84);"/>
						</g><g class="st2" transform="matrix(1, 0, 0, 1, 2.842170943040401e-14, 0)" style="opacity: 0.07; clip-path: url('#SVGID_2_');">
				<path d="M129,825.1l61-19.8c1.8-0.6,2.1-2.5,1.6-4.3l-7.3-22.4c-0.6-1.8-2.1-3.4-3.9-2.8l-4.9,1.6l-0.1-0.2&#10;&#9;&#9;&#9;&#9;&#9;c-0.6-1.8-3-4-5.1-3.3l-43.8,14.2c-2.2,0.7-2.1,3.7-1.5,5.5l0.1,0.2l-5.6,1.8c-1.8,0.6-1.4,2.5-0.8,4.3l7.3,22.4&#10;&#9;&#9;&#9;&#9;&#9;C126.5,824.1,127.3,825.7,129,825.1z"/>
			</g><g transform="matrix(1, 0, 0, 1, 2.842170943040401e-14, 0)" style="clip-path: url('#SVGID_2_');">
					<g>
						<path class="st9" d="M184.6,814.1c5.2-1.7,7.1-6.8,7.5-9.6c0.1-1,0.9-3-1.1-9.4c-2.2-6.7-3.6-7.5-4.8-8.9&#10;&#9;&#9;&#9;&#9;&#9;&#9;&#9;c-2.5-2.9-6.5-5-11.7-3.3L127,798.4c-5.2,1.7-8.6,5.9-7.4,9.5l5.9,18.3c1.2,3.5,6.4,5,11.6,3.4L184.6,814.1z" style="fill: rgb(237, 222, 138);"/>
					</g>
				</g><g transform="matrix(1, 0, 0, 1, 2.842170943040401e-14, 0)" style="clip-path: url('#SVGID_2_');">
						<path class="st10" d="M132.3,826.9c-1.1-1.1-3.5-3.4-5.9-10.7c0-0.1-0.1-0.3-0.1-0.4c0-0.1-0.1-0.3-0.1-0.4&#10;&#9;&#9;&#9;&#9;&#9;&#9;&#9;c-2.4-7.3-1.7-10.6-1.5-12.2c0.1-1.3,0.4-2.6,1.7-3l1.7-0.6l30.6-9.9l1.7-0.6c1.3-0.4,2.3,0.5,3.2,1.4&#10;&#9;&#9;&#9;&#9;&#9;&#9;&#9;c1.1,1.1,3.5,3.4,5.9,10.7c0,0.1,0.1,0.3,0.1,0.4c0,0.1,0.1,0.3,0.1,0.4c2.4,7.3,1.7,10.5,1.5,12.1c-0.1,1.3-0.4,2.5-1.8,2.9&#10;&#9;&#9;&#9;&#9;&#9;&#9;&#9;l-1.7,0.6l-30.6,9.9l-1.7,0.6C134.1,828.7,133.1,827.9,132.3,826.9z" style="fill: rgb(84, 84, 84);"/>
					</g><g transform="matrix(1, 0, 0, 1, 2.842170943040401e-14, 0)" style="clip-path: url('#SVGID_2_');">
						<path class="st9" d="M139.9,821.1c-0.6-0.9-2-2.7-3.8-8.1c0-0.1-0.1-0.2-0.1-0.3c0-0.1-0.1-0.2-0.1-0.3&#10;&#9;&#9;&#9;&#9;&#9;&#9;&#9;c-1.8-5.4-1.7-7.7-1.7-8.8c0-0.9,0-1.8,0.6-2l0.8-0.3l14-4.6l0.8-0.3c0.6-0.2,1.2,0.5,1.6,1.2c0.6,0.9,2,2.7,3.8,8.1&#10;&#9;&#9;&#9;&#9;&#9;&#9;&#9;c0,0.1,0.1,0.2,0.1,0.3c0,0.1,0.1,0.2,0.1,0.3c1.8,5.4,1.7,7.6,1.7,8.8c0,0.9,0,1.7-0.6,1.9l-0.8,0.3l-14,4.6l-0.8,0.3&#10;&#9;&#9;&#9;&#9;&#9;&#9;&#9;C140.9,822.5,140.4,821.8,139.9,821.1z" style="fill: rgb(237, 222, 138);"/>
					</g><g transform="matrix(1, 0, 0, 1, 2.842170943040401e-14, 0)" style="clip-path: url('#SVGID_2_');">
						<g>
							<path class="st9" d="M135.3,801.7c-6.1,0.3-10.6-1.2-10.6-1.2l-0.6,1.2c0.2,0.1,4.8,1.6,11.2,1.3L135.3,801.7z" style="fill: rgb(237, 222, 138);"/>
						</g>
					</g><g transform="matrix(1, 0, 0, 1, 2.842170943040401e-14, 0)" style="clip-path: url('#SVGID_2_');">
							<path class="st9" d="M141.9,821.9l-0.8-1c-5.3,3.5-8.1,7.5-8.3,7.6l1.2,0.6l0,0l0,0C134.1,829.1,136.8,825.2,141.9,821.9z" style="fill: rgb(237, 222, 138);"/>
						</g><g transform="matrix(1, 0, 0, 1, 2.842170943040401e-14, 0)" style="clip-path: url('#SVGID_2_');">
							<path class="st9" d="M163.2,789l-1.1-0.8c0,0-4.2,4.4-11.5,8.5l0.7,1.1C158.9,793.6,163,789.2,163.2,789z" style="fill: rgb(237, 222, 138);"/>
						</g><g transform="matrix(1, 0, 0, 1, 2.842170943040401e-14, 0)" style="clip-path: url('#SVGID_2_');">
							<path class="st9" d="M171.9,815.7c-0.3,0-6.2-1.2-14.7-0.1l0.1,1.3c8.3-1,14.2,0.1,14.2,0.1L171.9,815.7z" style="fill: rgb(237, 222, 138);"/>
						</g><g transform="matrix(1, 0, 0, 1, 2.842170943040401e-14, 0)" style="clip-path: url('#SVGID_2_');">
						<g>
							<path class="st11" d="M192.1,804.8c0,0-6.7,1.9-4.8,8C187.3,812.8,191.2,811.2,192.1,804.8z" style="fill: rgb(255, 191, 151);"/>
						</g>
					</g><g transform="matrix(1, 0, 0, 1, 2.842170943040401e-14, 0)" style="clip-path: url('#SVGID_2_');">
							<path class="st11" d="M186,785.9c0,0-6.5,2.5-8.6-3.5C177.4,782.4,181.4,781.3,186,785.9z" style="fill: rgb(255, 191, 151);"/>
						</g><g transform="matrix(1, 0, 0, 1, 2.842170943040401e-14, 0)" style="opacity: 0.1; clip-path: url('#SVGID_2_');">
						<g>
							<path class="st10" d="M180,791.1c0.4-0.1,0.6-0.5,0.5-0.8l0,0c-0.1-0.3-0.5-0.5-0.9-0.4l-9.3,3c-0.4,0.1-0.6,0.5-0.5,0.8l0,0&#10;&#9;&#9;&#9;&#9;&#9;&#9;&#9;&#9;c0.1,0.3,0.5,0.5,0.9,0.4L180,791.1z" style="fill: rgb(84, 84, 84);"/>
						</g>
					</g><g transform="matrix(1, 0, 0, 1, 2.842170943040401e-14, 0)" style="opacity: 0.1; clip-path: url('#SVGID_2_');">
							<path class="st10" d="M184.6,805.3c0.4-0.1,0.6-0.5,0.5-0.8l0,0c-0.1-0.3-0.5-0.5-0.9-0.4l-9.3,3c-0.4,0.1-0.6,0.5-0.5,0.8&#10;&#9;&#9;&#9;&#9;&#9;&#9;&#9;&#9;l0,0c0.1,0.3,0.5,0.5,0.9,0.4L184.6,805.3z" style="fill: rgb(84, 84, 84);"/>
						</g><g class="st2" transform="matrix(1, 0, 0, 1, 2.842170943040401e-14, 0)" style="opacity: 0.07; clip-path: url('#SVGID_2_');">
				<path d="M693.7,627l70.6-28.6c2-0.8,4-3.3,3.3-5.1l-8.8-21.8c-0.7-1.7-3.7-1.8-5.7-0.9l-6.5,2.6l-0.4-1&#10;&#9;&#9;&#9;&#9;&#9;c-0.7-1.7-2.4-3.3-4.9-2.3l-50.7,20.6c-2.5,1-4.4,4-3.7,5.7l0.4,1l-4.8,1.9c-2,0.8-3.1,2.5-2.4,4.2l8.8,21.8&#10;&#9;&#9;&#9;&#9;&#9;C689.6,627,691.7,627.8,693.7,627z"/>
			</g><g transform="matrix(1, 0, 0, 1, 2.842170943040401e-14, 0)" style="clip-path: url('#SVGID_2_');">
					<g>
						<path class="st16" d="M759.5,608.1c5.3-2.1,6.9-7.6,7.1-10.6c0.1-1.1,0.8-3.2-1.9-9.7c-2.8-6.8-4.3-7.6-5.7-8.9&#10;&#9;&#9;&#9;&#9;&#9;&#9;&#9;c-2.8-2.8-7.1-4.7-12.4-2.6l-55.7,22.6c-5.3,2.1-8.5,6.8-7,10.5l7.6,18.7c1.5,3.6,7.1,4.8,12.3,2.7L759.5,608.1z" style="fill: rgb(87, 100, 147);"/>
					</g>
				</g><g transform="matrix(1, 0, 0, 1, 2.842170943040401e-14, 0)" style="clip-path: url('#SVGID_2_');">
						<path class="st10" d="M705.8,625.3c-1.3-1.1-3.9-3.3-7-10.8c-0.1-0.2-0.1-0.3-0.2-0.4c-0.1-0.1-0.1-0.3-0.2-0.4&#10;&#9;&#9;&#9;&#9;&#9;&#9;&#9;c-3-7.5-2.6-11-2.5-12.6c0-1.3,0.2-2.7,1.6-3.3l1.7-0.7l31.2-12.6l1.7-0.7c1.4-0.6,2.5,0.3,3.4,1.3c1.3,1.1,4,3.3,7,10.8&#10;&#9;&#9;&#9;&#9;&#9;&#9;&#9;c0.1,0.1,0.1,0.3,0.2,0.5c0.1,0.1,0.1,0.3,0.2,0.4c3,7.5,2.6,10.9,2.5,12.6c0,1.3-0.2,2.7-1.6,3.2l-1.7,0.7l-31.2,12.7&#10;&#9;&#9;&#9;&#9;&#9;&#9;&#9;l-1.7,0.7C707.8,627.1,706.8,626.2,705.8,625.3z" style="fill: rgb(84, 84, 84);"/>
					</g><g transform="matrix(1, 0, 0, 1, 2.842170943040401e-14, 0)" style="clip-path: url('#SVGID_2_');">
						<path class="st16" d="M713.3,618.6c-0.7-0.9-2.3-2.7-4.5-8.2c0-0.1-0.1-0.2-0.1-0.3c0-0.1-0.1-0.2-0.1-0.3&#10;&#9;&#9;&#9;&#9;&#9;&#9;&#9;c-2.3-5.6-2.4-7.9-2.5-9.1c-0.1-0.9-0.2-1.9,0.5-2.1l0.8-0.3l14.3-5.8l0.8-0.3c0.6-0.3,1.2,0.4,1.8,1.2&#10;&#9;&#9;&#9;&#9;&#9;&#9;&#9;c0.7,0.9,2.3,2.7,4.6,8.3c0,0.1,0.1,0.2,0.1,0.3c0,0.1,0.1,0.2,0.1,0.3c2.3,5.6,2.4,7.9,2.5,9.1c0.1,0.9,0.1,1.8-0.5,2.1&#10;&#9;&#9;&#9;&#9;&#9;&#9;&#9;l-0.8,0.3l-14.3,5.8l-0.8,0.3C714.5,620,713.9,619.4,713.3,618.6z" style="fill: rgb(87, 100, 147);"/>
					</g><g transform="matrix(1, 0, 0, 1, 2.842170943040401e-14, 0)" style="clip-path: url('#SVGID_2_');">
						<path class="st17" d="M694.2,630.4c1.4-0.6,2.1-2,1.6-3.2l-8.2-20.2c-0.5-1.2-2-1.7-3.4-1.2l-0.2,0.1c-1.4,0.6-2.1,2-1.6,3.2&#10;&#9;&#9;&#9;&#9;&#9;&#9;&#9;l8.2,20.2c0.5,1.2,2,1.7,3.4,1.2L694.2,630.4z" style="fill: rgb(75, 89, 127);"/>
					</g><g transform="matrix(1, 0, 0, 1, 2.842170943040401e-14, 0)" style="clip-path: url('#SVGID_2_');">
						<g>
							<path class="st16" d="M707,598.6c-6.3,0.8-11.1-0.5-11.2-0.5l-0.5,1.3c0.2,0.1,5.1,1.4,11.8,0.6L707,598.6z" style="fill: rgb(87, 100, 147);"/>
						</g>
					</g><g transform="matrix(1, 0, 0, 1, 2.842170943040401e-14, 0)" style="clip-path: url('#SVGID_2_');">
							<path class="st16" d="M715.5,619.4l-0.9-1c-5.3,4.1-7.9,8.4-8,8.6l1.3,0.6l0,0l0,0C707.9,627.4,710.4,623.2,715.5,619.4z" style="fill: rgb(87, 100, 147);"/>
						</g><g transform="matrix(1, 0, 0, 1, 2.842170943040401e-14, 0)" style="clip-path: url('#SVGID_2_');">
							<path class="st16" d="M735.2,583.3l-1.2-0.8c0,0-4,4.9-11.3,9.7l0.8,1.1C731,588.4,735,583.5,735.2,583.3z" style="fill: rgb(87, 100, 147);"/>
						</g><g transform="matrix(1, 0, 0, 1, 2.842170943040401e-14, 0)" style="clip-path: url('#SVGID_2_');">
							<path class="st16" d="M746.3,610.7c-0.3,0-6.6-0.8-15.4,0.9l0.2,1.3c8.6-1.6,14.8-0.9,14.9-0.9L746.3,610.7z" style="fill: rgb(87, 100, 147);"/>
						</g><g transform="matrix(1, 0, 0, 1, 2.842170943040401e-14, 0)" style="clip-path: url('#SVGID_2_');">
						<g>
							<path class="st14" d="M766.6,597.8c0,0-6.8,2.4-4.4,8.7C762.2,606.5,766.1,604.6,766.6,597.8z" style="fill: rgb(255, 230, 151);"/>
						</g>
					</g><g transform="matrix(1, 0, 0, 1, 2.842170943040401e-14, 0)" style="clip-path: url('#SVGID_2_');">
							<path class="st14" d="M758.7,578.4c0,0-6.6,3.1-9.2-3.1C749.5,575.4,753.6,573.9,758.7,578.4z" style="fill: rgb(255, 230, 151);"/>
						</g><g transform="matrix(1, 0, 0, 1, 2.842170943040401e-14, 0)" style="clip-path: url('#SVGID_2_');">
						<g>
							<path class="st17" d="M752.9,584.3c0.4-0.2,0.6-0.6,0.4-0.9l0,0c-0.1-0.3-0.6-0.5-0.9-0.3l-9.5,3.8c-0.4,0.2-0.6,0.6-0.4,0.9&#10;&#9;&#9;&#9;&#9;&#9;&#9;&#9;&#9;l0,0c0.1,0.3,0.6,0.5,0.9,0.3L752.9,584.3z" style="fill: rgb(75, 89, 127);"/>
						</g>
					</g><g transform="matrix(1, 0, 0, 1, 2.842170943040401e-14, 0)" style="clip-path: url('#SVGID_2_');">
							<path class="st17" d="M758.8,598.9c0.4-0.2,0.6-0.6,0.4-0.9l0,0c-0.1-0.3-0.6-0.5-0.9-0.3l-9.5,3.8c-0.4,0.2-0.6,0.6-0.4,0.9&#10;&#9;&#9;&#9;&#9;&#9;&#9;&#9;&#9;l0,0c0.1,0.3,0.6,0.5,0.9,0.3L758.8,598.9z" style="fill: rgb(75, 89, 127);"/>
						</g>
</svg>