<?xml version="1.0" encoding="utf-8"?>
<svg id="master-artboard" viewBox="0 0 1960 502.4945983886719" version="1.1" xmlns="http://www.w3.org/2000/svg" x="0px" y="0px" width="1960px" height="502.4945983886719px" enable-background="new 0 0 550 385"><rect id="ee-background" x="0" y="0" width="1960" height="502.4945983886719" style="fill: white; fill-opacity: 0; pointer-events: none;"/>


<g transform="matrix(1.0279985666275024, 0, 0, 1.0279985666275024, -34.074737548828125, -720.194673538208)"><path id="Path_10" data-name="Path 10" class="cls-1" d="M0,1041.2l17.807,2.619,17.6-2.619,12.184-5.9,17.105-3.322H88.236v3.322h24V973.53h12.281v-5.864h26.84v5.864h10.729V1035.3H199.02v5.9H205.1v28.334h4.068v-46.07H236.6V992.425h9.369v-6.372H250.2v-5.77h12.859v5.77h6.1v4.213h8.412v5.319h5.93v-5.319h8.258v5.319h3.029v48.234h7.424v7.4h6.729V821.169h61.473v72.806l4.934-2.2V859.516l3.279-3.619V821.169h74.1v12.444h10.895l3.545,4.4h16.426v25.695h4.844l4.275-4.194h12.023v4.194h24.648v187.511h9.646v-36l5.143-3.559h4.6V934.976l5.451-6.592h8.688v6.592h4.641l-4.641,14.8h53.014V868.036h6.809v-4.326h11.486V848.372h35.289v15.339h3.818V848.372h3.715v-27.2h6.633V780.438h3.475V748.272L696.455,746h28.713v34.434h3.6v40.731h4.725V845.21h6.039v46.562h22.4v67.087h5.955v20.093l2.969,21.5h16.053v5.51h9.7l2.371,55.033,13.359,3.233H827.34l3.545-3.233V928.384h18.141v-4.217h13.693V905.474l12.387,2.209h8.436V868.036h76.375v114.2l5.5-5.766h12.369l5.328-2.227h6.8v-106.2h27.324V812.585h64.439v207.3h39.209v8.348h36.057V951.251h2.768V928.384h1.367l-1.367-27.3h2.319l-.952-22.054h4.988v-10.3h1.509v-5.195h3.1v-5.073h36.782l3.375,1.276v3.8h2.1v6.686h2.461v8.812h4.651l2.758,137.381H1235v-4.972h2.3v-2.767l2.437-2.856V973h27.682v-3.923h28.091V973h23.551v88.8h11.987l3.376-5.305h5.994l-1.113-41.415h27.908l2-2.777v-.871l5.72-4.36,4.843,3.252V930.356h9.168l3.19-6.672h11.627v1.189h24.569v-1.189h11.7l3.844,6.672h7.281v92.182h34.172V962.363h2.636V913.817h1.685V880.628h2.83v-9.087h54.477l1.7,10.387v42.945h44.9l-1.209,34.91h2.841v55.883h19.5l1.17,9.988h3.716l.865,23.095h3.873v-18.032h35.428v-5.063H1690.4v5.063h3.832V1067.3h21.821l1.534-112.425,14.748-6.292h31.17l16.018,6.292v74.54h30.04v26.378h14.863v14.078h22.7s.3-14.788,0-19.634,1.313-6.148,1.313-6.148v-6.435h8.387v-18.989l5.932-1.519V995.992l1.063-4.542,4.131,8.826v15.771l6.555,2.62v18.989h8.74v32.217h9.976v12.133h26.65v14.052L0,1096.292Z" transform="translate(32 -15)" style="fill: rgb(112, 110, 113);"/></g><g transform="matrix(20, 0, 0, 4.232264518737793, -1170.177490234375, 175.66483879089355)"><g id="g-1" transform="matrix(1, 0, 0, 1, 0, 0)">
	<g id="g-2">
		<path class="st0" d="M58,49h100v100H58V49z" style="fill: rgb(112, 110, 113);"/>
	</g>
</g></g></svg>