<?xml version="1.0" encoding="utf-8"?>
<svg id="master-artboard" viewBox="0 0 404.78643798828125 257.3122253417969" version="1.1" xmlns="http://www.w3.org/2000/svg" x="0px" y="0px" width="404.78643798828125px" height="257.3122253417969px" enable-background="new 0 0 550 385"><rect id="ee-background" x="0" y="0" width="404.78643798828125" height="257.3122253417969" style="fill: white; fill-opacity: 0; pointer-events: none;"/>
<path d="M 0 0 H 550 V 385 H 0 V 0 Z" id="color" fill="#FAFAFA" transform="matrix(0.7171165347099304, 0, 0, 0.7171165347099304, 8.941703796386719, -2.5036773681640625)" style="fill: rgb(255, 255, 255); fill-opacity: 0;"/>
<path id="grass" fill="#24BF75" d="M469.5,307.6h-389v-14.2h381.9c3.9,0,7.1,3.2,7.1,7.1V307.6z" transform="matrix(1, 0, 0, 1, -68.85125732421875, -60.71428298950195)"/><g transform="matrix(1, 0, 0, 1, -68.85125732421875, -60.71428298950195)">
			<path fill="#E6E7E8" d="M376.2,98.5c0-9.1,7.4-16.5,16.5-16.5s12.1,5,12.1,14.1c4.6,0,10.5,4.8,10.5,9.3c2.3,0,1.9,1.4,1.9,3.7&#10;&#9;&#9;&#9;&#9;c0,2.3-0.8,2.7-3.1,2.7l-38,0.4c-4.6,0-8.1-0.9-8.1-5.5C368,102.2,371.7,98.5,376.2,98.5z"/>
			<path fill="#414042" d="M413.5,113.5h-41.3c-5.4,0-9.8-4.4-9.8-9.8c0-4.9,3.6-9,8.3-9.7c0.7-9.3,8.5-16.6,18-16.6&#10;&#9;&#9;&#9;&#9;c9.5,0,17.3,7.3,18,16.6c4.3,0.6,7.6,4.1,8.2,8.3c2.4,0.6,4.2,2.9,4.2,5.5C419.2,111,416.6,113.5,413.5,113.5z M372.2,97&#10;&#9;&#9;&#9;&#9;c-3.7,0-6.7,3-6.7,6.7c0,3.7,3,6.7,6.7,6.7h41.3c1.4,0,2.6-1.2,2.6-2.6c0-1.4-1.2-2.6-2.6-2.6H412v-1.5c0-3.7-3-6.7-6.7-6.7h-1.5&#10;&#9;&#9;&#9;&#9;v-1.5c0-8.3-6.7-15-15-15c-8.3,0-15,6.7-15,15V97H372.2z"/>
		</g><path fill="#E6E7E8" d="M290.3,119.8c0-13.8,11.2-25,25-25c13.8,0,17.1,6.5,21.9,20.9c6.9,0,11.4,10.8,17.6,16.7&#10;&#9;&#9;&#9;&#9;c3.4,0-0.5,7.3-6.2,6.7c-3.4-0.3-2.3,0-5.8,0h-51.6c-6.9,0-13.4,0-13.4-6.9C277.8,125.4,283.4,119.8,290.3,119.8z" transform="matrix(1, 0, 0, 1, -68.85125732421875, -60.71428298950195)"/><path fill="#414042" d="M348.6,142.2h-62.4c-7.7,0-14-6.3-14-14c0-7.2,5.5-13.2,12.5-13.9c0.8-13.9,12.3-25,26.4-25&#10;&#9;&#9;&#9;&#9;c14.1,0,25.7,11.1,26.4,25c6.6,0.7,11.8,6,12.4,12.5c3.6,0.7,6.3,3.8,6.3,7.6C356.4,138.7,352.9,142.2,348.6,142.2z M286.3,117.2&#10;&#9;&#9;&#9;&#9;c-6,0-11,4.9-11,11c0,6,4.9,11,11,11h62.4c2.6,0,4.7-2.1,4.7-4.7s-2.1-4.7-4.7-4.7h-1.5v-1.5c0-6-4.9-11-11-11h-1.5v-1.5&#10;&#9;&#9;&#9;&#9;c0-12.9-10.5-23.4-23.4-23.4c-12.9,0-23.4,10.5-23.4,23.4v1.5H286.3z" transform="matrix(1, 0, 0, 1, -68.85125732421875, -60.71428298950195)"/><g transform="matrix(1, 0, 0, 1, -68.85125732421875, -60.71428298950195)">
			<g>
				<path fill="#0685D9" d="M155.2,78.9c-40.4,0-73.2,32.8-73.2,73.2v138.3h146.4V152.1C228.5,111.7,195.7,78.9,155.2,78.9z"/>
			</g>
			<g>
				<g>
					<path fill="#FAFAFA" d="M459.4,281.7H282.3v-89.5h136.5c0,0,14,13.9,16.2,18.9l24.6,21.7C459.6,232.8,477.5,255.9,459.4,281.7z&#10;&#9;&#9;&#9;&#9;&#9;&#9;"/>
				</g>
				<g>
					<path d="M 267.600006 276.600006 H 460.100006 V 282.200006 H 267.600006 V 276.600006 Z" fill="#6D6E71"/>
				</g>
				<g>
					<path d="M 81.599998 192.100006 H 269.200005 V 281.600006 H 81.599998 V 192.100006 Z" fill="#FAFAFA"/>
				</g>
				<g>
					<path d="M 81.599998 276.600006 H 269.200005 V 282.200006 H 81.599998 V 276.600006 Z" fill="#6D6E71"/>
				</g>
				<g>
					<path fill="#D6D6D6" d="M467.2,268.1H282.3v-35.8h177.3C459.6,232.3,472.1,254.2,467.2,268.1z"/>
				</g>
				<g>
					<path d="M 81.099998 232.300003 H 269.299995 V 268.100002 H 81.099998 V 232.300003 Z" fill="#D6D6D6"/>
				</g>
				<path d="M 81.599998 191.5 H 269.099998 V 199.2 H 81.599998 V 191.5 Z" fill="#D6D6D6"/>
				<path d="M 282.799988 191.5 H 419.599991 V 199.2 H 282.799988 V 191.5 Z" fill="#D6D6D6"/>
			</g>
			<g>
				<path d="M 428.5 238.1999969482422 L 286.8999938964844 238.1999969482422 L 286.8999938964844 251.89999389648438 L 441.79998779296875 251.89999389648438 Z" fill="#E64E4E"/>
			</g>
			<g>
				<g>
					<path d="M 287.700012 206.699997 H 373.100014 V 223.599997 H 287.700012 V 206.699997 Z" fill="#0678C4"/>
				</g>
				<g>
					<path d="M 423.1000061035156 223.60000610351562 L 380.79998779296875 223.60000610351562 L 380.79998779296875 206.6999969482422 L 410.1000061035156 206.6999969482422 Z" fill="#0678C4"/>
				</g>
			</g>
			<g>
				<g>
					<path d="M 85.900002 206.699997 H 171.300003 V 223.599997 H 85.900002 V 206.699997 Z" fill="#0678C4"/>
				</g>
				<g>
					<path d="M 179 206.699997 H 264.400002 V 223.599997 H 179 V 206.699997 Z" fill="#0678C4"/>
				</g>
				<g>
					<path d="M 85.900002 238.199997 H 264.400002 V 251.899997 H 85.900002 V 238.199997 Z" fill="#E64E4E"/>
				</g>
				<g>
					<path d="M 85.900002 254.199997 H 264.400002 V 258.699997 H 85.900002 V 254.199997 Z" fill="#414042"/>
				</g>
			</g>
			<g>
				<path fill="#0675BF" d="M444.3,217.1l-14.4-1.9c-1.2-0.6-2.1-1.3-3-2.6l-13.8-21.1l4.1,0.1L444.3,217.1z"/>
			</g>
		</g><g transform="matrix(1, 0, 0, 1, -68.85125732421875, -60.71428298950195)">
				<path fill="#414042" d="M267.3,190.1l-184.6,0v3.3h184.5v70.3H82v21.7h20.4l1.2-5.1h56l1.2,5.1h37.5l1.2-5.1h56l1.2,5.1h13.7&#10;&#9;&#9;&#9;&#9;&#9;v-21.2v-0.5v-70.4C270.5,191.6,269.1,190.1,267.3,190.1z"/>
			</g><path fill="#414042" d="M275,285.1h1.2c0.5,0,0.9-0.5,0.9-1v-92.5c0-0.6-0.4-1-0.9-1H275c-0.5,0-0.9,0.5-0.9,1V284&#10;&#9;&#9;&#9;&#9;&#9;C274.1,284.6,274.5,285.1,275,285.1z" transform="matrix(1, 0, 0, 1, -68.85125732421875, -60.71428298950195)"/><path fill="#414042" d="M201.8,282c-0.1,0.5-0.2,1.1-0.2,1.7c0,3.7,3,6.8,6.8,6.8c3.7,0,6.8-3,6.8-6.8c0-0.6-0.1-1.2-0.2-1.7&#10;&#9;&#9;&#9;&#9;&#9;H201.8z" transform="matrix(1, 0, 0, 1, -68.85125732421875, -60.71428298950195)"/><path fill="#414042" d="M216.8,285.4c0,0.9,0.8,1.7,1.7,1.7h18.1c0.9,0,1.7-0.8,1.7-1.7V282h-21.5V285.4z" transform="matrix(1, 0, 0, 1, -68.85125732421875, -60.71428298950195)"/><path fill="#414042" d="M144.3,282c-0.1,0.5-0.2,1.1-0.2,1.7c0,3.7,3,6.8,6.8,6.8c3.7,0,6.8-3,6.8-6.8c0-0.6-0.1-1.2-0.2-1.7&#10;&#9;&#9;&#9;&#9;&#9;H144.3z" transform="matrix(1, 0, 0, 1, -68.85125732421875, -60.71428298950195)"/><path fill="#414042" d="M105.9,282c-0.1,0.5-0.2,1.1-0.2,1.7c0,3.7,3,6.8,6.8,6.8c3.7,0,6.8-3,6.8-6.8c0-0.6-0.1-1.2-0.2-1.7&#10;&#9;&#9;&#9;&#9;&#9;H105.9z" transform="matrix(1, 0, 0, 1, -68.85125732421875, -60.71428298950195)"/><path fill="#414042" d="M120.9,285.4c0,0.9,0.8,1.7,1.7,1.7h18.1c0.9,0,1.7-0.8,1.7-1.7V282h-21.5V285.4z" transform="matrix(1, 0, 0, 1, -68.85125732421875, -60.71428298950195)"/><path fill="#414042" d="M240.3,282c-0.1,0.5-0.2,1.1-0.2,1.7c0,3.7,3,6.8,6.8,6.8c3.7,0,6.8-3,6.8-6.8c0-0.6-0.1-1.2-0.2-1.7&#10;&#9;&#9;&#9;&#9;&#9;H240.3z" transform="matrix(1, 0, 0, 1, -68.85125732421875, -60.71428298950195)"/><path fill="#414042" d="M297.9,282c-0.1,0.5-0.2,1.1-0.2,1.7c0,3.7,3,6.8,6.8,6.8c3.7,0,6.8-3,6.8-6.8c0-0.6-0.1-1.2-0.2-1.7&#10;&#9;&#9;&#9;&#9;&#9;H297.9z" transform="matrix(1, 0, 0, 1, -68.85125732421875, -60.71428298950195)"/><path d="M 286.8999938964844 258.70001220703125 L 446.1000061035156 258.70001220703125 L 442.8999938964844 254.1999969482422 L 286.8999938964844 254.1999969482422 Z" fill="#414042" transform="matrix(1, 0, 0, 1, -68.85125732421875, -60.71428298950195)"/><path fill="#414042" d="M408.8,285.4c0,0.9,0.8,1.7,1.7,1.7h18.1c0.9,0,1.7-0.8,1.7-1.7V282h-21.5V285.4z" transform="matrix(1, 0, 0, 1, -68.85125732421875, -60.71428298950195)"/><path fill="#414042" d="M432.3,282c-0.1,0.5-0.2,1.1-0.2,1.7c0,3.7,3,6.8,6.8,6.8c3.7,0,6.8-3,6.8-6.8c0-0.6-0.1-1.2-0.2-1.7&#10;&#9;&#9;&#9;&#9;&#9;H432.3z" transform="matrix(1, 0, 0, 1, -68.85125732421875, -60.71428298950195)"/><path fill="#414042" d="M312.9,285.4c0,0.9,0.8,1.7,1.7,1.7h18.1c0.9,0,1.7-0.8,1.7-1.7V282h-21.5V285.4z" transform="matrix(1, 0, 0, 1, -68.85125732421875, -60.71428298950195)"/><path fill="#414042" d="M393.8,282c-0.1,0.5-0.2,1.1-0.2,1.7c0,3.7,3,6.8,6.8,6.8c3.7,0,6.8-3,6.8-6.8c0-0.6-0.1-1.2-0.2-1.7&#10;&#9;&#9;&#9;&#9;&#9;H393.8z" transform="matrix(1, 0, 0, 1, -68.85125732421875, -60.71428298950195)"/><path fill="#414042" d="M336.3,282c-0.1,0.5-0.2,1.1-0.2,1.7c0,3.7,3,6.8,6.8,6.8c3.7,0,6.8-3,6.8-6.8c0-0.6-0.1-1.2-0.2-1.7&#10;&#9;&#9;&#9;&#9;&#9;H336.3z" transform="matrix(1, 0, 0, 1, -68.85125732421875, -60.71428298950195)"/><path fill="#414042" d="M468.5,250.4c-1.8-10.1-5.9-18.2-11.8-23.4c-6.1-5.4-20.6-19.6-36.1-35.3c-1-1-2.4-1.6-3.9-1.6l-132.8,0&#10;&#9;&#9;&#9;&#9;&#9;c-1.8,0-3.3,1.5-3.3,3.3v70.4v0.5v21.2h13.7l1.2-5.1h56l1.2,5.1h37.5l1.2-5.1h56l1.2,5.1h5.3c0.1,0,14.1-0.3,15.3-21.3l0,0&#10;&#9;&#9;&#9;&#9;&#9;C469.5,263.9,469.8,257.9,468.5,250.4z M284.1,263.8v-70.3H415c1.4,0,2.8,0.6,3.8,1.6c15.5,15.6,29.6,29,35.7,34.4&#10;&#9;&#9;&#9;&#9;&#9;c12.4,10.9,11.7,32.3,11.6,34.3H284.1z" transform="matrix(1, 0, 0, 1, -68.85125732421875, -60.71428298950195)"/><path fill="#414042" d="M460.8,288.9H228.5h-0.5H83.6V152.1c0-39.5,32.2-71.7,71.7-71.7s71.7,32.2,71.7,71.7v41h3.1v-41&#10;&#9;&#9;&#9;&#9;c0-41.2-33.5-74.7-74.7-74.7c-41.2,0-74.7,33.5-74.7,74.7v139.8h147.4h0.5h232.3c0.6,0,1-0.5,1-1v-1&#10;&#9;&#9;&#9;&#9;C461.8,289.4,461.4,288.9,460.8,288.9z" transform="matrix(1, 0, 0, 1, -68.85125732421875, -60.71428298950195)"/>
</svg>