<?xml version="1.0" encoding="utf-8"?>
<svg id="master-artboard" viewBox="0 0 246.30337524414062 307.01031494140625" version="1.1" xmlns="http://www.w3.org/2000/svg" x="0px" y="0px" width="246.30337524414062px" height="307.01031494140625px" enable-background="new 0 0 1400 980"><rect id="ee-background" x="0" y="0" width="246.30337524414062" height="307.01031494140625" style="fill: white; fill-opacity: 0; pointer-events: none;"/>
<path d="M 0 0 H 1400 V 980 H 0 V 0 Z" display="none" fill="#FFFFFF" transform="matrix(1, 0, 0, 1, -980.9425659179688, -515.2577514648438)"/>
<g transform="matrix(1, 0, 0, 1, -980.9425659179688, -515.2577514648438)">
	
	<g transform="matrix(1, 0, 0, 1, -262.8866077227797, 353.0191589420185)">
		<g>
			
				<path fill="#666666" stroke="#4D4D4D" stroke-width="4.7587" stroke-linecap="round" stroke-linejoin="round" stroke-miterlimit="10" d="&#10;&#9;&#9;&#9;&#9;M659.8,458h-22.5c-8,0-14.4-6.4-14.4-14.4v-39c0-8,6.4-14.4,14.4-14.4h22.5c8,0,14.4,6.4,14.4,14.4v39&#10;&#9;&#9;&#9;&#9;C674.2,451.6,667.7,458,659.8,458z"/>
			
				<path fill="#666666" stroke="#4D4D4D" stroke-width="4.7587" stroke-linecap="round" stroke-linejoin="round" stroke-miterlimit="10" d="&#10;&#9;&#9;&#9;&#9;M831.4,458h-22.5c-8,0-14.4-6.4-14.4-14.4v-39c0-8,6.4-14.4,14.4-14.4h22.5c8,0,14.4,6.4,14.4,14.4v39&#10;&#9;&#9;&#9;&#9;C845.8,451.6,839.3,458,831.4,458z"/>
		</g>
		
			<path fill="#FFCE47" stroke="#4D4D4D" stroke-width="4.7587" stroke-linecap="round" stroke-linejoin="round" stroke-miterlimit="10" d="&#10;&#9;&#9;&#9;M847,407.9H621.7c-16.2,0-29.3-13.1-29.3-29.3v-44.1c0-16.2,13.1-29.3,29.3-29.3H847c16.2,0,29.3,13.1,29.3,29.3v44.1&#10;&#9;&#9;&#9;C876.4,394.8,863.3,407.9,847,407.9z"/>
		
			<path fill="#E6E6E6" stroke="#4D4D4D" stroke-width="4.7587" stroke-linecap="round" stroke-linejoin="round" stroke-miterlimit="10" d="&#10;&#9;&#9;&#9;M874.7,374.8h-279c-6.2,0-11.1,5-11.1,11.1v10.8c0,6.2,5,11.1,11.1,11.1h279c6.2,0,11.1-5,11.1-11.1V386&#10;&#9;&#9;&#9;C885.9,379.8,880.9,374.8,874.7,374.8z"/>
		
			<path fill="#FFF3D1" stroke="#4D4D4D" stroke-width="4.7587" stroke-linecap="round" stroke-linejoin="round" stroke-miterlimit="10" d="&#10;&#9;&#9;&#9;M847,305.2H621.7l26.8-87.9c2.1-6.9,8.4-11.6,15.6-11.6h140.7c7.2,0,13.5,4.7,15.6,11.6L847,305.2z"/>
		<g>
			
				<path fill="#FFCE47" stroke="#4D4D4D" stroke-width="4.7587" stroke-linecap="round" stroke-linejoin="round" stroke-miterlimit="10" d="&#10;&#9;&#9;&#9;&#9;M847.5,273.4h-52.6c-6.5,0-11.8,5.3-11.8,11.8v8.2c0,6.5,5.3,11.8,11.8,11.8h52.6c6.5,0,11.8-5.3,11.8-11.8v-8.2&#10;&#9;&#9;&#9;&#9;C859.2,278.7,854,273.4,847.5,273.4z"/>
			
				<path fill="#FFCE47" stroke="#4D4D4D" stroke-width="4.7587" stroke-linecap="round" stroke-linejoin="round" stroke-miterlimit="10" d="&#10;&#9;&#9;&#9;&#9;M673.8,273.4h-52.6c-6.5,0-11.8,5.3-11.8,11.8v8.2c0,6.5,5.3,11.8,11.8,11.8h52.6c6.5,0,11.8-5.3,11.8-11.8v-8.2&#10;&#9;&#9;&#9;&#9;C685.6,278.7,680.3,273.4,673.8,273.4z"/>
		</g>
		
			<path fill="#C3EDF5" stroke="#4D4D4D" stroke-width="4.7587" stroke-linecap="round" stroke-linejoin="round" stroke-miterlimit="10" d="&#10;&#9;&#9;&#9;M822.2,305.2H646.5l21.1-69.3c1.5-4.9,6-8.2,11.1-8.2H790c5.1,0,9.6,3.3,11.1,8.2L822.2,305.2z"/>
		<g>
			
				<path d="M 663.400013 354.600006 A 20.200001 20.200001 0 0 1 643.200012 374.800007 A 20.200001 20.200001 0 0 1 623.000011 354.600006 A 20.200001 20.200001 0 0 1 643.200012 334.400005 A 20.200001 20.200001 0 0 1 663.400013 354.600006 Z" fill="#FFF3D1" stroke="#4D4D4D" stroke-width="4.7587" stroke-linecap="round" stroke-linejoin="round" stroke-miterlimit="10"/>
			
				<path d="M 845.799976 354.600006 A 20.200001 20.200001 0 0 1 825.599976 374.800007 A 20.200001 20.200001 0 0 1 805.399975 354.600006 A 20.200001 20.200001 0 0 1 825.599976 334.400005 A 20.200001 20.200001 0 0 1 845.799976 354.600006 Z" fill="#FFF3D1" stroke="#4D4D4D" stroke-width="4.7587" stroke-linecap="round" stroke-linejoin="round" stroke-miterlimit="10"/>
		</g>
		
			<path fill="#666666" stroke="#4D4D4D" stroke-width="4.7587" stroke-linecap="round" stroke-linejoin="round" stroke-miterlimit="10" d="&#10;&#9;&#9;&#9;M767.8,381.4h-62.9c-3.9,0-7.1-3.2-7.1-7.1v-35.4c0-3.9,3.2-7.1,7.1-7.1h62.9c3.9,0,7.1,3.2,7.1,7.1v35.4&#10;&#9;&#9;&#9;C774.9,378.2,771.7,381.4,767.8,381.4z"/>
		
			<path d="M 697.799988 356.600006 L 774.900024 356.600006" fill="none" stroke="#4D4D4D" stroke-width="4.7587" stroke-linecap="round" stroke-linejoin="round" stroke-miterlimit="10"/>
		<g>
			
				<path d="M 697.799988 343 L 774.900024 343" fill="none" stroke="#4D4D4D" stroke-width="4.7587" stroke-linecap="round" stroke-linejoin="round" stroke-miterlimit="10"/>
			
				<path d="M 697.799988 370.100006 L 774.900024 370.100006" fill="none" stroke="#4D4D4D" stroke-width="4.7587" stroke-linecap="round" stroke-linejoin="round" stroke-miterlimit="10"/>
		</g>
	</g>
	
	
	
	<g>
		<g>
			<g>
				
					<path fill="#CCCCCC" stroke="#4D4D4D" stroke-width="4.7587" stroke-linecap="round" stroke-linejoin="round" stroke-miterlimit="10" d="&#10;&#9;&#9;&#9;&#9;&#9;M1201.8,816.9c-4.2,0-8.2-2.3-10.3-6.2l-42.4-80.6c-3-5.7-0.8-12.8,4.9-15.8c5.7-3,12.8-0.8,15.8,4.9l42.4,80.6&#10;&#9;&#9;&#9;&#9;&#9;c3,5.7,0.8,12.8-4.9,15.8C1205.5,816.5,1203.6,816.9,1201.8,816.9z"/>
			</g>
			<g>
				
					<path fill="#CCCCCC" stroke="#4D4D4D" stroke-width="4.7587" stroke-linecap="round" stroke-linejoin="round" stroke-miterlimit="10" d="&#10;&#9;&#9;&#9;&#9;&#9;M1000.1,816.9c-1.8,0-3.7-0.4-5.4-1.3c-5.7-3-7.9-10.1-4.9-15.8l42.4-80.6c3-5.7,10.1-7.9,15.8-4.9s7.9,10.1,4.9,15.8&#10;&#9;&#9;&#9;&#9;&#9;l-42.4,80.6C1008.4,814.7,1004.3,816.9,1000.1,816.9z"/>
			</g>
			<g>
				
					<path fill="#CCCCCC" stroke="#4D4D4D" stroke-width="4.7587" stroke-linecap="round" stroke-linejoin="round" stroke-miterlimit="10" d="&#10;&#9;&#9;&#9;&#9;&#9;M1179.6,793.5h-157.3c-5.9,0-10.7-5.2-10.7-11.7c0-6.4,4.8-11.7,10.7-11.7h157.3c5.9,0,10.7,5.2,10.7,11.7&#10;&#9;&#9;&#9;&#9;&#9;C1190.3,788.3,1185.5,793.5,1179.6,793.5z"/>
			</g>
		</g>
		
			<path fill="#7BCB9B" stroke="#4D4D4D" stroke-width="4.7587" stroke-linecap="round" stroke-linejoin="round" stroke-miterlimit="10" d="&#10;&#9;&#9;&#9;M1184.5,527.6h-167.1c-14.9,0-26.9,12.1-26.9,26.9v157.2c0,14.9,12.1,26.9,26.9,26.9h167.1c14.9,0,26.9-12.1,26.9-26.9V554.5&#10;&#9;&#9;&#9;C1211.5,539.6,1199.4,527.6,1184.5,527.6z"/>
		
			<path fill="#4FB97A" stroke="#4D4D4D" stroke-width="4.7587" stroke-linecap="round" stroke-linejoin="round" stroke-miterlimit="10" d="&#10;&#9;&#9;&#9;M990.5,675.1v36.6c0,14.9,12.1,26.9,26.9,26.9h167.1c14.9,0,26.9-12.1,26.9-26.9v-36.6H990.5z"/>
		
			<path fill="#C3EDF5" stroke="#4D4D4D" stroke-width="4.7587" stroke-linecap="round" stroke-linejoin="round" stroke-miterlimit="10" d="&#10;&#9;&#9;&#9;M1176.1,663.8h-150.3c-8.8,0-16-7.2-16-16v-73.4c0-8.8,7.2-16,16-16h150.3c8.8,0,16,7.2,16,16v73.4&#10;&#9;&#9;&#9;C1192.1,656.6,1185,663.8,1176.1,663.8z"/>
		
			<path d="M 1038.399976 702.799988 A 14.3 14.3 0 0 1 1024.099976 717.099988 A 14.3 14.3 0 0 1 1009.799975 702.799988 A 14.3 14.3 0 0 1 1024.099976 688.499988 A 14.3 14.3 0 0 1 1038.399976 702.799988 Z" fill="#FFF3D1" stroke="#4D4D4D" stroke-width="4.7587" stroke-linecap="round" stroke-linejoin="round" stroke-miterlimit="10"/>
		
			<path d="M 1192.100049 702.799988 A 14.3 14.3 0 0 1 1177.800049 717.099988 A 14.3 14.3 0 0 1 1163.500049 702.799988 A 14.3 14.3 0 0 1 1177.800049 688.499988 A 14.3 14.3 0 0 1 1192.100049 702.799988 Z" fill="#FFF3D1" stroke="#4D4D4D" stroke-width="4.7587" stroke-linecap="round" stroke-linejoin="round" stroke-miterlimit="10"/>
		
			<path fill="#666666" stroke="#4D4D4D" stroke-width="4.7587" stroke-linecap="round" stroke-linejoin="round" stroke-miterlimit="10" d="&#10;&#9;&#9;&#9;M1132.8,721.1h-63.8c-7.8,0-14.1-6.3-14.1-14.1v-8.2c0-7.8,6.3-14.1,14.1-14.1h63.8c7.8,0,14.1,6.3,14.1,14.1v8.2&#10;&#9;&#9;&#9;C1147,714.7,1140.6,721.1,1132.8,721.1z"/>
		<g>
			
				<path d="M 1056.599976 702.799988 L 1145.300049 702.799988" fill="#666666" stroke="#4D4D4D" stroke-width="4.7587" stroke-linecap="round" stroke-linejoin="round" stroke-miterlimit="10"/>
			
				<path d="M 1056.599976 713 L 1145.300049 713" fill="#666666" stroke="#4D4D4D" stroke-width="4.7587" stroke-linecap="round" stroke-linejoin="round" stroke-miterlimit="10"/>
			
				<path d="M 1056.599976 692.700012 L 1145.300049 692.700012" fill="#666666" stroke="#4D4D4D" stroke-width="4.7587" stroke-linecap="round" stroke-linejoin="round" stroke-miterlimit="10"/>
		</g>
	</g>
</g>
</svg>