<?xml version="1.0" encoding="utf-8"?>
<svg id="master-artboard" viewBox="0 0 832.8631591796875 487.634765625" version="1.1" xmlns="http://www.w3.org/2000/svg" x="0px" y="0px" width="832.8631591796875px" height="487.634765625px" enable-background="new 0 0 1400 980" xmlns:xlink="http://www.w3.org/1999/xlink"><defs><path d="M 0 0 H 1400 V 980 H 0 V 0 Z" id="SVGID_1_"/></defs><rect id="ee-background" x="0" y="0" width="832.8631591796875" height="487.634765625" style="fill: white; fill-opacity: 0; pointer-events: none;"/>



<g transform="matrix(1.0367380380630493, 0, 0, 1.0367380380630493, -448.3325500488281, -25.953826904296875)">
	<g>
		<path fill="#1F1E1F" d="M735,474.8c-0.1-1.6-3.3-39.2,1.1-55.8c4.5-16.8,46.7-53.4,51.5-57.5l4.6,5.3c-12.6,10.8-46,41.5-49.3,54&#10;&#9;&#9;&#9;c-4.1,15.5-0.9,53.1-0.9,53.4L735,474.8z" style="fill: rgb(47, 53, 65);"/>
	</g>
	<g>
		<path fill="#1F1E1F" d="M948.7,474.8l-7-0.6c0-0.4,3.2-38-0.9-53.4c-3.3-12.5-36.7-43.2-49.3-54l4.6-5.3&#10;&#9;&#9;&#9;c4.8,4.1,47.1,40.7,51.5,57.5C952,435.7,948.8,473.2,948.7,474.8z" style="fill: rgb(47, 53, 65);"/>
	</g>
	<g>
		<path d="M 830.5 395.79998779296875 L 795.4000244140625 360.20001220703125 L 800.4000244140625 355.29998779296875 L 829.0999755859375 384.29998779296875 L 837.7000122070312 369.5 L 807.5999755859375 353.6000061035156 L 810.9000244140625 347.3999938964844 L 847.4000244140625 366.79998779296875 Z" fill="#1F1E1F" style="fill: rgb(47, 53, 65);"/>
	</g>
	<g>
		<path d="M 854.5 395.79998779296875 L 837.7000122070312 366.79998779296875 L 874.2000122070312 347.3999938964844 L 877.4000244140625 353.6000061035156 L 847.4000244140625 369.5 L 856 384.29998779296875 L 884.7000122070312 355.29998779296875 L 889.7000122070312 360.20001220703125 Z" fill="#1F1E1F" style="fill: rgb(47, 53, 65);"/>
	</g>
	<g>
		<path fill="#1F1E1F" d="M842.5,427.7c-4.6,0-8.4-3.8-8.4-8.4c0-4.6,3.8-8.4,8.4-8.4s8.4,3.8,8.4,8.4&#10;&#9;&#9;&#9;C851,424,847.2,427.7,842.5,427.7z M842.5,417.9c-0.8,0-1.4,0.6-1.4,1.4c0,0.8,0.6,1.4,1.4,1.4s1.4-0.6,1.4-1.4&#10;&#9;&#9;&#9;C844,418.5,843.3,417.9,842.5,417.9z" style="fill: rgb(47, 53, 65);"/>
	</g>
	<g>
		<path fill="#1F1E1F" d="M842.5,466.2c-4.6,0-8.4-3.8-8.4-8.4c0-4.6,3.8-8.4,8.4-8.4s8.4,3.8,8.4,8.4&#10;&#9;&#9;&#9;C851,462.5,847.2,466.2,842.5,466.2z M842.5,456.4c-0.8,0-1.4,0.6-1.4,1.4c0,0.8,0.6,1.4,1.4,1.4s1.4-0.6,1.4-1.4&#10;&#9;&#9;&#9;C844,457,843.3,456.4,842.5,456.4z" style="fill: rgb(47, 53, 65);"/>
	</g>
	<g>
		<path fill="#1F1E1F" d="M842.6,345.1c-5.7,0-11.4-1.5-16.5-4.4c-12.6-7.3-27.7-19.1-27.7-33.7v-50.8h7V307&#10;&#9;&#9;&#9;c0,11.9,15.2,22.4,24.2,27.7c8,4.6,17.9,4.6,25.9,0c9-5.2,24.2-15.8,24.2-27.7v-44.4h7V307c0,14.6-15.1,26.4-27.7,33.7&#10;&#9;&#9;&#9;C854,343.6,848.3,345.1,842.6,345.1z" style="fill: rgb(47, 53, 65);"/>
	</g>
	<g>
		<path fill="#1F1E1F" d="M892.8,307.4l-4.1-5.7l5.1-3.7c2.2-1.5,4.5-4.1,4.6-6.7l0-0.6c0.1-2.7,0.5-8.9-0.6-10.2&#10;&#9;&#9;&#9;c-1.1-0.5-4,0.3-5.4,1.5l-4.6-5.3c2.8-2.4,9-4.8,13.5-2.2c4.7,2.7,4.3,10.1,4,16.6l0,0.6c-0.2,4.3-3,8.8-7.6,12L892.8,307.4z" style="fill: rgb(47, 53, 65);"/>
	</g>
	<g>
		<path fill="#1F1E1F" d="M792.3,307.4l-5.1-3.7c-4.5-3.2-7.3-7.7-7.6-12l0-0.6c-0.3-6.5-0.7-13.9,4-16.6c4.5-2.6,10.7-0.2,13.5,2.2&#10;&#9;&#9;&#9;l-4.6,5.3c-1.4-1.2-4.3-2-5.4-1.5c-1,1.4-0.7,7.6-0.6,10.2l0,0.6c0.1,2.6,2.5,5.1,4.6,6.7l5.1,3.7L792.3,307.4z" style="fill: rgb(47, 53, 65);"/>
	</g>
	<g>
		<path d="M 815.200012 343 H 822.200012 V 356.1 H 815.200012 V 343 Z" fill="#1F1E1F" style="fill: rgb(47, 53, 65);"/>
	</g>
	<g>
		<path d="M 862.599976 343 H 869.599976 V 356.1 H 862.599976 V 343 Z" fill="#1F1E1F" style="fill: rgb(47, 53, 65);"/>
	</g>
	<g>
		<path fill="#1F1E1F" d="M872.3,266.4H837c-20.4,0-30.9-20-31.3-20.8l6.2-3.2l-3.1,1.6l3.1-1.6c0.1,0.2,9,17,25.1,17h35.3V266.4z" style="fill: rgb(47, 53, 65);"/>
	</g>
	<g>
		<path fill="#1F1E1F" d="M886.8,339.5c-0.6,0-1.2,0-1.8,0c-0.6,0-1.1,0-1.7,0v-7c0.6,0,1.1,0,1.7,0c6.5,0,13.2,0.1,18.5-5.1&#10;&#9;&#9;&#9;c7.1-7.1,10.8-23.1,10.8-47.7c0-25.1-9.5-46.1-26.6-59.2c-16.4-12.5-38.5-16.6-58.9-11c-18.7,5.2-27.7,19.4-27.8,19.5l-1.1,1.7&#10;&#9;&#9;&#9;l-2-0.1c-8-0.3-14,3.5-18.2,11.7c-5.6,10.8-8.4,23.4-8.4,37.4c0,24.6,3.6,40.6,10.8,47.7c5.3,5.2,12,5.2,18.5,5.1&#10;&#9;&#9;&#9;c0.6,0,1.2,0,1.7,0v7c-0.6,0-1.1,0-1.7,0c-7.2,0-16.1,0.1-23.4-7.2c-8.6-8.6-12.8-25.8-12.8-52.7c0-15.1,3.1-28.8,9.2-40.6&#10;&#9;&#9;&#9;c5.1-9.9,12.9-15.2,22.8-15.5c3.2-4.4,13.2-16,30.7-20.9c22.5-6.2,46.9-1.7,65,12.2c19,14.4,29.4,37.4,29.4,64.8&#10;&#9;&#9;&#9;c0,26.9-4.2,44.1-12.8,52.7C901.7,339,893.6,339.5,886.8,339.5z" style="fill: rgb(47, 53, 65);"/>
	</g>
	<g>
		<path fill="#1F1E1F" d="M872.3,247.9h-23.2c-16.4,0-24.3-13.2-24.7-13.7l6-3.6l-3,1.8l3-1.8c0.3,0.4,6.3,10.3,18.6,10.3h23.2&#10;&#9;&#9;&#9;V247.9z" style="fill: rgb(47, 53, 65);"/>
	</g>
</g>

<g transform="matrix(1.0367380380630493, 0, 0, 1.0367380380630493, -448.3325500488281, -344.8045349121094)">
	<g>
		<g>
			<path fill="#1F1E1F" d="M669.7,783.6l-7-0.6c0-0.4,3.2-38-0.9-53.4c-3.1-11.6-32.2-39-46.4-51.5c-6,8.1-23.6,27.6-51.7,27.6&#10;&#9;&#9;&#9;&#9;c-28.3,0-47-19.8-53.3-27.7c-14.2,12.4-43.4,39.9-46.5,51.6c-4.1,15.5-0.9,53.1-0.9,53.4l-7,0.6c-0.1-1.6-3.3-39.2,1.1-55.8&#10;&#9;&#9;&#9;&#9;c2-7.5,11.1-19.1,27.8-35.6c12-11.9,23.7-21.9,23.8-22l3-2.6l2.2,3.3c0.2,0.3,19.1,27.7,49.9,27.7c30.8,0,47.9-27.3,48.1-27.6&#10;&#9;&#9;&#9;&#9;l2.1-3.5l3.1,2.7c0.1,0.1,11.8,10.1,23.8,22c16.7,16.5,25.8,28.1,27.8,35.6C673.1,744.4,669.9,782,669.7,783.6z" style="fill: rgb(47, 53, 65); fill-opacity: 1;"/>
		</g>
		<g>
			<path fill="#1F1E1F" d="M563.6,653.8c-5.7,0-11.4-1.5-16.5-4.4c-12.6-7.3-27.7-19.1-27.7-33.7v-50.8h7v50.8&#10;&#9;&#9;&#9;&#9;c0,11.9,15.2,22.4,24.2,27.7c8,4.6,17.9,4.6,25.9,0c9-5.2,24.2-15.8,24.2-27.7v-44.4h7v44.4c0,14.6-15.1,26.4-27.7,33.7&#10;&#9;&#9;&#9;&#9;C575,652.3,569.3,653.8,563.6,653.8z" style="fill: rgb(47, 53, 65); fill-opacity: 1;"/>
		</g>
		<g>
			<path fill="#1F1E1F" d="M613.8,616.2l-4.1-5.7l5.1-3.7c2.2-1.5,4.5-4.1,4.6-6.7l0-0.6c0.1-2.7,0.5-8.9-0.6-10.2&#10;&#9;&#9;&#9;&#9;c-1.1-0.5-4,0.3-5.4,1.5l-4.6-5.3c2.8-2.4,9-4.8,13.5-2.2c4.7,2.7,4.3,10.1,4,16.6l0,0.6c-0.2,4.3-3,8.8-7.6,12L613.8,616.2z" style="fill: rgb(47, 53, 65); fill-opacity: 1;"/>
		</g>
		<g>
			<path fill="#1F1E1F" d="M513.3,616.2l-5.1-3.7c-4.5-3.2-7.3-7.7-7.6-12l0-0.6c-0.3-6.5-0.7-13.9,4-16.6&#10;&#9;&#9;&#9;&#9;c4.5-2.6,10.7-0.2,13.5,2.2l-4.6,5.3c-1.4-1.2-4.3-2-5.4-1.5c-1,1.4-0.7,7.6-0.6,10.2l0,0.6c0.1,2.6,2.5,5.1,4.6,6.7l5.1,3.7&#10;&#9;&#9;&#9;&#9;L513.3,616.2z" style="fill: rgb(47, 53, 65); fill-opacity: 1;"/>
		</g>
		<g>
			<path fill="#1F1E1F" d="M602.7,676c-7.6-3.8-16.9-7.9-17-7.9l-2.1-0.9v-15.4h7v10.9c3.2,1.4,9.7,4.4,15.2,7.1L602.7,676z" style="fill: rgb(47, 53, 65); fill-opacity: 1;"/>
		</g>
		<g>
			<path fill="#1F1E1F" d="M522.6,676l-3.1-6.3c5.6-2.7,12-5.7,15.2-7.1v-10.9h7v15.4l-2.1,0.9C539.5,668.1,530.2,672.2,522.6,676z" style="fill: rgb(47, 53, 65); fill-opacity: 1;"/>
		</g>
		<g>
			<path fill="#1F1E1F" d="M593.3,575.1H558c-20.4,0-30.9-20-31.3-20.8l6.2-3.2c0.1,0.2,9,17,25.1,17h35.3V575.1z" style="fill: rgb(47, 53, 65); fill-opacity: 1;"/>
		</g>
	</g>
	<g>
		<path fill="#1F1E1F" d="M644.6,685.8l-7-0.3c0.3-6.9-2.3-13.1-5.8-21.7c-1.7-4.1-3.6-8.7-5.4-14.1c-5.8-16.7-1.3-36.1,3.4-49.4&#10;&#9;&#9;&#9;c5.5-15.6,5-32.1-1.6-46.4c-13.5-29.5-46.5-44.6-78.6-35.8c-18.7,5.2-27.7,19.4-27.8,19.5l-1.1,1.7l-2-0.1&#10;&#9;&#9;&#9;c-8.1-0.3-14,3.5-18.2,11.7c-0.3,0.6-0.6,1.1-0.9,1.7c-7,14.5-7.7,32-2.1,47.8c4.7,13.3,9.2,32.5,3.4,49.2&#10;&#9;&#9;&#9;c-1.9,5.4-3.8,10-5.4,14.1c-3.5,8.6-6,14.8-5.8,21.7l-7,0.3c-0.3-8.4,2.6-15.5,6.3-24.6c1.6-4,3.5-8.5,5.3-13.8&#10;&#9;&#9;&#9;c5.1-14.8,0.9-32.4-3.4-44.6c-6.3-17.6-5.4-37,2.3-53.2c0.3-0.6,0.6-1.3,0.9-1.9c5.1-9.9,12.9-15.2,22.8-15.5&#10;&#9;&#9;&#9;c3.2-4.4,13.2-16,30.7-20.9c35.4-9.7,71.9,6.9,86.8,39.6c7.3,16,8,34.4,1.8,51.7c-4.4,12.2-8.5,30-3.4,44.8&#10;&#9;&#9;&#9;c1.8,5.2,3.6,9.8,5.3,13.8C642,670.3,644.9,677.4,644.6,685.8z" style="fill: rgb(47, 53, 65); fill-opacity: 1;"/>
	</g>
	<g>
		<path fill="#1F1E1F" d="M563.8,725.4c-38.3,0-56-24.8-56.8-25.9l5.7-4c0.7,0.9,16.5,22.9,51,22.9c34.5,0,48.3-22.5,48.5-22.7&#10;&#9;&#9;&#9;l6,3.6C617.6,700.4,602.2,725.4,563.8,725.4z" style="fill: rgb(47, 53, 65); fill-opacity: 1;"/>
	</g>
</g>


<g transform="matrix(1.0367380380630493, 0, 0, 1.0367380380630493, -458.57086181640625, -338.9540710449219)">
	<g>
		<g>
			<g>
				<path fill="#1F1E1F" d="M1227.3,776.5l-7-0.5c0-0.5,3.2-48-0.9-63.5c-3.1-11.6-32.9-33.2-46.7-42.3l-51.3,45.8l-53.1-45.8&#10;&#9;&#9;&#9;&#9;&#9;c-13.8,9.1-43.7,30.7-46.8,42.3c-4.1,15.5-0.9,63-0.9,63.5l-7,0.5c-0.1-2-3.3-49.1,1.1-65.8c4.5-17.1,47.1-44.7,51.9-47.8&#10;&#9;&#9;&#9;&#9;&#9;l2.2-1.4l52.5,45.2l50.7-45.2l2.2,1.4c4.8,3.1,47.4,30.7,51.9,47.8C1230.6,727.3,1227.4,774.5,1227.3,776.5z" style="fill: rgb(47, 53, 65);"/>
			</g>
			<g>
				<path fill="#1F1E1F" d="M1121.2,646.8c-5.7,0-11.4-1.5-16.5-4.4c-12.6-7.3-27.7-19.1-27.7-33.7v-50.8h7v50.8&#10;&#9;&#9;&#9;&#9;&#9;c0,11.9,15.2,22.4,24.2,27.7c8,4.6,17.9,4.6,25.9,0c9-5.2,24.2-15.8,24.2-27.7v-44.4h7v44.4c0,14.6-15.1,26.4-27.7,33.7&#10;&#9;&#9;&#9;&#9;&#9;C1132.5,645.3,1126.9,646.8,1121.2,646.8z" style="fill: rgb(47, 53, 65);"/>
			</g>
			<g>
				<path fill="#1F1E1F" d="M1171.4,609.2l-4.1-5.7l5.1-3.7c2.2-1.5,4.5-4.1,4.6-6.7l0-0.6c0.1-2.7,0.5-8.8-0.6-10.2&#10;&#9;&#9;&#9;&#9;&#9;c-1.1-0.5-4,0.3-5.4,1.5l-4.6-5.3c2.8-2.4,9-4.8,13.5-2.2c4.7,2.7,4.3,10.1,4,16.6l0,0.6c-0.2,4.3-3,8.8-7.6,12L1171.4,609.2z" style="fill: rgb(47, 53, 65);"/>
			</g>
			<g>
				<path fill="#1F1E1F" d="M1070.8,609.2l-5.1-3.7c-4.5-3.2-7.3-7.7-7.6-12l0-0.6c-0.3-6.5-0.7-13.9,4-16.6&#10;&#9;&#9;&#9;&#9;&#9;c4.5-2.6,10.7-0.2,13.5,2.2l-4.6,5.3c-1.4-1.2-4.3-2-5.4-1.5c-1,1.4-0.7,7.6-0.6,10.2l0,0.6c0.1,2.6,2.5,5.1,4.6,6.7l5.1,3.7&#10;&#9;&#9;&#9;&#9;&#9;L1070.8,609.2z" style="fill: rgb(47, 53, 65);"/>
			</g>
			<g>
				<path fill="#1F1E1F" d="M1160.3,668.9c-7.6-3.8-16.9-7.9-17-7.9l-2.1-0.9v-15.4h7v10.9c3.2,1.4,9.7,4.4,15.2,7.1L1160.3,668.9z" style="fill: rgb(47, 53, 65);"/>
			</g>
			<g>
				<path fill="#1F1E1F" d="M1080.1,668.9l-3.1-6.3c5.6-2.7,12-5.7,15.2-7.1v-10.9h7v15.4l-2.1,0.9&#10;&#9;&#9;&#9;&#9;&#9;C1097.1,661.1,1087.8,665.2,1080.1,668.9z" style="fill: rgb(47, 53, 65);"/>
			</g>
			<g>
				<path fill="#1F1E1F" d="M1150.9,568.1h-35.3c-20.4,0-30.9-20-31.3-20.8l6.2-3.2c0.1,0.2,9,17,25.1,17h35.3V568.1z" style="fill: rgb(47, 53, 65);"/>
			</g>
		</g>
	</g>
	<g>
		<path fill="#1F1E1F" d="M1165,630.7v-7c5.9,0,11.4-5.8,14.9-10.7c6.6-9.3,10.5-20.7,11.1-33.1c0.7-12.2-1.3-24.3-5.2-32.9&#10;&#9;&#9;&#9;c-13.5-29.5-46.5-44.6-78.6-35.8c-18.6,5.1-27.7,19.4-27.8,19.5l-1.1,1.7l-2-0.1c-8-0.3-14,3.5-18.2,11.7&#10;&#9;&#9;&#9;c-0.3,0.6-0.6,1.1-0.9,1.7c-6.9,14.4-8.3,31.4-3.8,47.7c4.4,16,16.9,24.5,24.2,24.5v7c-15.6,0-27.7-17.7-31-29.6&#10;&#9;&#9;&#9;c-4.9-18-3.4-36.6,4.3-52.6c0.3-0.6,0.6-1.3,0.9-1.9c5.1-9.9,12.9-15.2,22.8-15.5c3.2-4.4,13.2-16,30.7-20.9&#10;&#9;&#9;&#9;c35.4-9.7,71.9,6.9,86.8,39.6c4.4,9.7,6.6,22.9,5.8,36.2c-0.7,13.7-5,26.4-12.4,36.8C1179.1,626.1,1172.2,630.7,1165,630.7z" style="fill: rgb(47, 53, 65);"/>
	</g>
	<g>
		<path fill="#1F1E1F" d="M1182.6,540.6l-1.7-2.6c-6.8-10.4-16.4-18.6-27.8-23.6l-2.8-1.2l0.8-2.9c3-10.5,12.7-17.9,23.7-17.9&#10;&#9;&#9;&#9;c13.6,0,24.6,11,24.6,24.6c0,9.5-5.5,18.2-14.1,22.3L1182.6,540.6z M1158.9,509.5c10.4,5.2,19.2,12.7,26,22&#10;&#9;&#9;&#9;c4.7-3.3,7.5-8.7,7.5-14.5c0-9.7-7.9-17.6-17.6-17.6C1168,499.4,1161.8,503.4,1158.9,509.5z" style="fill: rgb(47, 53, 65);"/>
	</g>
	<g>
		<path d="M 1117.800049 711.299988 H 1124.800049 V 776.199989 H 1117.800049 V 711.299988 Z" fill="#1F1E1F" style="fill: rgb(47, 53, 65);"/>
	</g>
	<g>
		<path fill="#1F1E1F" d="M1142.4,739.2c-5.8,0-10.5-4.7-10.5-10.5s4.7-10.5,10.5-10.5s10.5,4.7,10.5,10.5&#10;&#9;&#9;&#9;S1148.2,739.2,1142.4,739.2z M1142.4,725.3c-1.9,0-3.5,1.6-3.5,3.5s1.6,3.5,3.5,3.5c1.9,0,3.5-1.6,3.5-3.5&#10;&#9;&#9;&#9;S1144.3,725.3,1142.4,725.3z" style="fill: rgb(47, 53, 65);"/>
	</g>
	<g>
		<path fill="#1F1E1F" d="M1142.4,776.6c-5.8,0-10.5-4.7-10.5-10.5s4.7-10.5,10.5-10.5s10.5,4.7,10.5,10.5&#10;&#9;&#9;&#9;S1148.2,776.6,1142.4,776.6z M1142.4,762.6c-1.9,0-3.5,1.6-3.5,3.5s1.6,3.5,3.5,3.5c1.9,0,3.5-1.6,3.5-3.5&#10;&#9;&#9;&#9;S1144.3,762.6,1142.4,762.6z" style="fill: rgb(47, 53, 65);"/>
	</g>
</g>
<g transform="matrix(0.25103169679641724, 0, 0, 0.25103169679641724, 261.6035461425781, -93.77451610565186)"><g transform="matrix(1, 0, 0, 1, -80.48780822753906, -58.53658676147461)"><g transform="matrix(1, 0, 0, 1, 0, 0)">
		<path id="path-1" class="st9" d="M598.9,148.2c1.2,2.1,3.3,3.2,5.6,3.2c1.1,0,2.2-0.3,3.2-0.9c3.1-1.8,4.1-5.7,2.4-8.8&#10;&#9;&#9;&#9;l-16.1-27.8c-1.8-3.1-5.7-4.1-8.8-2.4c-3.1,1.8-4.1,5.7-2.4,8.8L598.9,148.2z" style="fill: rgb(255, 255, 255); stroke: rgb(47, 53, 64); stroke-width: 17; stroke-linecap: round; stroke-linejoin: round; stroke-miterlimit: 10;" transform="matrix(1, 0, 0, 1, 27.440692538470103, 418.131562552006)"/>
		<path id="path-2" class="st9" d="M692.5,118.2c0,2.4,1.4,4.4,3.3,5.5c1,0.5,2.1,0.8,3.2,0.8c3.5-0.1,6.4-3,6.3-6.5l-0.6-32.1&#10;&#9;&#9;&#9;c-0.1-3.5-3-6.4-6.5-6.3c-3.5,0.1-6.4,3-6.3,6.5L692.5,118.2z" style="fill: rgb(255, 255, 255); stroke: rgb(47, 53, 64); stroke-width: 17; stroke-linecap: round; stroke-linejoin: round; stroke-miterlimit: 10;" transform="matrix(1, 0, 0, 1, 27.440692538470103, 418.131562552006)"/>
		<path id="path-3" class="st9" d="M502.9,205l27.8,16.1c1,0.6,2.1,0.9,3.2,0.9c2.2,0,4.4-1.2,5.6-3.2c1.8-3.1,0.7-7-2.4-8.8&#10;&#9;&#9;&#9;l-27.8-16.1c-3.1-1.8-7-0.7-8.8,2.4C498.8,199.3,499.8,203.2,502.9,205z" style="fill: rgb(255, 255, 255); stroke: rgb(47, 53, 64); stroke-width: 17; stroke-linecap: round; stroke-linejoin: round; stroke-miterlimit: 10;" transform="matrix(1, 0, 0, 1, 27.440692538470103, 418.131562552006)"/>
		<path id="path-4" class="st9" d="M476,318.2h32.1c3.5,0,6.4-2.9,6.4-6.4c0-3.5-2.9-6.4-6.4-6.4H476c-3.5,0-6.4,2.9-6.4,6.4&#10;&#9;&#9;&#9;C469.6,315.3,472.4,318.2,476,318.2z" style="fill: rgb(255, 255, 255); stroke: rgb(47, 53, 64); stroke-width: 17; stroke-linecap: round; stroke-linejoin: round; stroke-miterlimit: 10;" transform="matrix(1, 0, 0, 1, 27.440692538470103, 418.131562552006)"/>
		<path id="path-5" class="st9" d="M887,311.8c0,3.5,2.9,6.4,6.4,6.4h32.1c3.5,0,6.4-2.9,6.4-6.4c0-3.5-2.9-6.4-6.4-6.4h-32.1&#10;&#9;&#9;&#9;C889.9,305.4,887,308.3,887,311.8z" style="fill: rgb(255, 255, 255); stroke: rgb(47, 53, 64); stroke-width: 17; stroke-linecap: round; stroke-linejoin: round; stroke-miterlimit: 10;" transform="matrix(1, 0, 0, 1, 27.440692538470103, 418.131562552006)"/>
		<path id="path-6" class="st9" d="M867.6,221.9c1.1,0,2.2-0.3,3.2-0.9l27.8-16.1c3.1-1.8,4.1-5.7,2.4-8.8&#10;&#9;&#9;&#9;c-1.8-3.1-5.7-4.1-8.8-2.4l-27.8,16.1c-3.1,1.8-4.1,5.7-2.4,8.8C863.2,220.7,865.4,221.9,867.6,221.9z" style="fill: rgb(255, 255, 255); stroke: rgb(47, 53, 64); stroke-width: 17; stroke-linecap: round; stroke-linejoin: round; stroke-miterlimit: 10;" transform="matrix(1, 0, 0, 1, 27.440692538470103, 418.131562552006)"/>
		<path id="path-7" class="st9" d="M793.9,150.5c1,0.6,2.1,0.9,3.2,0.9c2.2,0,4.4-1.2,5.6-3.2l16.1-27.8c1.8-3.1,0.7-7-2.4-8.8&#10;&#9;&#9;&#9;c-3.1-1.8-7-0.7-8.8,2.4l-16.1,27.8C789.8,144.8,790.8,148.7,793.9,150.5z" style="fill: rgb(255, 255, 255); stroke: rgb(47, 53, 64); stroke-width: 17; stroke-linecap: round; stroke-linejoin: round; stroke-miterlimit: 10;" transform="matrix(1, 0, 0, 1, 27.440692538470103, 418.131562552006)"/>
		<path class="st9" d="M848.6,311.8c0-81.6-66.1-147.7-147.7-147.7c-81.6,0-147.7,66.1-147.7,147.7c0,57.2,32.5,106.7,80,131.3h-0.4&#10;&#9;&#9;&#9;v38.2h136v-38.2h-0.4C816.1,418.5,848.6,369,848.6,311.8z" style="fill: rgb(255, 255, 255); stroke: rgb(47, 53, 64); stroke-width: 17; stroke-linecap: round; stroke-linejoin: round; stroke-miterlimit: 10;" transform="matrix(1, 0, 0, 1, 27.440692538470103, 418.131562552006)"/>
		<g transform="matrix(1, 0, 0, 1, -6.279075520020342, 182.09319008058912)">
			
		</g>
		<path d="M 743.100025 570.799988 A 42.200001 42.200001 0 0 1 700.900024 612.999989 A 42.200001 42.200001 0 0 1 658.700024 570.799988 A 42.200001 42.200001 0 0 1 700.900024 528.599987 A 42.200001 42.200001 0 0 1 743.100025 570.799988 Z" transform="matrix(1, 0, 0, 1, 27.440692538470103, 418.131562552006)" style="stroke: rgb(47, 53, 64); stroke-width: 17;"/>
		<path d="M 623.700012 543.900024 H 777.800018 V 578.300026 H 623.700012 V 543.900024 Z" class="st2" style="fill: rgb(122, 209, 237); stroke: rgb(47, 53, 64); stroke-width: 17; stroke-miterlimit: 10;" transform="matrix(1, 0, 0, 1, 27.440692538470103, 418.131562552006)"/>
		<path d="M 623.700012 481.299988 H 777.800018 V 515.699989 H 623.700012 V 481.299988 Z" class="st2" style="fill: rgb(122, 209, 237); stroke: rgb(47, 53, 64); stroke-width: 17; stroke-miterlimit: 10;" transform="matrix(1, 0, 0, 1, 27.440692538470103, 418.131562552006)"/>
		<path d="M 623.700012 515.700012 H 777.800018 V 578.300011 H 623.700012 V 515.700012 Z" class="st2" style="fill: rgb(237, 220, 145); stroke: rgb(47, 53, 64); stroke-width: 17; stroke-miterlimit: 10;" transform="matrix(1, 0, 0, 1, 27.440692538470103, 418.131562552006)"/>
		<path d="M 623.700012 543.900024 H 777.800018 V 578.300026 H 623.700012 V 543.900024 Z" class="st2" style="fill: rgb(122, 209, 237); stroke: rgb(47, 53, 64); stroke-width: 17; stroke-miterlimit: 10;" transform="matrix(1, 0, 0, 1, 27.440692538470103, 418.131562552006)"/>
	</g></g></g><g transform="matrix(0.15008902549743652, 0, 0, 0.2198071926832199, 321.8775939941406, -1.8938674926757812)"><path class="st1" d="M572.4,353.3c14.9,30.9,44.7,49.6,71.7,68.9c9.4,6.8,19.3,13.8,27.2,22.6c-5.9,7.7-10.3,16.5-11.4,26.3&#10;&#9;c-1.5,13,2.8,26.6,13.6,34.6c0.7,0.5,2.5,1.6,2.5,1.6s1.8-1.1,2.5-1.6c10.8-8,15.1-21.5,13.6-34.6c-1.2-9.9-5.5-18.6-11.4-26.3&#10;&#9;c7.9-8.7,17.7-15.8,27.2-22.6c27-19.3,56.8-38,71.7-68.9c6.7-13.9,9.9-29.4,7-44.8c-2.6-13.9-10.1-26.9-20.4-36.5&#10;&#9;c-10.7-9.9-24.3-16-38.8-17c-14.2-1-28.9,2.8-41,10.5c-3.7,2.3-7.1,5.1-10.3,8.2c-3.2-3.1-6.6-5.8-10.3-8.2&#10;&#9;c-12-7.7-26.7-11.5-41-10.5c-14.6,1-28.2,7.1-38.8,17c-10.3,9.6-17.8,22.6-20.4,36.5C562.5,323.8,565.6,339.4,572.4,353.3z&#10;&#9; M671.3,331c-8.4-12.8-6.6-29,1.1-41.7c1.1-1.8,2.2-3.4,3.5-5c1.2,1.6,2.4,3.3,3.5,5c7.7,12.7,9.5,28.8,1.1,41.7&#10;&#9;c-1.3,2-2.8,3.8-4.6,5.4C674.1,334.7,672.6,333,671.3,331z M675.8,450.4c1.1,1.5,2.1,3,3,4.5c6.8,11.3,9,26.3,1.8,38&#10;&#9;c-1.3,2.1-2.9,4.1-4.8,5.7c-1.9-1.6-3.5-3.6-4.8-5.7c-7.1-11.7-4.9-26.7,1.8-38C673.8,453.4,674.8,451.9,675.8,450.4z M578.3,293.2&#10;&#9;c6.4-11.8,16.5-21.6,28.9-26.9c12.4-5.3,26.6-5.5,39.4-1.7c9.1,2.7,17.6,7.6,24.3,14.3c-5.6,6.8-9.7,14.8-11.5,23.4&#10;&#9;c-3.1,14.9,1.3,31.6,13.7,41.2c0.3,0.2,2,1.8,2.6,1.8c0.6,0,2.3-1.6,2.6-1.8c12.4-9.6,16.8-26.3,13.7-41.2&#10;&#9;c-1.8-8.6-5.9-16.6-11.5-23.4c6.8-6.6,15.2-11.5,24.3-14.3c12.8-3.9,27-3.6,39.4,1.7c12.4,5.3,22.6,15.1,28.9,26.9&#10;&#9;c6.6,12.3,8.5,26.5,5.5,40.1c-3.2,14.7-11.2,28.1-21.1,39.4c-10.8,12.3-24,22.3-37.3,31.8c-13.2,9.4-27.1,18.3-39,29.3&#10;&#9;c-1.9,1.8-3.8,3.6-5.5,5.5c-1.8-1.9-3.6-3.8-5.5-5.5c-12-11-25.8-19.9-39-29.3C618,395,604.8,385,594,372.7&#10;&#9;c-9.9-11.3-17.9-24.6-21.1-39.4C569.8,319.6,571.7,305.5,578.3,293.2z" style="fill: rgb(255, 234, 94); opacity: 1; stroke: rgb(255, 234, 94); stroke-width: 17;" transform="matrix(1, 0, 0, 1, 0, 0)"/></g><g transform="matrix(1.2408132553100586, 1.4490671157836914, -1.4490671157836914, 1.2408132553100586, 590.3966674804688, -340.2068786621094)"><clipPath id="path-8">
		<use style="overflow:visible;" xlink:href="#SVGID_1_"/>
	</clipPath><g transform="matrix(0.5595129132270813, 0, 0, 0.5595129132270813, -96.9821395874024, -174.11537170410156)"><path class="st9" d="M204,896.7c9.4-8.2,17.1-18.3,22.3-29.6c2.7-5.8,4.7-11.8,6.1-18.1c0.7-3.1,2.8-11.7-2.5-12.4&#10;&#9;&#9;c-10.4-1.4-16.6,11.6-11.9,19.8c6.1,10.5,20.4,9.8,29.9,5.2c10.1-4.9,20.9-14.8,20.6-26.8c0-2.6-0.8-5.2-2.1-7.5&#10;&#9;&#9;c-0.9-1.7-3-4.8-5.1-4.8c-4.4-0.1-8.5,3-10.6,6.6c-2.2,3.8-2.5,8.8-0.7,12.8c2.1,4.6,6.9,7.4,11.6,8.6c12,3,23.2-4.1,31.4-12.1&#10;&#9;&#9;c3.7-3.6,9.7-8.6,8.3-14.5c-1.4-6-8.3-4.5-11.8-1.5c-4.2,3.6-6,9.3-5.5,14.7c0.1,1.2,0.2,2.6,1.1,3.3c0.8,0.7,1.7,1.3,2.6,1.8&#10;&#9;&#9;c2,1.3,4.3,2.1,6.5,2.9c9,2.8,19.2,0.9,27.3-3.6c6.8-3.8,16.4-13.2,13-21.8c-0.6-1.7-2.2-2.8-4-2.9c-2.7-0.2-4.6,2-6.5,3.7&#10;&#9;&#9;c-4.2,3.7-8.1,8.2-9.6,13.7c-3.4,12.7,12.4,16.5,21.5,17.1c11.5,0.9,23.2-2.1,33.3-7.6c5.1-2.8,9.8-6.4,13.7-10.6&#10;&#9;&#9;c1.2-1.3,2.5-4,0.3-5.2c-1.9-1-4.2-0.4-5.5,1.1c-0.7,0.8,0.6,1.2,1.1,1.2c1,0,2.1-0.4,2.7-1.1c-1.5,0.2-1.9,0.8-1.3,1.9&#10;&#9;&#9;c-0.2,0.8-0.6,1.4-1.2,1.9c-0.7,0.7-1.4,1.4-2.1,2.1c-1.5,1.4-3.1,2.7-4.8,3.9c-3.2,2.4-6.8,4.3-10.4,5.9&#10;&#9;&#9;c-7.4,3.2-15.5,4.5-23.5,4.1c-7.4-0.4-17.5-2.1-19.8-10.4c-2.2-8.2,6.7-15.9,12.3-20.2c-0.8,0.3-1.6,0.6-2.5,0.8&#10;&#9;&#9;c2.4,0.1,2.7,4,2.5,5.7c-0.2,2.5-1.5,4.9-2.8,7c-2.6,4.1-6.5,7.2-10.8,9.3c-8.7,4.2-19.3,3.9-27.4-1.4c-2.6-1.7-2.2-5.4-1.7-8.2&#10;&#9;&#9;c0.5-3.2,2.2-6.1,4.5-8.3c1.8-1.8,3.3-0.4,4.1,1.4c0.6,1.4,0.4,2.8,0,4.2c-1,3.3-4.4,6.1-6.8,8.5c-4.6,4.7-10,9.2-16.4,11&#10;&#9;&#9;c-5.5,1.6-11.9,0.4-16.4-3.2c-3.4-2.8-4.8-7-4.2-11.3c0.5-3.8,2.9-8.3,7.1-8.8c-0.5-0.1-1.1-0.2-1.6-0.3c4.8,3.4,6.4,9.4,5.5,15&#10;&#9;&#9;c-1.1,6.5-5.9,11.7-10.8,15.7c-5.2,4.3-11.7,7.7-18.6,7.3c-5.8-0.3-11.5-4.1-13.7-9.6c-1.9-4.7,0.2-10.9,4.6-13.5&#10;&#9;&#9;c2.7-1.6,3.4,1.5,3.6,3.6c0.2,3.1-0.9,6.5-1.7,9.5c-3.1,12.5-9.3,24.2-17.5,34c-2.8,3.4-6,6.5-9.4,9.5c-0.7,0.6-0.5,1.3,0.4,1.5&#10;&#9;&#9;C202.1,897.7,203.3,897.3,204,896.7L204,896.7z" style="clip-path: url('#path-8'); fill: rgb(122, 208, 237); stroke: rgb(122, 208, 237); stroke-width: 2;" transform="matrix(0.9999999999999998, 0, 0, 0.9999999999999998, 9.46833082232024, 13.327749916923949)"/></g></g><g transform="matrix(-2.0898513793945312, 1.2372444868087769, -1.2372444868087769, -2.0898513793945312, 1357.0574951171875, -203.12928771972656)"><clipPath id="path-10">
		<use style="overflow:visible;" xlink:href="#SVGID_1_"/>
	</clipPath><path class="st11" d="M582.2,595.2c3,8.2,15,6.3,21.5,4.8c9.5-2.3,19-6.7,24.2-15.3c4.6-7.6,1.2-17.6-5.7-22.5&#10;&#9;&#9;c-3.2-2.2-7.1-2.3-10.9-1.9c-5.5,0.7-7.4,3.7-8.3,8.9c-1.7,9.2,3.8,18.6,11.6,23.1c9.1,5.3,21.2,3.7,30.4-0.2&#10;&#9;&#9;c10.1-4.3,17.3-12.8,21.5-22.8c3.1-7.2,6.3-20.2-2.7-24.8c-2.3-1.2-6.9,0.1-8.4,2.2c-6.2,9.2-9.8,22.8,0.7,30.5&#10;&#9;&#9;c7.7,5.6,19.2,3.5,27.4,0.6c10.7-3.8,18.8-12.4,24.3-22.1c3.8-6.8,11.7-27.3,0-31.2c-4.1-1.4-8.7-0.7-12.5,1.5&#10;&#9;&#9;c-4.3,2.5-5.1,8.8-5.5,13.3c-0.4,5.4,0.6,10.1,5.1,13.6c4.1,3.2,10.1,2.3,14.7,1.2c11.6-2.7,21.2-12.6,29.6-20.4&#10;&#9;&#9;c9.4-8.6,18-18.2,23.7-29.6c2.1-4.1,3.5-8.6,4.5-13.1c0.5-2.3-8.1-0.9-8.6,1.4c-4.1,18.6-17.2,32.6-31,44.9&#10;&#9;&#9;c-5.7,5.1-16.4,17.4-24.7,12.5c-4-2.3-4.7-7.3-4.7-11.4c0-2.2,0.6-4.5,1.2-6.7c0.2-0.9,0.5-1.9,0.8-2.8c0.6-1.9-1.7-1.9,0.9-0.6&#10;&#9;&#9;c8.3,4.1,2,20.1-0.6,26c-3.8,8.4-10.5,16.5-18.8,20.6c-6.6,3.2-14.8,2.3-20-2.9c-7.4-7.4-2.6-19.4,2.3-26.7&#10;&#9;&#9;c-2.8,0.7-5.6,1.5-8.4,2.2c7.5,3.8,5.4,13.8,3.3,20.3c-2.8,8.8-8.5,17.1-16.7,21.6c-17.3,9.5-37.5-10.8-28.6-27.9&#10;&#9;&#9;c-1.3,0.7-2.6,1.5-3.9,2.2c4.7-1.1,9.1,6,10.5,9.3c1.9,4.8,1,9.7-1.6,14c-3.9,6.5-23.6,16.8-27.7,5.7&#10;&#9;&#9;C590,590.6,581.5,593.3,582.2,595.2L582.2,595.2z" style="clip-path: url('#path-10'); fill: rgb(255, 234, 94);" transform="matrix(0.38643547892570496, 0, 0, 0.38643547892570496, 76.805908203125, -174.49742126464844)"/></g></svg>