<?xml version="1.0" encoding="utf-8"?>
<svg id="master-artboard" viewBox="0 0 1361.9088134765625 466.4730529785156" version="1.1" xmlns="http://www.w3.org/2000/svg" x="0px" y="0px" width="1361.9088134765625px" height="466.4730529785156px" enable-background="new 0 0 1400 980"><rect id="ee-background" x="0" y="0" width="1361.9088134765625" height="466.4730529785156" style="fill: white; fill-opacity: 0; pointer-events: none;"/>
<g transform="matrix(0.964666247367859, 0, 0, 0.964666247367859, 258.4170837402344, 83.17625615530562)">
		<path d="M 856.554993 172.936996 H 900.202991 V 197.985996 H 856.554993 V 172.936996 Z" style="fill: rgb(230, 78, 78); stroke: rgb(65, 64, 66); stroke-width: 4;"/>
		
			<path d="M 919.935974 218.102997 H 948.369974 V 234.418997 H 919.935974 V 218.102997 Z" transform="matrix(0.7542 0.6566 -0.6566 0.7542 378.1782 -557.7848)" style="fill: rgb(230, 78, 78); stroke: rgb(65, 64, 66); stroke-width: 4;"/>
		<path d="M 868.700012 178.061005 H 888.056013 V 220.379005 H 868.700012 V 178.061005 Z" style="fill: rgb(230, 78, 78); stroke: rgb(65, 64, 66); stroke-width: 4;"/>
		<path d="M878.379,377.19c-45.726,0-82.927-37.2-82.927-82.925s37.201-82.927,82.927-82.927s82.926,37.202,82.926,82.927&#10;&#9;&#9;&#9;S924.104,377.19,878.379,377.19z M878.379,222.724c-39.45,0-71.542,32.093-71.542,71.541c0,39.448,32.092,71.539,71.542,71.539&#10;&#9;&#9;&#9;c39.445,0,71.539-32.091,71.539-71.539C949.918,254.816,917.824,222.724,878.379,222.724z" style="fill: rgb(230, 78, 78); stroke: rgb(65, 64, 66); stroke-width: 4;"/>
		<path d="M 916.7379760742188 256.7799987792969 L 876.8400268554688 289.0350036621094 L 880.6599731445312 292.8590087890625 L 884.4849853515625 296.6839904785156 Z" style="fill: rgb(230, 78, 78); stroke: rgb(65, 64, 66); stroke-width: 0;"/>
		<path d="M 887.675014 294.265015 A 9.298 9.298 0 0 1 878.377014 303.563015 A 9.298 9.298 0 0 1 869.079014 294.265015 A 9.298 9.298 0 0 1 878.377014 284.967014 A 9.298 9.298 0 0 1 887.675014 294.265015 Z" style="fill: rgb(230, 78, 78); stroke: rgb(65, 64, 66); stroke-width: 0;"/>
	<path d="M 894.2722778320312 278.1801452636719" style="fill: rgb(230, 78, 78); fill-opacity: 1; stroke: rgb(65, 64, 66); stroke-opacity: 1; stroke-width: 0; paint-order: fill;"/></g><path d="M 685.349985 473.972992 A 7.24 7.24 0 0 1 678.109985 481.212992 A 7.24 7.24 0 0 1 670.869986 473.972992 A 7.24 7.24 0 0 1 678.109985 466.732992 A 7.24 7.24 0 0 1 685.349985 473.972992 Z" transform="matrix(1.0033364295959473, 0, 0, 1.0033364295959473, -505.63018798828125, -353.3134365326826)" style="fill: rgb(36, 191, 116);"/><path d="M 699.2520141601562 494.09698486328125 L 674.6959838867188 474.01300048828125 L 674.6959838867188 434 L 681.5269775390625 434 L 681.5269775390625 470.7749938964844 L 703.5780029296875 488.8080139160156 Z" transform="matrix(1.0033364295959473, 0, 0, 1.0033364295959473, -505.63018798828125, -353.3134365326826)" style="fill: rgb(36, 191, 116);"/><path d="M678.11,376.681c-46.951,0-85.009,38.06-85.009,85.01v71.834v116.691v71.836c0,46.95,38.059,85.01,85.009,85.01&#10;&#9;&#9;c46.952,0,85.01-38.06,85.01-85.01v-71.836V533.525v-71.834C763.12,414.74,725.062,376.681,678.11,376.681z M729.061,719.962&#10;&#9;&#9;c0,28.14-22.812,50.951-50.951,50.951s-50.951-22.812-50.951-50.951v-144.6h101.901V719.962z M678.11,534.103&#10;&#9;&#9;c-33.208,0-60.127-26.922-60.127-60.129c0-33.21,26.92-60.129,60.127-60.129c33.209,0,60.13,26.919,60.13,60.129&#10;&#9;&#9;C738.24,507.181,711.319,534.103,678.11,534.103z" transform="matrix(1.0033364295959473, 0, 0, 1.0033364295959473, -505.63018798828125, -361.61858179635436)" style="fill: rgb(36, 191, 116); stroke: rgb(65, 64, 66); stroke-width: 5;"/><path d="M700.61,685.675l-15.105-107.464h-9.199l15.283,108.736c-4.496,2.226-7.722,6.703-8.078,12.066&#10;&#9;&#9;c-0.531,8.012,5.533,14.939,13.545,15.469c8.013,0.534,14.937-5.53,15.471-13.543C713.022,693.479,707.799,686.967,700.61,685.675z&#10;&#9;&#9;" transform="matrix(1.0033364295959473, 0, 0, 1.0033364295959473, -505.63018798828125, -361.61858179635436)" style="fill: rgb(36, 191, 116);"/><path d="M1124.236,380.752c-50.469,0-91.383,40.913-91.383,91.382s40.914,91.382,91.383,91.382&#10;&#9;&#9;&#9;c50.468,0,91.382-40.913,91.382-91.382S1174.704,380.752,1124.236,380.752z M1124.236,540.578&#10;&#9;&#9;&#9;c-37.8,0-68.444-30.642-68.444-68.444c0-37.802,30.645-68.443,68.444-68.443s68.443,30.641,68.443,68.443&#10;&#9;&#9;&#9;C1192.68,509.937,1162.036,540.578,1124.236,540.578z" transform="matrix(0.9507042357523688, 0, 0, 0.9507042357523688, -269.87557637609143, -281.73729538960947)" style="fill: rgb(36, 191, 116); stroke: rgb(65, 64, 66); stroke-width: 4;"/><path d="M 1128.664962 472.134003 A 4.429 4.429 0 0 1 1124.235962 476.563003 A 4.429 4.429 0 0 1 1119.806962 472.134003 A 4.429 4.429 0 0 1 1124.235962 467.705003 A 4.429 4.429 0 0 1 1128.664962 472.134003 Z" transform="matrix(0.9507042357523688, 0, 0, 0.9507042357523688, -269.87557637609143, -281.73729538960947)" style="fill: rgb(36, 191, 116); stroke: rgb(65, 64, 66); stroke-width: 0;"/><path d="M1127.536,411.634c0,1.821-1.479,3.3-3.3,3.3c-1.819,0-3.301-1.479-3.301-3.3c0-1.819,1.481-3.298,3.301-3.298&#10;&#9;&#9;&#9;C1126.058,408.336,1127.536,409.814,1127.536,411.634z" transform="matrix(0.9507042357523688, 0, 0, 0.9507042357523688, -269.87557637609143, -281.73729538960947)" style="fill: rgb(36, 191, 116); stroke: rgb(65, 64, 66); stroke-width: 0;"/><path d="M1127.536,530.068c0,1.821-1.479,3.3-3.3,3.3c-1.819,0-3.301-1.479-3.301-3.3s1.481-3.298,3.301-3.298&#10;&#9;&#9;&#9;C1126.058,526.771,1127.536,528.247,1127.536,530.068z" transform="matrix(0.9507042357523688, 0, 0, 0.9507042357523688, -269.87557637609143, -281.73729538960947)" style="fill: rgb(36, 191, 116); stroke: rgb(65, 64, 66); stroke-width: 0;"/><path d="M1183.455,474.149c-1.823,0-3.3-1.477-3.3-3.3c0-1.819,1.477-3.296,3.3-3.296c1.819,0,3.296,1.477,3.296,3.296&#10;&#9;&#9;&#9;C1186.751,472.672,1185.274,474.149,1183.455,474.149z" transform="matrix(0.9507042357523688, 0, 0, 0.9507042357523688, -269.87557637609143, -281.73729538960947)" style="fill: rgb(36, 191, 116); stroke: rgb(65, 64, 66); stroke-width: 0;"/><path d="M1065.021,474.149c-1.824,0-3.301-1.477-3.301-3.3c0-1.819,1.477-3.296,3.301-3.296c1.818,0,3.295,1.477,3.295,3.296&#10;&#9;&#9;&#9;C1068.316,472.672,1066.84,474.149,1065.021,474.149z" transform="matrix(0.9507042357523688, 0, 0, 0.9507042357523688, -269.87557637609143, -281.73729538960947)" style="fill: rgb(36, 191, 116); stroke: rgb(65, 64, 66); stroke-width: 0;"/><path d="M 1124.2359619140625 430.67401123046875 L 1122.1729736328125 438.9949951171875 L 1122.1729736328125 470.85101318359375 L 1124.2359619140625 470.85101318359375 L 1126.300048828125 470.85101318359375 L 1126.300048828125 438.9949951171875 Z" transform="matrix(0.9507042357523688, 0, 0, 0.9507042357523688, -269.87557637609143, -281.73729538960947)" style="fill: rgb(36, 191, 116); stroke: rgb(65, 64, 66); stroke-width: 0;"/><path d="M 1143.77001953125 491.5989990234375 L 1140.218994140625 483.3819885253906 L 1126.8360595703125 469.9989929199219 L 1124.5030517578125 472.3299865722656 L 1122.1729736328125 474.6650085449219 L 1135.5550537109375 488.0450134277344 Z" transform="matrix(0.9507042357523688, 0, 0, 0.9507042357523688, -269.87557637609143, -281.73729538960947)" style="fill: rgb(36, 191, 116); stroke: rgb(65, 64, 66); stroke-width: 0;"/><path d="M 262.333 387.728 C 219.28300000000002 387.728 184.38200000000003 422.628 184.38200000000003 465.679 C 184.38200000000003 508.729 219.28200000000004 543.629 262.333 543.629 C 305.38300000000004 543.629 340.284 508.72900000000004 340.284 465.67900000000003 C 340.283447265625 442.1134338378906 329.82574462890625 420.9902038574219 313.298583984375 406.6965026855469 C 299.6329040527344 394.8775634765625 281.81756591796875 387.7279968261719 262.3330078125 387.7279968261719 Z M 262.333 527.771 C 228.04100000000003 527.771 200.24200000000002 499.97099999999995 200.24200000000002 465.67799999999994 C 200.24200000000002 431.38499999999993 228.04100000000003 403.5849999999999 262.333 403.5849999999999 C 296.625 403.5849999999999 324.42400000000004 431.38499999999993 324.42400000000004 465.67799999999994 C 324.42400000000004 499.97099999999995 296.625 527.771 262.333 527.771 Z" transform="matrix(1.104115529911728, 0, 0, 1.104115529911728, 356.7402160183839, -159.4589516721875)" style="fill: rgb(140, 138, 142); stroke: rgb(65, 64, 66); stroke-width: 4;"/><path d="M 266.111008 465.678009 A 3.778 3.778 0 0 1 262.333008 469.456009 A 3.778 3.778 0 0 1 258.555008 465.678009 A 3.778 3.778 0 0 1 262.333008 461.900009 A 3.778 3.778 0 0 1 266.111008 465.678009 Z" transform="matrix(1.104115529911728, 0, 0, 1.104115529911728, 356.7402160183839, -159.4589516721875)" style="fill: rgb(140, 138, 142); stroke: rgb(65, 64, 66); stroke-width: 0;"/><path d="M 265.146001 414.071014 A 2.814 2.814 0 0 1 262.332001 416.885014 A 2.814 2.814 0 0 1 259.518001 414.071014 A 2.814 2.814 0 0 1 262.332001 411.257015 A 2.814 2.814 0 0 1 265.146001 414.071014 Z" transform="matrix(1.104115529911728, 0, 0, 1.104115529911728, 356.7402160183839, -159.4589516721875)" style="fill: rgb(140, 138, 142); stroke: rgb(65, 64, 66); stroke-width: 0;"/><path d="M 265.146001 515.098022 A 2.814 2.814 0 0 1 262.332001 517.912022 A 2.814 2.814 0 0 1 259.518001 515.098022 A 2.814 2.814 0 0 1 262.332001 512.284023 A 2.814 2.814 0 0 1 265.146001 515.098022 Z" transform="matrix(1.104115529911728, 0, 0, 1.104115529911728, 356.7402160183839, -159.4589516721875)" style="fill: rgb(140, 138, 142); stroke: rgb(65, 64, 66); stroke-width: 0;"/><path d="M312.846,467.397c-1.554,0-2.814-1.258-2.814-2.815c0-1.552,1.26-2.811,2.814-2.811s2.813,1.258,2.813,2.811&#10;&#9;&#9;&#9;C315.659,466.139,314.399,467.397,312.846,467.397z" transform="matrix(1.104115529911728, 0, 0, 1.104115529911728, 356.7402160183839, -159.4589516721875)" style="fill: rgb(140, 138, 142); stroke: rgb(65, 64, 66); stroke-width: 0;"/><path d="M211.82,467.397c-1.554,0-2.814-1.258-2.814-2.815c0-1.552,1.26-2.811,2.814-2.811c1.552,0,2.813,1.258,2.813,2.811&#10;&#9;&#9;&#9;C214.633,466.139,213.372,467.397,211.82,467.397z" transform="matrix(1.104115529911728, 0, 0, 1.104115529911728, 356.7402160183839, -159.4589516721875)" style="fill: rgb(140, 138, 142); stroke: rgb(65, 64, 66); stroke-width: 0;"/><path d="M 262.3330078125 430.31298828125 L 260.5710144042969 437.4100036621094 L 260.5710144042969 464.5840148925781 L 262.3330078125 464.5840148925781 L 264.0950012207031 464.5840148925781 L 264.0950012207031 437.4100036621094 Z" transform="matrix(1.104115529911728, 0, 0, 1.104115529911728, 356.7402160183839, -159.4589516721875)" style="fill: rgb(140, 138, 142); stroke: rgb(65, 64, 66); stroke-width: 0;"/><path d="M 278.9939880371094 482.281005859375 L 275.9649963378906 475.27398681640625 L 264.54998779296875 463.85699462890625 L 262.55999755859375 465.84600830078125 L 260.5710144042969 467.8380126953125 L 271.98699951171875 479.25 Z" transform="matrix(1.104115529911728, 0, 0, 1.104115529911728, 356.7402160183839, -159.4589516721875)" style="fill: rgb(140, 138, 142); stroke: rgb(65, 64, 66); stroke-width: 0;"/><path d="M212.239,374.752c-12.398,4.546-20.244,14.248-15.702,26.646l44.901-16.451&#10;&#9;&#9;&#9;&#9;C236.896,372.549,224.638,370.209,212.239,374.752z" transform="matrix(1.104115529911728, 0, 0, 1.104115529911728, 356.7402160183839, -159.4589516721875)" style="fill: rgb(140, 138, 142); stroke: rgb(65, 64, 66); stroke-width: 4;"/><path d="M312.823,374.752c12.398,4.546,20.244,14.248,15.701,26.646l-44.902-16.451&#10;&#9;&#9;&#9;&#9;C288.165,372.549,300.423,370.209,312.823,374.752z" transform="matrix(1.104115529911728, 0, 0, 1.104115529911728, 356.7402160183839, -159.4589516721875)" style="fill: rgb(140, 138, 142); stroke: rgb(65, 64, 66); stroke-width: 4;"/><path d="M 308.70001220703125 547.208984375 L 300.77099609375 547.208984375 L 292.84100341796875 527.6309814453125 L 300.77099609375 527.6309814453125 Z" transform="matrix(1.104115529911728, 0, 0, 1.104115529911728, 356.7402160183839, -159.4589516721875)" style="fill: rgb(140, 138, 142); stroke: rgb(65, 64, 66); stroke-width: 4;"/><path d="M 215.96499633789062 547.208984375 L 223.89599609375 547.208984375 L 231.822998046875 527.6309814453125 L 223.89599609375 527.6309814453125 Z" transform="matrix(1.104115529911728, 0, 0, 1.104115529911728, 356.7402160183839, -159.4589516721875)" style="fill: rgb(140, 138, 142); stroke: rgb(65, 64, 66); stroke-width: 4;"/><path d="M 259.22699 373.056 H 261.91299 V 389.59 H 259.22699 V 373.056 Z" transform="matrix(1.104115529911728, 0, 0, 1.104115529911728, 356.7402160183839, -159.4589516721875)" style="fill: rgb(140, 138, 142); stroke: rgb(65, 64, 66); stroke-width: 4;"/><path d="M950.233,768.078c-19.68,0-35.693-16.012-35.693-35.694s16.014-35.694,35.693-35.694&#10;&#9;&#9;&#9;c19.683,0,35.697,16.012,35.697,35.694S969.916,768.078,950.233,768.078z M950.233,703.521c-15.913,0-28.862,12.947-28.862,28.862&#10;&#9;&#9;&#9;c0,15.916,12.949,28.862,28.862,28.862c15.916,0,28.865-12.946,28.865-28.862C979.099,716.469,966.149,703.521,950.233,703.521z" transform="matrix(0.6870855689048766, 0, 0, 0.6870855689048766, 242.82808232255505, -129.0329406266637)" style="fill: rgb(6, 133, 217); stroke: rgb(31, 31, 32); stroke-width: 0; paint-order: stroke;"/><path d="M 950.2329711914062 708.9990234375 L 949.0599975585938 713.72998046875 L 949.0599975585938 731.8489990234375 L 950.2329711914062 731.8489990234375 L 951.4080200195312 731.8489990234375 L 951.4080200195312 713.72998046875 Z" transform="matrix(0.8106001615524292, 0, 0, 0.8106001615524292, 125.95017164958585, -219.003208337267)" style="fill: rgb(6, 133, 217); stroke: rgb(31, 31, 32); stroke-width: 0; paint-order: stroke;"/><path d="M 1018.4810180664062 782.5490112304688 L 881.9879760742188 782.5490112304688 L 881.9879760742188 669.5369873046875 L 893.3729858398438 669.5369873046875 L 893.3729858398438 771.1619873046875 L 1007.0960083007812 771.1619873046875 L 1007.0960083007812 673.5469970703125 L 1018.4810180664062 673.5469970703125 Z" transform="matrix(0.8106001615524292, 0, 0, 0.8106001615524292, 125.95017164958585, -219.003208337267)" style="fill: rgb(6, 133, 217); stroke: rgb(31, 31, 32); stroke-width: 7; paint-order: stroke;"/><path d="M 950.2329711914062 618.0390014648438 L 1032.300048828125 700.10498046875 L 1043.5789794921875 688.8259887695312 L 950.2329711914062 595.4819946289062 L 856.8900146484375 688.8259887695312 L 868.1669921875 700.10498046875 Z" transform="matrix(0.8106001615524292, 0, 0, 0.8106001615524292, 125.95017164958585, -219.003208337267)" style="fill: rgb(6, 133, 217); stroke: rgb(31, 31, 32); stroke-width: 7; paint-order: stroke;"/><path d="M950.233,635.949c-9.869,0-17.867,8.001-17.867,17.868v33.021h35.738v-33.021&#10;&#9;&#9;&#9;C968.104,643.95,960.103,635.949,950.233,635.949z" transform="matrix(0.6180798888245801, 0, 0, 0.6180798888245801, 308.8896650844905, -86.7729745722526)" style="fill: rgb(6, 133, 217); stroke: rgb(31, 31, 32); stroke-width: 0; paint-order: stroke;"/><path d="M 1036.578 802.453 L 861.54 802.453 L 861.54 771.1619999999999 L 1036.578 771.1619999999999 L 1036.578 802.453 Z" transform="matrix(-0.8106001615524293, 0, 0, 0.8106001615524293, 1664.5648324266174, -207.24664306640625)" style="fill: rgb(6, 133, 217); stroke: rgb(31, 31, 32); stroke-width: 7; paint-order: stroke;"/><g transform="matrix(1.1041156053543093, 0, 0, 1.1041156053543093, -115.23485565185524, -233.18637857701924)">
			<path d="M460.921,493.681c-1.507,0-2.729,1.219-2.729,2.726c0,1.51,1.222,2.729,2.729,2.729s2.728-1.22,2.728-2.729&#10;&#9;&#9;&#9;&#9;C463.648,494.899,462.428,493.681,460.921,493.681z" style="fill: rgb(6, 133, 217); stroke: rgb(65, 64, 66); stroke-width: 0;"/>
			<path d="M462.952,459.143c0,1.124-0.91,2.035-2.033,2.035c-1.121,0-2.031-0.912-2.031-2.035c0-1.121,0.911-2.03,2.031-2.03&#10;&#9;&#9;&#9;&#9;C462.042,457.113,462.952,458.022,462.952,459.143z" style="fill: rgb(6, 133, 217); stroke: rgb(65, 64, 66); stroke-width: 0;"/>
			<path d="M 462.952013 532.09198 A 2.032 2.032 0 0 1 460.920013 534.12398 A 2.032 2.032 0 0 1 458.888013 532.09198 A 2.032 2.032 0 0 1 460.920013 530.05998 A 2.032 2.032 0 0 1 462.952013 532.09198 Z" style="fill: rgb(6, 133, 217); stroke: rgb(65, 64, 66); stroke-width: 0;"/>
			<path d="M497.395,497.649c-1.122,0-2.032-0.909-2.032-2.034c0-1.121,0.911-2.028,2.032-2.028c1.121,0,2.031,0.907,2.031,2.028&#10;&#9;&#9;&#9;&#9;C499.426,496.74,498.516,497.649,497.395,497.649z" style="fill: rgb(6, 133, 217); stroke: rgb(65, 64, 66); stroke-width: 0;"/>
			<path d="M424.446,497.649c-1.122,0-2.031-0.909-2.031-2.034c0-1.121,0.91-2.028,2.031-2.028c1.121,0,2.032,0.907,2.032,2.028&#10;&#9;&#9;&#9;&#9;C426.478,496.74,425.567,497.649,424.446,497.649z" style="fill: rgb(6, 133, 217); stroke: rgb(65, 64, 66); stroke-width: 0;"/>
			<path d="M 460.9209899902344 470.8710021972656 L 459.64801025390625 475.99700927734375 L 459.64801025390625 495.6180114746094 L 460.9209899902344 495.6180114746094 L 462.1929931640625 495.6180114746094 L 462.1929931640625 475.99700927734375 Z" style="fill: rgb(6, 133, 217); stroke: rgb(65, 64, 66); stroke-width: 0;"/>
			<path d="M 472.95098876953125 508.39599609375 L 470.7650146484375 503.33599853515625 L 462.52099609375 495.0929870605469 L 461.0840148925781 496.52899169921875 L 459.64801025390625 497.9679870605469 L 467.8909912109375 506.2090148925781 Z" style="fill: rgb(6, 133, 217); stroke: rgb(65, 64, 66); stroke-width: 0;"/>
		</g><path d="M506.392,559.185h-90.943c-9.978,0-18.095-8.12-18.095-18.098v-90.939c0-9.978,8.117-18.097,18.095-18.097h90.943&#10;&#9;&#9;&#9;c9.979,0,18.095,8.119,18.095,18.097v90.939C524.487,551.064,516.37,559.185,506.392,559.185z M415.449,445.713&#10;&#9;&#9;&#9;c-2.444,0-4.432,1.99-4.432,4.434v90.939c0,2.444,1.988,4.435,4.432,4.435h90.943c2.444,0,4.432-1.99,4.432-4.435v-90.939&#10;&#9;&#9;&#9;c0-2.444-1.988-4.434-4.432-4.434H415.449z" transform="matrix(1.1041156053543093, 0, 0, 1.1041156053543093, -115.23485565185524, -233.18637857701924)" style="fill: rgb(6, 133, 217); stroke: rgb(65, 64, 66); stroke-width: 4;"/><path d="M 499.95001220703125 404.1260070800781 L 494.3330078125 382.614013671875 L 460.9209899902344 382.614013671875 L 427.5069885253906 382.614013671875 L 421.8890075683594 404.1260070800781 Z" transform="matrix(1.1041156537806809, 0, 0, 1.1041156537806809, -115.2348547482589, -224.8812475892893)" style="fill: rgb(6, 133, 217); stroke: rgb(65, 64, 66); stroke-width: 4;"/><path d="M 420.135986328125 410.8399963378906 L 416.27099609375 425.6390075683594 L 460.9209899902344 425.6390075683594 L 505.57000732421875 425.6390075683594 L 501.7049865722656 410.8399963378906 Z" transform="matrix(1.1041156053543093, 0, 0, 1.1041156053543093, -115.23485565185524, -233.18637857701924)" style="fill: rgb(6, 133, 217); stroke: rgb(65, 64, 66); stroke-width: 4;"/><path d="M 528.862976 483.243988 H 534.343976 V 497.648988 H 528.862976 V 483.243988 Z" transform="matrix(1.1041156053543093, 0, 0, 1.1041156053543093, -115.23485565185524, -233.18637857701924)" style="fill: rgb(6, 133, 217); stroke: rgb(65, 64, 66); stroke-width: 3;"/><path d="M 421.8890075683594 587.4810180664062 L 427.5069885253906 608.9940185546875 L 460.9209899902344 608.9940185546875 L 494.3330078125 608.9940185546875 L 499.95001220703125 587.4810180664062 Z" transform="matrix(1.1041156053543093, 0, 0, 1.1041156053543093, -115.23485565185524, -233.18637857701924)" style="fill: rgb(6, 133, 217); stroke: rgb(65, 64, 66); stroke-width: 4;"/><path d="M 501.7049865722656 580.7689819335938 L 505.57000732421875 565.969970703125 L 460.9209899902344 565.969970703125 L 416.27099609375 565.969970703125 L 420.135986328125 580.7689819335938 Z" transform="matrix(1.1041156053543093, 0, 0, 1.1041156053543093, -115.23485565185524, -233.18637857701924)" style="fill: rgb(6, 133, 217); stroke: rgb(65, 64, 66); stroke-width: 4;"/><path d="M932.287,563.711h-96.829c-9.352,0-16.961-7.606-16.961-16.955V446.689c0-9.351,7.609-16.958,16.961-16.958h96.829&#10;&#9;&#9;c9.352,0,16.959,7.607,16.959,16.958v100.066C949.246,556.104,941.639,563.711,932.287,563.711z M835.458,438.839&#10;&#9;&#9;c-4.331,0-7.853,3.522-7.853,7.85v100.066c0,4.327,3.521,7.848,7.853,7.848h96.829c4.328,0,7.851-3.521,7.851-7.848V446.689&#10;&#9;&#9;c0-4.328-3.522-7.85-7.851-7.85H835.458z" transform="matrix(1.1041154861450198, 0, 0, 1.1041154861450198, -423.65234573086, -405.57135009765625)" style="fill: rgb(230, 78, 78); stroke: rgb(65, 64, 66); stroke-width: 3;"/><path d="M949.246,481.45H818.497v-34.76c0-9.351,7.609-16.958,16.961-16.958h96.829c9.352,0,16.959,7.607,16.959,16.958V481.45z&#10;&#9;&#9; M827.605,472.341h112.532v-25.651c0-4.328-3.522-7.85-7.851-7.85h-96.829c-4.331,0-7.853,3.522-7.853,7.85V472.341z" transform="matrix(1.1041154861450198, 0, 0, 1.1041154861450198, -423.65234573086, -405.57135009765625)" style="fill: rgb(230, 78, 78); stroke: rgb(65, 64, 66); stroke-width: 3;"/><path d="M 820.473999 424.037994 H 829.582999 V 444.532995 H 820.473999 V 424.037994 Z" transform="matrix(1.1041154861450198, 0, 0, 1.1041154861450198, -404.9602680941415, -405.57135009765625)" style="fill: rgb(230, 78, 78); stroke: rgb(65, 64, 66); stroke-width: 3;"/><path d="M 856.270996 424.037994 H 865.377996 V 444.532995 H 856.270996 V 424.037994 Z" transform="matrix(1.1041154861450198, 0, 0, 1.1041154861450198, -406.5179157992194, -405.57135009765625)" style="fill: rgb(230, 78, 78); stroke: rgb(65, 64, 66); stroke-width: 3;"/><path d="M 915.116028 424.037994 H 924.224028 V 444.532995 H 915.116028 V 424.037994 Z" transform="matrix(1.1041154861450198, 0, 0, 1.1041154861450198, -423.65234573086, -405.57135009765625)" style="fill: rgb(230, 78, 78); stroke: rgb(65, 64, 66); stroke-width: 4;"/><path d="M865.534,531.764v-29.688h-6.359l1.178-6.609h13.241v36.298H865.534z" transform="matrix(1.1041154861450198, 0, 0, 1.1041154861450198, -423.65234573086, -405.57135009765625)" style="fill: rgb(230, 78, 78); stroke: rgb(65, 64, 66); stroke-width: 0;"/><path d="M884.559,531.764v-2.93l13.118-15.72l0.099-0.124c2.437-2.887,3.654-5.125,3.654-6.71c0-1.285-0.431-2.339-1.289-3.166&#10;&#9;&#9;&#9;c-0.858-0.828-1.973-1.238-3.341-1.238c-1.235,0-2.303,0.403-3.206,1.214c-0.898,0.809-1.498,1.905-1.801,3.29l-6.935-3.429&#10;&#9;&#9;&#9;c1.053-2.756,2.658-4.886,4.819-6.396c2.161-1.512,4.694-2.266,7.599-2.266c3.487,0,6.416,1.101,8.786,3.304&#10;&#9;&#9;&#9;c2.368,2.204,3.554,4.948,3.554,8.234c0,2.022-0.533,4.112-1.601,6.271c-1.07,2.162-2.72,4.479-4.958,6.947l-4.757,5.281h13.019&#10;&#9;&#9;&#9;l-1.228,7.436H884.559z" transform="matrix(1.1041154861450198, 0, 0, 1.1041154861450198, -423.65234573086, -405.57135009765625)" style="fill: rgb(230, 78, 78); stroke: rgb(65, 64, 66); stroke-width: 0;"/>
<path style="fill: rgb(6, 133, 217); fill-opacity: 1; stroke: rgb(31, 31, 32); stroke-opacity: 1; stroke-width: 7; paint-order: stroke;" transform="matrix(1, 0, 0, 1, 5.684341886080802e-14, 7.83771425628413)"/></svg>